<svg xmlns="http://www.w3.org/2000/svg" xmlns:xlink="http://www.w3.org/1999/xlink" viewBox="0 0 401.93 364.92"><defs><style>.cls-1{isolation:isolate;}.cls-2{fill:url(#linear-gradient);}.cls-3{opacity:0.7;mix-blend-mode:screen;fill:url(#linear-gradient-2);}.cls-4{fill:#ffd524;}.cls-5{fill:#ffc32e;}.cls-6{fill:#ffe2b2;}.cls-7{fill:#3d4051;}.cls-8{fill:#ff582a;}.cls-9{fill:#ae1e0b;}.cls-10{fill:#009fda;}.cls-11{fill:#0071b8;}.cls-12{fill:#484d5b;}.cls-13{fill:#cadfef;}.cls-14{fill:#fff;}.cls-15{fill:#8d5115;}.cls-16{fill:#774206;}.cls-17{mix-blend-mode:multiply;}.cls-18{fill:#00c4d8;}.cls-19{fill:#008c41;}.cls-20{fill:#00b255;}</style><linearGradient id="linear-gradient" x1="188.49" y1="182.46" x2="590.42" y2="182.46" gradientTransform="matrix(-1, 0, 0, 1, 590.42, 0)" gradientUnits="userSpaceOnUse"><stop offset="0" stop-color="#8ee5b6"/><stop offset="1" stop-color="#00c4d8"/></linearGradient><linearGradient id="linear-gradient-2" x1="409.23" y1="160.73" x2="305.12" y2="279.4" gradientTransform="matrix(-1, 0, 0, 1, 590.42, 0)" gradientUnits="userSpaceOnUse"><stop offset="0" stop-color="#a7ebeb"/><stop offset="1" stop-color="#a7ebeb" stop-opacity="0"/></linearGradient></defs><title>login-bg-top</title><g class="cls-1"><g id="OBJECTS"><path class="cls-2" d="M0,0V364.92c27.94-6.1,54.51-22.67,67.54-48.09,8.22-16,11.57-35.79,25.91-46.66,12-9.12,28.86-9.21,43.36-5s27.59,12.11,41.47,18c21.65,9.29,46.09,13.73,69,8.1s43.68-22.59,49.87-45.33c6.68-24.61-3-54.63,13.74-73.92,18.67-21.58,56.82-13.13,77.52-32.78,13.24-12.55,15.22-33.06,12.49-51.1S391.61,52.65,391,34.41c-.4-12,2.62-24.92,9.49-34.41Z"/><path class="cls-3" d="M0,328v37c27.94-6.1,54.51-22.67,67.54-48.09,8.22-16,11.57-35.79,25.91-46.66,12-9.12,28.86-9.21,43.36-5s27.59,12.11,41.47,18c21.65,9.29,46.09,13.73,69,8.1s43.68-22.59,49.87-45.33c6.68-24.61-3-54.63,13.74-73.92,18.67-21.58,56.82-13.13,77.52-32.78,13.24-12.55,15.22-33.06,12.49-51.1S391.61,52.65,391,34.41c-.4-12,2.62-24.92,9.49-34.41h-64c1,28.63,19,55.3,32.55,81.45,7.69,14.85,13.57,34.51,2.46,47-9.69,10.91-26.89,9.84-41.14,6.63s-29.93-7.5-42.77-.57c-15,8.09-19.07,28-17.25,45s7.79,33.65,6.14,50.63a57,57,0,0,1-78.05,47.42c-15.83-6.36-27.89-19.36-39.35-32S135.73,219.86,120,213.31s-36.43-4.59-46.55,9.14c-13.14,17.81-2.46,43.33-7.69,64.84C59.86,311.46,34,326.44,9.16,327.9,6.1,328.07,3,328.09,0,328ZM105.9,219.74c7.54-.17,21.09,5.78,21.09,14.78,0,10.66-15.55,10.94-22.2,7C96.05,236.25,91.77,220.05,105.9,219.74ZM78,234.63a8,8,0,0,1,2.58-4.95,5.91,5.91,0,0,1,5.45-1.1c2.49,1,3.12,4.41,2.64,6.75a7.73,7.73,0,0,1-4,5.17,5,5,0,0,1-4,.47,4.38,4.38,0,0,1-2.48-2.64A7.59,7.59,0,0,1,78,234.63Z"/><path class="cls-4" d="M70.79,236.21l-43.32-68a4.36,4.36,0,0,0-6-1.33L17,169.72a4.36,4.36,0,0,0-1.34,6l43.32,68,7.54,5.1,7.08,4.79-1.35-8.43Z"/><path class="cls-5" d="M64.88,240,19.21,168.3,17,169.72a4.36,4.36,0,0,0-1.34,6l43.32,68Z"/><polygon class="cls-6" points="70.79 236.21 58.96 243.74 66.5 248.84 73.58 253.63 72.23 245.2 70.79 236.21"/><polygon class="cls-7" points="72.23 245.2 66.5 248.84 73.58 253.63 72.23 245.2"/><path class="cls-8" d="M31.92,175.18l-4.45-7a4.36,4.36,0,0,0-6-1.33L17,169.72a4.36,4.36,0,0,0-1.34,6l4.44,7Z"/><rect class="cls-7" x="20.3" y="178.57" width="14.03" height="4.89" transform="translate(-92.99 43.03) rotate(-32.5)"/><path class="cls-9" d="M26,179,19.21,168.3,17,169.72a4.36,4.36,0,0,0-1.34,6l4.44,7Z"/><path class="cls-10" d="M346.87,111.19l-76.48-25.5a4.37,4.37,0,0,0-5.53,2.77l-1.68,5A4.37,4.37,0,0,0,266,99l76.48,25.5,9.07-.8L360,123l-6.37-5.7Z"/><path class="cls-11" d="M344.65,117.84,264,91l-.84,2.52A4.37,4.37,0,0,0,266,99l76.48,25.5Z"/><polygon class="cls-6" points="346.87 111.19 342.43 124.5 351.5 123.7 360.01 122.96 353.65 117.26 346.87 111.19"/><polygon class="cls-7" points="353.65 117.26 351.5 123.7 360.01 122.96 353.65 117.26"/><path class="cls-4" d="M278.23,88.31l-7.84-2.62a4.37,4.37,0,0,0-5.53,2.77l-1.68,5A4.37,4.37,0,0,0,266,99l7.84,2.61Z"/><rect class="cls-7" x="271.32" y="93.29" width="14.03" height="4.89" transform="translate(99.49 329.51) rotate(-71.56)"/><path class="cls-5" d="M276,95l-12-4-.84,2.52A4.37,4.37,0,0,0,266,99l7.84,2.61Z"/><path class="cls-7" d="M194,116.29l53.58,18.31-9.46,27.26a62.11,62.11,0,0,1-53.49-18.57Z"/><polygon class="cls-7" points="163.12 107.51 211.38 151.19 276.32 146.79 269.56 140.69 265.93 137.39 228.07 103.11 177.11 106.56 172.21 106.9 163.12 107.51"/><polygon class="cls-12" points="172.21 106.9 213.71 144.47 269.56 140.69 265.93 137.39 228.07 103.11 177.11 106.56 172.21 106.9"/><polygon class="cls-4" points="278.37 184.24 281 184 277.56 145.88 220.56 122.48 219.56 124.92 275.08 147.71 278.37 184.24"/><path class="cls-4" d="M278.29,170l.54-.17c1.63.62,7.28,3.77,8.39,17.94l-11.73,1.81C272.45,175.78,276.9,171.11,278.29,170Z"/><path class="cls-13" d="M36.11,87.85a6.28,6.28,0,1,1,8.48-2.65A6.29,6.29,0,0,1,36.11,87.85Zm.48-.92a5.24,5.24,0,1,0-2.21-7.08A5.25,5.25,0,0,0,36.59,86.93Z"/><rect class="cls-14" x="57.12" y="96.86" width="24.04" height="1.81" transform="translate(187.83 81.88) rotate(117.64)"/><polygon class="cls-13" points="96.59 127.68 101.6 132.73 95.69 128.76 90.51 124.47 91.4 123.4 96.59 127.68"/><rect class="cls-7" x="65.83" y="73.82" width="4.1" height="65.59" transform="translate(-57.54 91) rotate(-50.42)"/><path class="cls-14" d="M84.37,125.27a3.88,3.88,0,1,0-.52-5.46A3.87,3.87,0,0,0,84.37,125.27Z"/><path class="cls-13" d="M85.43,124a2.22,2.22,0,1,0-.3-3.12A2.22,2.22,0,0,0,85.43,124Z"/><polygon class="cls-13" points="109.02 103.94 116.03 105.19 109.4 102.59 102.93 100.77 102.55 102.12 109.02 103.94"/><rect class="cls-7" x="73.3" y="59.55" width="4.1" height="65.59" transform="translate(-33.94 139.88) rotate(-74.29)"/><rect class="cls-7" x="34.94" y="74.96" width="1.6" height="11.22" transform="translate(-52.21 74.84) rotate(-62.35)"/><path class="cls-13" d="M74.32,100.48h0a1.18,1.18,0,0,0-.5-1.59l-8.09-4.24a1.18,1.18,0,0,0-1.6.5h0a1.18,1.18,0,0,0,.5,1.59l8.1,4.24A1.18,1.18,0,0,0,74.32,100.48Z"/><path class="cls-14" d="M40.86,88.15A4.35,4.35,0,1,0,39,82.28,4.34,4.34,0,0,0,40.86,88.15Z"/><path class="cls-13" d="M41.74,86.46a2.44,2.44,0,1,0-1-3.29A2.45,2.45,0,0,0,41.74,86.46Z"/><rect class="cls-14" x="22.1" y="65.41" width="4.66" height="18.46" rx="1.58" transform="translate(101.88 87.62) rotate(117.64)"/><path class="cls-13" d="M169,278.45s8.13-19.6,24.15-21.42,47.32,16.62,101.19,16.62l10.56,16H169Z"/><path class="cls-14" d="M169,278.45s-1.34-17.17,7.22-21.54c10.61-5.42,49.87,6.19,96.89-26.45l14.56,28.63s-17.27,11.06-47.08,14.2C202.53,277.29,186.88,254.78,169,278.45Z"/><path class="cls-13" d="M169,278.45s-8.13-19.6-24.14-21.42S97.58,273.65,43.7,273.65l-10.55,16H169Z"/><path class="cls-14" d="M169,276.16s-3.88-19.61-19.9-21.71S96.72,267.1,86.53,268.19s-40.4,2-40.4,2l-5.59,8.26s35-.34,45.63-1.52c13.1-1.46,41.49-17.84,60.79-15.11s21.47,16.65,21.47,16.65Z"/><rect class="cls-15" x="23.92" y="289.67" width="287.57" height="8.01" transform="translate(335.41 587.34) rotate(-180)"/><path class="cls-15" d="M158.85,304.23h20.38a10.56,10.56,0,0,0,10.56-10.56h-41.5A10.56,10.56,0,0,0,158.85,304.23Z"/><path class="cls-16" d="M160.64,298.33h16.8a8.71,8.71,0,0,0,8.71-8.71h0L169,276.15l-17.11,13.47h0A8.71,8.71,0,0,0,160.64,298.33Z"/><path class="cls-4" d="M151.94,289.62a8.69,8.69,0,0,0,1.66,5.13L169,282.59l15.45,12.16a8.69,8.69,0,0,0,1.66-5.13L169,276.16Z"/><g class="cls-17"><path class="cls-18" d="M287.56,76.23a3.68,3.68,0,0,0,4.87,1.83l8.48-3.85a.52.52,0,1,0-.43-.95L292,77.11a2.64,2.64,0,0,1-2.18-4.81l9.79-4.45a1.85,1.85,0,1,1,1.53,3.36l-8.09,3.68a1.09,1.09,0,1,1-.91-2l6-2.72a.52.52,0,1,0-.43-1l-6,2.72a2.13,2.13,0,0,0,1.77,3.88l8.09-3.68a2.89,2.89,0,0,0-2.39-5.26l-9.79,4.46A3.68,3.68,0,0,0,287.56,76.23Z"/></g><g class="cls-17"><path class="cls-18" d="M301,155.14c.82.7,2.09.69,3.57.1a11.3,11.3,0,0,0,2-1.06c1.7,2.17,3.52,3.25,4.95,2.68s2-2.6,1.74-5.35a11.08,11.08,0,0,0,2.16-.59c1.48-.59,2.4-1.46,2.52-2.53.15-1.42-1.17-2.79-3.43-3.82a5.77,5.77,0,0,0,.23-.61c.72-2.1.58-3.69-.37-4.51-1.17-1-3.24-.55-5.54,1-1.7-2.17-3.53-3.24-4.95-2.67s-2,2.6-1.74,5.34c-2.71.49-4.51,1.6-4.68,3.12-.13,1.25.87,2.5,2.83,3.52l.59.29C299.94,152.31,299.93,154.22,301,155.14Zm1.24-11a20,20,0,0,0,.54,2.41,20.64,20.64,0,0,0-1.53,2.6l-.53-.26c-1.54-.81-2.38-1.73-2.29-2.53.06-.63.74-1.23,1.87-1.68A10.32,10.32,0,0,1,302.26,144.09Zm3.11,6.27c-.29-.57-.56-1.17-.81-1.81s-.48-1.27-.66-1.87c.37-.52.77-1,1.22-1.57s.79-.88,1.18-1.28c.57,0,1.15,0,1.75.11s1.34.18,2,.3c.28.56.56,1.17.81,1.81s.47,1.26.66,1.87c-.38.52-.78,1.05-1.22,1.56s-.79.89-1.18,1.29c-.57,0-1.15-.06-1.75-.12S306,150.48,305.37,150.36Zm1.85,1.28c.3,0,.58.06.87.08-.44.39-.88.75-1.3,1.06-.28-.4-.55-.84-.82-1.31C306.38,151.54,306.8,151.6,307.22,151.64Zm3.8-1.51c.28-.33.54-.66.79-1,.13.53.23,1,.31,1.52q-.8.09-1.68.12Zm.73-4.45c-.16-.4-.33-.79-.5-1.16a16.78,16.78,0,0,1,1.92.59,18.22,18.22,0,0,1-1,1.75C312.05,146.47,311.91,146.08,311.75,145.68Zm-3.6-2.73-.85-.07a14.71,14.71,0,0,1,1.29-1.06c.28.4.55.83.82,1.3Zm-3.79,1.52c-.28.32-.54.65-.79,1-.13-.52-.23-1-.31-1.51.53-.06,1.08-.1,1.67-.12C304.74,144,304.55,144.24,304.36,144.47Zm-.73,4.45c.16.4.33.78.5,1.16a18.87,18.87,0,0,1-1.92-.59,18.83,18.83,0,0,1,1-1.76C303.33,148.12,303.47,148.52,303.63,148.92ZM308,141a18.67,18.67,0,0,0-2.08,1.81,20.27,20.27,0,0,0-2.76.12c-.21-2.3.23-3.92,1.1-4.27S306.54,139.18,308,141Zm5.81,2.63c-.06.18-.14.37-.21.55a21.84,21.84,0,0,0-2.9-.83,20.12,20.12,0,0,0-1.26-2.12,10.33,10.33,0,0,1,1.78-.94c1.13-.45,2-.49,2.51-.07S314.35,142,313.79,143.63Zm-.67,6.87a20.53,20.53,0,0,0-.55-2.41,19.67,19.67,0,0,0,1.53-2.59c1.87.86,2.93,1.91,2.83,2.79S315.4,150.08,313.12,150.5Zm-5.73,3.09a19.67,19.67,0,0,0,2.09-1.81,20.34,20.34,0,0,0,2.76-.12c.2,2.31-.23,3.92-1.11,4.27S308.83,155.41,307.39,153.59Zm-5.59-3.19a19.58,19.58,0,0,0,2.89.84,20.84,20.84,0,0,0,1.27,2.12c-1.95,1.26-3.58,1.63-4.29,1S301,152.32,301.8,150.4Z"/><path class="cls-18" d="M307,145.49a1.95,1.95,0,1,1-1.09,2.53A1.95,1.95,0,0,1,307,145.49Z"/></g><g class="cls-17"><path class="cls-18" d="M30.41,232.16a5.39,5.39,0,0,1-2.79,6.37l.76,2.57A3,3,0,0,1,31.09,243l-5.7,1.68a3,3,0,0,1,1.22-3.09l-.76-2.57a5.4,5.4,0,0,1-5.8-3.83l-2-6.82,10.36-3.06Z"/><path class="cls-18" d="M25,245.35l6.81-2a.56.56,0,0,1,.7.37.58.58,0,0,1-.38.7l-6.81,2a.58.58,0,0,1-.7-.38A.56.56,0,0,1,25,245.35Z"/><path class="cls-18" d="M33.76,228.22a3,3,0,0,1-2,3.73l-.59.17L30.79,231l.6-.18a1.81,1.81,0,0,0-1-3.47l-.59.17-.34-1.14.6-.17A3,3,0,0,1,33.76,228.22Z"/><path class="cls-18" d="M17.14,230l.59-.18.34,1.15-.6.17a1.81,1.81,0,0,0,1,3.48l.59-.18.34,1.14-.59.18a3,3,0,1,1-1.7-5.76Z"/></g><g class="cls-17"><path class="cls-18" d="M23.06,122.52a5.38,5.38,0,1,0,9.48.26l2-3.42-5.17-3-1.94,3.42A5.37,5.37,0,0,0,23.06,122.52Zm1.43.81s0,0,0,0L31,127a0,0,0,0,0,0,0,3.74,3.74,0,1,1-6.5-3.71Z"/><path class="cls-18" d="M34.92,118.48l-5.06-2.88a1.06,1.06,0,1,1,1.05-1.85L36,116.64a1.06,1.06,0,0,1-1,1.84Z"/></g><g class="cls-17"><path class="cls-18" d="M131.28,85.25l.66.57a6.3,6.3,0,0,0,.56,7.87L131.35,95a.69.69,0,0,0,1.05.91l1.15-1.33A6.3,6.3,0,0,0,141.4,94l1.17,1a.69.69,0,0,0,.91-1l-1.17-1a6.3,6.3,0,0,0-.56-7.82l.55-.64,2.48,2.14a4,4,0,0,0-.71-5.24,4.07,4.07,0,0,0-1.6-.85l-.58-1.77a2.18,2.18,0,0,0-2.25-1.5l-6.73.48a2.18,2.18,0,0,0-2,1.85l-.27,1.74a4,4,0,0,0-1.53,1.09,4,4,0,0,0,0,5.29Zm1.17,2.2a.71.71,0,0,1,.94-.3L137,89l2.53-2.65a.7.7,0,1,1,1,1l-2.89,3a.66.66,0,0,1-.45.21.68.68,0,0,1-.37-.07l-4.08-2.12A.71.71,0,0,1,132.45,87.45Zm-.85-6.36.21-1.34A1.28,1.28,0,0,1,133,78.68l6.73-.48a1.28,1.28,0,0,1,1.3.87l.44,1.35a4,4,0,0,0-2.67,1l2.47,2.15-.55.63a6.34,6.34,0,0,0-3.21-1.1l-.06-.91a.83.83,0,0,0-1.65.12l.07.91a6.16,6.16,0,0,0-3,1.53l-.66-.57,2.15-2.47A4,4,0,0,0,131.6,81.09Z"/><path class="cls-18" d="M128.24,79.63a.46.46,0,0,1,.52.76,4.45,4.45,0,0,0-2,3.88c0,.6-.91.67-.93.07A5.38,5.38,0,0,1,128.24,79.63Z"/><path class="cls-18" d="M126.43,78.46a.47.47,0,0,1,.53.77,4.45,4.45,0,0,0-2,3.88c0,.59-.9.66-.92.06A5.39,5.39,0,0,1,126.43,78.46Z"/><path class="cls-18" d="M144.84,78.44a.46.46,0,0,0-.41.83A4.46,4.46,0,0,1,147,82.82c.06.6,1,.53.92-.06A5.38,5.38,0,0,0,144.84,78.44Z"/><path class="cls-18" d="M146.46,77a.46.46,0,0,0-.4.83,4.43,4.43,0,0,1,2.54,3.55c.07.6,1,.53.93-.06A5.39,5.39,0,0,0,146.46,77Z"/></g><g class="cls-17"><path class="cls-18" d="M235.69,82.08l-1.58,7.16L228.36,88l.32-1.49,3.89.86.3-1.35-3.42-.75.33-1.5,3.41.75.3-1.33-3.78-.84.33-1.49Z"/><path class="cls-18" d="M228.69,82.77l-.26,1.17-4.56-1,.26-1.17ZM228.2,85l-.26,1.17-4.55-1,.25-1.16Z"/><path class="cls-18" d="M215.84,79.35A2,2,0,0,1,217.5,81a1.87,1.87,0,0,1,2.11-.83,2,2,0,0,1,1.59,1.37l.2-.91,1.81.4L222,86.57l-1.81-.4.6-2.73A1.13,1.13,0,0,0,220,82a.9.9,0,0,0-1.13.81l-.65,3-1.82-.4.6-2.73a1.12,1.12,0,0,0-.77-1.47.9.9,0,0,0-1.13.81l-.65,3-1.82-.4.76-3.48A2,2,0,0,1,215.84,79.35Z"/><path class="cls-18" d="M208.6,79.94l-1.15-1.06a3,3,0,0,1,5,2.72,3,3,0,0,1-5.68.29l1.51-.47a1.17,1.17,0,0,0,.95.86c.65.14,1.22-.29,1.39-1.1a1.2,1.2,0,0,0-.8-1.58A1.29,1.29,0,0,0,208.6,79.94Z"/><path class="cls-18" d="M205.57,76.48l1.16,1.86-.17.71-3.12-.69.18-.86,1.76.39-.66-1a2.29,2.29,0,0,1-.49-1.55c.14-.65.84-1,1.67-.77a3.08,3.08,0,0,1,1.57,1l-.58.7a2,2,0,0,0-1-.77c-.3-.07-.5,0-.55.25A1.24,1.24,0,0,0,205.57,76.48Z"/></g><g class="cls-17"><path class="cls-18" d="M267.49,197.44a6.92,6.92,0,0,0-4.77.92c-2.21,1.4-3.37,3.93-4.69,6.19a6.11,6.11,0,0,1-2.43,2.6c-1.19.56-2.62.86-2.74,2.46a4.31,4.31,0,0,0,2.06,3.46c3.49,2.55,8.58,2.26,12.39.61a12,12,0,0,0,3.77-2.45,8.88,8.88,0,0,0,2.59-6.81,7.86,7.86,0,0,0-3.81-6.13A7.15,7.15,0,0,0,267.49,197.44Zm-4.85,14a1.58,1.58,0,1,1,2.91,1.24,1.58,1.58,0,0,1-2.91-1.24Zm-3.31-3.34a1.16,1.16,0,1,1-1.47.74A1.17,1.17,0,0,1,259.33,208.07Zm9.9.18a1.58,1.58,0,0,1-1.24,2.91,1.58,1.58,0,1,1,1.24-2.91Zm.37-3.18a1.58,1.58,0,1,1,.83,2.08A1.58,1.58,0,0,1,269.6,205.07Zm-4.22-4.34a1.58,1.58,0,1,1-2.08.84A1.59,1.59,0,0,1,265.38,200.73Zm4.6-.82a1.58,1.58,0,1,1-2.07.84A1.59,1.59,0,0,1,270,199.91Z"/><path class="cls-18" d="M279.52,214.26a.39.39,0,0,1,0,.06h0l-.06.06,0,0-.12.08-.08,0-.09,0-.12.07h0c-2.31,1.15-11.5,4.1-17.26,5.73h0l-.4.12h0c-.4.11-.9.24-1.42.36l-.95.21-.3.07-.84.15-.45.06h-.05a1.36,1.36,0,0,1-1,.9l-.31,0a6.43,6.43,0,0,1-1.25-.24,2,2,0,0,0-1.74.43l-.08.06-.21.17a4.7,4.7,0,0,1,.79-1.79,3.63,3.63,0,0,1,1.65-1.26,1.92,1.92,0,0,1,1.43,0,1.17,1.17,0,0,1,.29.17,13.72,13.72,0,0,1,1.28-.52c.86-.32,1.9-.66,2.62-.86C267.29,216.55,279.35,213.67,279.52,214.26Z"/></g><polygon class="cls-14" points="322.64 48.45 324.61 50.64 323.91 53.51 326.61 52.31 329.12 53.86 328.82 50.93 331.06 49.02 328.18 48.4 327.06 45.67 325.58 48.22 322.64 48.45"/><polygon class="cls-14" points="250.28 172.67 252.24 174.87 251.55 177.73 254.24 176.54 256.75 178.09 256.45 175.16 258.7 173.25 255.82 172.63 254.7 169.9 253.22 172.45 250.28 172.67"/><polygon class="cls-14" points="171.08 85.96 173.97 86.54 175.13 89.25 176.57 86.68 179.5 86.42 177.51 84.25 178.16 81.38 175.48 82.61 172.95 81.1 173.29 84.02 171.08 85.96"/><polygon class="cls-14" points="17.26 52.24 20.15 52.82 21.31 55.53 22.75 52.96 25.69 52.7 23.69 50.53 24.34 47.66 21.67 48.89 19.14 47.38 19.48 50.3 17.26 52.24"/><polygon class="cls-14" points="47.32 151.56 50.21 152.14 51.37 154.85 52.81 152.28 55.74 152.01 53.75 149.85 54.4 146.97 51.72 148.2 49.19 146.69 49.53 149.62 47.32 151.56"/><polygon class="cls-14" points="15.22 267.15 18.11 267.73 19.27 270.44 20.71 267.87 23.64 267.6 21.65 265.44 22.3 262.56 19.63 263.79 17.09 262.28 17.43 265.21 15.22 267.15"/><polygon class="cls-14" points="347.01 152.26 349.9 152.84 351.06 155.55 352.5 152.98 355.44 152.72 353.44 150.55 354.1 147.68 351.42 148.91 348.89 147.4 349.23 150.32 347.01 152.26"/><path class="cls-8" d="M123.55,132.36l5.48.95,4.38-3.43a10.24,10.24,0,0,1,9.29-1.9c3.84,1.2,8.21,5,10.31,15.53,4.2,21-15.34,24.19-15.34,24.19s-18.72,6.43-24.95-14.07c-3.12-10.25-1.08-15.68,1.74-18.55A10.27,10.27,0,0,1,123.55,132.36Z"/><path class="cls-9" d="M131.8,168.63a21.78,21.78,0,0,0,5.87-.94s19.54-3.18,15.33-24.18c-2.1-10.51-6.47-14.32-10.31-15.53a10.23,10.23,0,0,0-9.29,1.9l-1.56,1.22c3.66,1.41,7.67,5.36,9.66,15.3C144.19,159.81,137.2,166,131.8,168.63Z"/><path class="cls-7" d="M120,126a13.2,13.2,0,0,1,12.68,11.56c.28,2.07-2.91,2.83-3.19.73a10,10,0,0,0-9.6-9C117.74,129.21,117.84,125.93,120,126Z"/><path class="cls-19" d="M132.5,121.94c-3.12,5.22-.72,12.4-.72,12.4s7.46-1.28,10.58-6.49.72-12.39.72-12.39S135.61,116.73,132.5,121.94Z"/><path class="cls-15" d="M78.78,176.79c3.18.81,13.68,6.33,19.3,9.71,29,17.39,80.15,50.93,78.61,53.49s-55.19-26.85-84.16-44.24c-5.63-3.38-15.4-9.9-17.65-12.47Z"/><path class="cls-14" d="M92.53,195.75c-5.63-3.38-15.4-9.9-17.65-12.47l3.9-6.49c3.18.81,13.68,6.33,19.3,9.71l1.91,1.15-5.55,9.25Z"/><path class="cls-16" d="M171.4,238.57c3.12,1.32,5,1.87,5.3,1.42,1.53-2.56-49.65-36.11-78.61-53.5-5.63-3.38-16.13-8.88-19.31-9.7l-1.56,2.59c3.18.82,13.68,6.33,19.31,9.71C120.36,203.4,159.24,228.64,171.4,238.57Z"/><path class="cls-13" d="M77.23,179.38c3.17.83,13.67,6.33,19.3,9.71l1.9,1.15,1.56-2.59-1.9-1.15c-5.63-3.38-16.13-8.9-19.3-9.71Z"/><path class="cls-7" d="M79.18,181.24a6.83,6.83,0,0,0,.39-5.68,9.7,9.7,0,0,0-5-5,18.31,18.31,0,0,0-10.12-1.64,23.67,23.67,0,0,0-9.12,3.22c.45.05.87.1,1.3.17a4.51,4.51,0,0,1,.53.1,10.17,10.17,0,0,1,7.41,4.76c1.09,1.78,1.9,3.73,3.38,5.3a7.33,7.33,0,0,0,1.18,1A6.83,6.83,0,0,0,79.18,181.24Z"/><path class="cls-5" d="M359.3,45.17l-20.75,39a2.27,2.27,0,0,0,.94,3.07l5.84,3.11a2.28,2.28,0,0,0,3.08-.93l20.75-39a2.28,2.28,0,0,0-.94-3.08l-5.84-3.11A2.28,2.28,0,0,0,359.3,45.17Z"/><path class="cls-4" d="M368.22,47.35a2.27,2.27,0,0,1,.94,3.07l-20.75,39a2.28,2.28,0,0,1-3.08.94l-2.92-1.56,22.89-43Z"/><path class="cls-5" d="M370.19,36.6h0A2.38,2.38,0,0,1,371.44,39l-.22,1.75A12.15,12.15,0,0,1,369.88,45l-1.42,2.67L365.21,46,362,44.23l1.42-2.67a12.18,12.18,0,0,1,2.8-3.5l1.34-1.16A2.35,2.35,0,0,1,370.19,36.6Z"/><path class="cls-4" d="M368.16,36.51a2.09,2.09,0,0,1,0,.75L368,39a12.37,12.37,0,0,1-1.34,4.27L365.21,46l3.25,1.73L369.88,45a12.39,12.39,0,0,0,1.35-4.27l.21-1.77a2.36,2.36,0,0,0-1.24-2.38h0A2.34,2.34,0,0,0,368.16,36.51Z"/><rect class="cls-7" x="362.05" y="44.18" width="2.27" height="11.17" transform="translate(148.51 346.91) rotate(-61.96)"/><rect class="cls-7" x="359.87" y="48.27" width="2.27" height="11.17" transform="translate(143.75 347.15) rotate(-61.96)"/><path class="cls-7" d="M351.64,65.41c-2,3.78-2.52,7.43-1.14,8.17s4.12-1.73,6.13-5.51,2.53-7.43,1.15-8.16S353.65,61.64,351.64,65.41Z"/><rect class="cls-7" x="345.73" y="74.81" width="2.27" height="11.17" transform="translate(112.84 348.74) rotate(-61.96)"/><rect class="cls-7" x="343.55" y="78.9" width="2.27" height="11.17" transform="translate(108.08 348.99) rotate(-61.96)"/><path class="cls-19" d="M173.39,205.74l29.32,33a2.27,2.27,0,0,0,3.21.18l5-4.39a2.27,2.27,0,0,0,.19-3.21l-29.32-33a2.28,2.28,0,0,0-3.22-.19l-4.94,4.39A2.29,2.29,0,0,0,173.39,205.74Z"/><path class="cls-20" d="M178.53,198.13a2.28,2.28,0,0,1,3.21.19l29.32,33a2.27,2.27,0,0,1-.19,3.21l-2.48,2.19-32.34-36.38Z"/><path class="cls-19" d="M169.14,192.54h0a2.38,2.38,0,0,1,2.67-.33l1.57.81a12.15,12.15,0,0,1,3.54,2.75l2,2.26-2.75,2.44-2.75,2.44-2-2.26a12.18,12.18,0,0,1-2.31-3.83l-.62-1.66A2.38,2.38,0,0,1,169.14,192.54Z"/><path class="cls-20" d="M168.35,194.42a2.11,2.11,0,0,1,.71.23l1.57.82a12.29,12.29,0,0,1,3.54,2.74l2,2.26,2.76-2.45-2-2.25a12.11,12.11,0,0,0-3.53-2.75l-1.59-.81a2.37,2.37,0,0,0-2.66.33h0A2.32,2.32,0,0,0,168.35,194.42Z"/><rect class="cls-7" x="173.46" y="202.56" width="11.17" height="2.27" transform="translate(-90.1 170.39) rotate(-41.63)"/><rect class="cls-7" x="176.54" y="206.03" width="11.17" height="2.27" transform="translate(-91.62 173.3) rotate(-41.63)"/><path class="cls-7" d="M189.71,220c2.84,3.2,6.09,5,7.26,3.91s-.19-4.47-3-7.67-6.09-4.94-7.26-3.91S186.87,216.75,189.71,220Z"/><rect class="cls-7" x="196.52" y="228.5" width="11.17" height="2.27" transform="translate(-101.51 192.26) rotate(-41.63)"/><rect class="cls-7" x="199.59" y="231.96" width="11.17" height="2.27" transform="translate(-103.03 195.19) rotate(-41.63)"/><path class="cls-9" d="M194.33,186.11l42.41,12.2a2.27,2.27,0,0,0,2.81-1.56l1.83-6.36a2.27,2.27,0,0,0-1.55-2.82l-42.42-12.2a2.27,2.27,0,0,0-2.81,1.56l-1.83,6.36A2.28,2.28,0,0,0,194.33,186.11Z"/><path class="cls-8" d="M194.6,176.93a2.28,2.28,0,0,1,2.82-1.56l42.41,12.2a2.29,2.29,0,0,1,1.56,2.82l-.92,3.18-46.79-13.46Z"/><path class="cls-9" d="M183.68,177.23h0a2.35,2.35,0,0,1,2.08-1.71l1.76-.16a12.22,12.22,0,0,1,4.46.43l2.9.84-1,3.53-1,3.54-2.91-.84a12.32,12.32,0,0,1-4-2l-1.41-1.07A2.37,2.37,0,0,1,183.68,177.23Z"/><path class="cls-8" d="M184,179.24a2.25,2.25,0,0,1,.73-.19l1.76-.15a12.22,12.22,0,0,1,4.46.43l2.9.84,1-3.54-2.9-.84a12.22,12.22,0,0,0-4.46-.43l-1.77.16a2.39,2.39,0,0,0-2.08,1.7h0A2.37,2.37,0,0,0,184,179.24Z"/><rect class="cls-7" x="192.43" y="180.22" width="11.17" height="2.27" transform="translate(-31.02 321.51) rotate(-73.95)"/><rect class="cls-7" x="196.88" y="181.5" width="11.17" height="2.27" transform="translate(-29.03 326.71) rotate(-73.95)"/><path class="cls-7" d="M215.72,189.39c4.11,1.18,7.79.93,8.22-.58s-2.55-3.67-6.66-4.85-7.79-.93-8.22.57S211.61,188.21,215.72,189.39Z"/><rect class="cls-7" x="225.78" y="189.82" width="11.17" height="2.27" transform="translate(-16.11 360.5) rotate(-73.95)"/><rect class="cls-7" x="230.23" y="191.1" width="11.17" height="2.27" transform="translate(-14.12 365.71) rotate(-73.95)"/></g></g></svg>