<?xml version="1.0" standalone="no"?>
<!DOCTYPE svg PUBLIC "-//W3C//DTD SVG 1.1//EN" "http://www.w3.org/Graphics/SVG/1.1/DTD/svg11.dtd" >
<svg xmlns="http://www.w3.org/2000/svg" xmlns:xlink="http://www.w3.org/1999/xlink" version="1.1">
<metadata>
Created by FontForge 20170731 at Sat Aug  3 00:56:26 2019
 By Aleksey,,,
Copyright 2015 Google LLC. All Rights Reserved. mod by nongthaihoang
</metadata>
<defs>
<font id="GoogleSans-BoldItalic" horiz-adv-x="0" >
  <font-face 
    font-family="Google Sans"
    font-weight="700"
    font-style="italic"
    font-stretch="normal"
    units-per-em="1000"
    panose-1="2 11 8 3 3 5 2 4 2 4"
    ascent="800"
    descent="-200"
    x-height="510"
    cap-height="716"
    bbox="-918.042 -286 3284 1056"
    underline-thickness="84"
    underline-position="-244"
    slope="-10"
    unicode-range="U+0002-1F16B"
  />
<missing-glyph horiz-adv-x="220" 
 />
    <glyph glyph-name="G_l_o_g_o_l_i_g_a_t_u_r_e.liga" unicode="Glogoligature" horiz-adv-x="861" 
d="M460 -16q-111 0 -207 55.5t-152.5 149.5t-56.5 205t56.5 205t152.5 149.5t207 55.5q163 0 281 -113l-79 -79q-85 80 -202 80q-81 0 -148.5 -40t-106.5 -108.5t-39 -149.5t39 -149.5t106.5 -108.5t148.5 -40q72 0 121.5 23t85.5 59q49 49 61 141h-268v112h377q6 -30 6 -70
q0 -71 -23 -141t-74 -121q-110 -115 -286 -115z" />
    <glyph glyph-name="e_l_o_g_o_l_i_g_a_t_u_r_e.liga" unicode="elogoligature" horiz-adv-x="514" 
d="M289 -16q-74 0 -134 35t-94 95.5t-34 133.5q0 77 33.5 137t90.5 93.5t125 33.5q91 0 147 -53t79 -115l12 -30l-353 -146q41 -80 128 -80q80 0 130 73l90 -60q-30 -45 -85 -81t-135 -36zM378 354q-10 25 -37 40.5t-61 15.5q-31 0 -64 -18t-54 -53t-20 -83z" />
    <glyph glyph-name="g_l_o_g_o_l_i_g_a_t_u_r_e.liga" unicode="glogoligature" horiz-adv-x="566" 
d="M277 -253q-88 0 -148 47t-86 109l101 42q16 -38 50 -66t83 -28q66 0 103.5 40t37.5 115v38h-4q-21 -26 -57.5 -43t-81.5 -17q-66 0 -124 35t-93.5 95.5t-35.5 132.5q0 73 35.5 133.5t94 96t123.5 35.5q45 0 81.5 -17t57.5 -42h4v43h110v-474q0 -138 -70.5 -206.5
t-180.5 -68.5zM285 88q39 0 71.5 20.5t51 57t18.5 81.5q0 46 -18.5 82.5t-51 57.5t-71.5 21q-40 0 -73.5 -21t-53.5 -58t-20 -82t20 -81.5t53.5 -57t73.5 -20.5z" />
    <glyph glyph-name="l_l_o_g_o_l_i_g_a_t_u_r_e.liga" unicode="llogoligature" horiz-adv-x="187" 
d="M42 0v776h116v-776h-116z" />
    <glyph glyph-name="o_l_o_g_o_l_i_g_a_t_u_r_e.liga" unicode="ologoligature" horiz-adv-x="578" 
d="M287 -16q-72 0 -133 34.5t-96.5 95t-35.5 134.5q0 75 35.5 135.5t96.5 94.5t133 34t133 -34t96.5 -94.5t35.5 -135.5q0 -74 -35.5 -134.5t-96.5 -95t-133 -34.5zM287 88q40 0 74 20.5t54.5 57t20.5 82.5t-20.5 82.5t-54.5 57t-74 20.5t-74 -20.5t-54.5 -57t-20.5 -82.5
t20.5 -82.5t54.5 -57t74 -20.5z" />
    <glyph glyph-name="f_b.liga" unicode="fb" horiz-adv-x="1006" 
d="M699 -16q-56 0 -98 22t-64 55h-8l-10 -61h-123l106 600h-121q-34 0 -55.5 -19t-27.5 -56l-3 -15h121l-20 -112h-121l-70 -398h-130l69 398h-90l19 112h91l3 16q17 98 73.5 146t160.5 48h253l-36 -200l-21 -72h8q20 31 60.5 54.5t94.5 23.5q60 0 108.5 -30t76.5 -84.5
t28 -123.5q0 -87 -36.5 -156.5t-99 -108.5t-138.5 -39zM680 105q44 0 81.5 21.5t59 59.5t21.5 87q0 36 -17 66t-46 47.5t-63 17.5q-47 0 -82.5 -23.5t-54.5 -63t-19 -86.5q0 -36 16.5 -65t44 -45t59.5 -16z" />
    <glyph glyph-name="f_f.liga" unicode="ff" horiz-adv-x="735" 
d="M144 398h-90l19 112h91l5 28q14 90 71.5 138t147.5 48q32 0 56 -6l-22 -126q-7 3 -18 6t-26 3q-30 0 -52 -19t-28 -52l-3 -20h191l5 28q14 91 72 138.5t150 47.5q24 0 46 -4t33 -10l-22 -125q-30 16 -64 16q-33 0 -56.5 -19t-29.5 -52l-3 -20h124l-20 -112h-124l-71 -398
h-130l70 398h-191l-70 -398h-131z" />
    <glyph glyph-name="f_f_b.liga" unicode="ffb" horiz-adv-x="1327" 
d="M1020 -16q-56 0 -98 22t-64 55h-8l-11 -61h-122l106 600h-122q-33 0 -54.5 -19t-28.5 -56l-3 -15h121l-19 -112h-121l-70 -398h-131l70 398h-190l-70 -398h-131l70 398h-90l19 112h91l5 28q14 90 71.5 138t147.5 48q32 0 56 -6l-22 -126q-7 3 -18 6t-26 3q-30 0 -52 -19
t-28 -52l-3 -20h190l2 16q16 98 73 146t162 48h253l-37 -200l-20 -72h8q20 32 60.5 55t94.5 23q59 0 108 -30t77 -84.5t28 -123.5q0 -87 -36.5 -156.5t-99 -108.5t-138.5 -39zM1000 105q45 0 82 21.5t58.5 59.5t21.5 87q0 55 -36.5 93t-89.5 38q-46 0 -81.5 -23.5t-55 -63
t-19.5 -86.5q0 -36 16.5 -65t44 -45t59.5 -16z" />
    <glyph glyph-name="f_f_h.liga" unicode="ffh" horiz-adv-x="1297" 
d="M144 398h-90l19 112h91l5 28q14 90 71.5 138t147.5 48q32 0 56 -6l-22 -126q-7 3 -18 6t-26 3q-30 0 -52 -19t-28 -52l-3 -20h190l2 16q16 98 73 146t162 48h253l-33 -185l-24 -89h8q54 80 162 80q75 0 119 -44.5t44 -113.5q0 -40 -6 -65l-53 -303h-131l52 293q4 16 4 39
q0 30 -22.5 51t-58.5 21q-57 0 -92.5 -38.5t-49.5 -111.5l-46 -254h-130l105 600h-122q-33 0 -54.5 -19t-28.5 -56l-3 -15h121l-19 -112h-121l-70 -398h-131l70 398h-190l-70 -398h-131z" />
    <glyph glyph-name="f_f_i.liga" unicode="ffi" horiz-adv-x="961" 
d="M893 566q-35 0 -60 24.5t-25 59.5t25 59.5t60 24.5t59.5 -24.5t24.5 -59.5t-24.5 -59.5t-59.5 -24.5zM144 398h-90l19 112h91l5 28q14 90 71.5 138t147.5 48q32 0 56 -6l-22 -126q-7 3 -18 6t-26 3q-30 0 -52 -19t-28 -52l-3 -20h190l4 28q14 91 71.5 138.5t148.5 47.5
q30 0 56 -6l-22 -126q-24 9 -44 9q-31 0 -52.5 -19t-27.5 -52l-4 -20h321l-89 -510h-131l69 398h-189l-70 -398h-131l70 398h-190l-70 -398h-131z" />
    <glyph glyph-name="f_f_j.liga" unicode="ffj" horiz-adv-x="961" 
d="M893 566q-35 0 -60 24.5t-25 59.5t25 59.5t60 24.5t59.5 -24.5t24.5 -59.5t-24.5 -59.5t-59.5 -24.5zM650 -226q-18 0 -38.5 2.5t-32.5 6.5l21 122q22 -11 51 -11q26 0 38.5 13.5t18.5 42.5l77 448h-189l-70 -398h-131l70 398h-190l-70 -398h-131l70 398h-90l19 112h91
l5 28q14 90 71.5 138t147.5 48q32 0 56 -6l-22 -126q-7 3 -18 6t-26 3q-30 0 -52 -19t-28 -52l-3 -20h190l4 28q14 91 71.5 138.5t148.5 47.5q30 0 56 -6l-22 -126q-24 9 -44 9q-31 0 -52.5 -19t-27.5 -52l-4 -20h321l-98 -564q-18 -99 -64 -135.5t-124 -36.5z" />
    <glyph glyph-name="f_f_k.liga" unicode="ffk" horiz-adv-x="1257" 
d="M144 398h-90l19 112h91l5 28q14 90 71.5 138t147.5 48q32 0 56 -6l-22 -126q-7 3 -18 6t-26 3q-30 0 -52 -19t-28 -52l-3 -20h190l2 16q16 98 73 146t162 48h253l-68 -387h6l205 177h170l-2 -8l-231 -194l151 -300l-2 -8h-149l-104 222l-75 -63l-28 -159h-131l106 600
h-122q-33 0 -54.5 -19t-28.5 -56l-3 -15h121l-19 -112h-121l-70 -398h-131l70 398h-190l-70 -398h-131z" />
    <glyph glyph-name="f_f_l.liga" unicode="ffl" horiz-adv-x="957" 
d="M144 398h-90l19 112h91l5 28q14 90 71.5 138t147.5 48q32 0 56 -6l-22 -126q-7 3 -18 6t-26 3q-30 0 -52 -19t-28 -52l-3 -20h190l2 16q16 98 73 146t162 48h253l-127 -720h-131l106 600h-122q-33 0 -54.5 -19t-28.5 -56l-3 -15h121l-19 -112h-121l-70 -398h-131l70 398
h-190l-70 -398h-131z" />
    <glyph glyph-name="f_f_t.liga" unicode="fft" horiz-adv-x="1078" 
d="M891 -8q-69 0 -108 35.5t-39 103.5q0 27 5 52l37 215h-190l-70 -398h-131l70 398h-190l-70 -398h-131l70 398h-90l19 112h91l5 28q14 90 71.5 138t147.5 48q32 0 56 -6l-22 -126q-7 3 -18 6t-26 3q-30 0 -52 -19t-28 -52l-3 -20h190l4 28q14 91 71.5 138.5t148.5 47.5
q30 0 56 -6l-22 -126q-24 9 -44 9q-31 0 -52.5 -19t-27.5 -52l-4 -20h191l26 144h130l-26 -144h125l-19 -112h-125l-37 -209q-2 -11 -2 -24q0 -23 13 -36.5t37 -13.5q30 0 56 18l9 -122q-36 -19 -102 -19z" />
    <glyph glyph-name="f_h.liga" unicode="fh" horiz-adv-x="977" 
d="M144 398h-90l19 112h91l3 16q15 98 72 146t162 48h253l-33 -185l-23 -89h8q25 38 66 59t95 21q75 0 119 -44.5t44 -113.5q0 -39 -5 -65l-54 -303h-131l52 293q4 16 4 39q0 30 -22.5 51t-58.5 21q-57 0 -92.5 -38.5t-48.5 -111.5l-46 -254h-131l105 600h-121
q-34 0 -55.5 -19t-27.5 -56l-3 -15h121l-20 -112h-121l-70 -398h-130z" />
    <glyph glyph-name="f_i.liga" unicode="fi" horiz-adv-x="641" 
d="M573 566q-35 0 -60 24.5t-25 59.5t25 59.5t60 24.5t59.5 -24.5t24.5 -59.5t-24.5 -59.5t-59.5 -24.5zM144 398h-90l19 112h91l5 28q14 90 71.5 138t147.5 48q32 0 56 -6l-22 -126q-7 3 -18 6t-26 3q-30 0 -52 -19t-28 -52l-3 -20h320l-88 -510h-131l69 398h-190l-70 -398
h-131z" />
    <glyph glyph-name="f_j.liga" unicode="fj" horiz-adv-x="643" 
d="M574 561q-35 0 -59.5 24.5t-24.5 59.5t24.5 59.5t59.5 24.5t59.5 -24.5t24.5 -59.5t-24.5 -59.5t-59.5 -24.5zM330 -226q-41 0 -72 9l22 122q20 -11 51 -11q25 0 38 14t18 42l78 448h-190l-70 -398h-131l70 398h-90l19 112h91l5 28q14 90 71.5 138t147.5 48q32 0 56 -6
l-22 -126q-7 3 -18 6t-26 3q-30 0 -52 -19t-28 -52l-3 -20h320l-98 -564q-17 -99 -62.5 -135.5t-124.5 -36.5z" />
    <glyph glyph-name="f_k.liga" unicode="fk" horiz-adv-x="936" 
d="M144 398h-90l19 112h91l3 16q15 98 72 146t162 48h253l-69 -391h7l211 181h164l-1 -8l-231 -194l150 -300l-2 -8h-148l-105 222l-75 -63l-28 -159h-131l106 600h-121q-34 0 -55.5 -19t-27.5 -56l-3 -15h121l-20 -112h-121l-70 -398h-130z" />
    <glyph glyph-name="f_l.liga" unicode="fl" horiz-adv-x="636" 
d="M502 600h-121q-34 0 -55.5 -19t-27.5 -56l-3 -15h121l-20 -112h-121l-70 -398h-130l69 398h-90l19 112h91l3 16q16 98 72.5 146t161.5 48h253l-127 -720h-131z" />
    <glyph glyph-name="f_t.liga" unicode="ft" horiz-adv-x="742" 
d="M567 -8q-66 0 -105 35.5t-39 103.5q0 19 5 52l38 215h-191l-70 -398h-131l70 398h-90l19 112h91l5 28q14 90 71.5 138t147.5 48q32 0 56 -6l-22 -126q-7 3 -18 6t-26 3q-30 0 -52 -19t-28 -52l-3 -20h190l26 144h131l-26 -144h125l-20 -112h-125l-36 -209q-3 -16 -3 -24
q0 -23 14 -36.5t37 -13.5q21 0 36.5 5.5t34.5 16.5l-22 -128q-42 -17 -90 -17z" />
    <glyph glyph-name="r_f.liga" unicode="rf" horiz-adv-x="829" 
d="M110 510h122l-12 -68h8q28 39 69 60.5t95 21.5q25 0 47 -6l-23 -128q-20 10 -57 10q-63 0 -107.5 -39.5t-55.5 -104.5l-46 -256h-130zM571 398h-90l19 112h92l4 28q13 90 71.5 138t151.5 48q24 0 46 -4t33 -10l-23 -125q-30 16 -63 16t-57 -19t-29 -52l-3 -20h124
l-20 -112h-125l-70 -398h-131z" />
    <glyph glyph-name="r_f_f.liga" unicode="rff" horiz-adv-x="1146" 
d="M110 510h122l-12 -68h8q28 39 69 60.5t95 21.5q25 0 47 -6l-23 -128q-20 10 -57 10q-63 0 -107.5 -39.5t-55.5 -104.5l-46 -256h-130zM555 398h-90l19 112h91l5 28q14 90 71.5 138t147.5 48q32 0 56 -6l-22 -126q-7 3 -18 6t-26 3q-30 0 -52 -19t-28 -52l-3 -20h191l5 28
q14 91 72 138.5t150 47.5q24 0 46 -4t33 -10l-22 -125q-30 16 -64 16q-33 0 -56.5 -19t-29.5 -52l-3 -20h124l-20 -112h-124l-71 -398h-130l70 398h-191l-70 -398h-131z" />
    <glyph glyph-name="r_t.liga" unicode="rt" horiz-adv-x="850" 
d="M674 -8q-66 0 -104.5 35.5t-38.5 103.5q0 19 5 52l37 215h-88l20 112h89l25 144h131l-25 -144h124l-20 -112h-125l-37 -209q-2 -11 -2 -24q0 -23 14 -36.5t37 -13.5q20 0 35.5 5.5t35.5 16.5l-22 -128q-42 -17 -91 -17zM110 510h122l-12 -68h8q28 39 69 60.5t95 21.5
q25 0 47 -6l-23 -128q-20 10 -57 10q-63 0 -107.5 -39.5t-55.5 -104.5l-46 -256h-130z" />
    <glyph glyph-name="t_f.liga" unicode="tf" horiz-adv-x="736" 
d="M247 -8q-69 0 -108 35.5t-39 103.5q0 19 5 52l37 215h-88l19 112h89l26 144h131l-26 -144h193l5 28q14 91 72 138.5t151 47.5q24 0 46 -4t33 -10l-23 -125q-30 16 -63 16t-56.5 -19t-29.5 -52l-4 -20h124l-19 -112h-125l-70 -398h-131l70 398h-193l-37 -209
q-2 -22 -2 -24q0 -23 13.5 -36.5t37.5 -13.5q26 0 56 16l-23 -126q-32 -13 -71 -13z" />
    <glyph glyph-name="t_t.liga" unicode="tt" horiz-adv-x="753" 
d="M247 -8q-69 0 -108 35.5t-39 103.5q0 19 5 52l37 215h-88l19 112h89l26 144h131l-26 -144h188l26 144h130l-25 -144h124l-19 -112h-125l-37 -209q-2 -11 -2 -24q0 -23 13.5 -36.5t36.5 -13.5q30 0 56 18l9 -122q-36 -19 -102 -19q-69 0 -108 35.5t-39 103.5q0 27 5 52
l37 215h-188l-37 -209q-2 -22 -2 -24q0 -23 13.5 -36.5t37.5 -13.5q26 0 56 16l-23 -126q-32 -13 -71 -13z" />
    <glyph glyph-name="G_o_o_g_l_e_l_o_g_o_l_i_g_a_t_u" unicode="Googlelogoligature" horiz-adv-x="3284" 
d="M460 -16q-111 0 -207 55.5t-152.5 149.5t-56.5 205t56.5 205t152.5 149.5t207 55.5q163 0 281 -113l-79 -79q-85 80 -202 80q-81 0 -148.5 -40t-106.5 -108.5t-39 -149.5t39 -149.5t106.5 -108.5t148.5 -40q72 0 121.5 23t85.5 59q49 49 61 141h-268v112h377q6 -30 6 -70
q0 -71 -23 -141t-74 -121q-110 -115 -286 -115zM2625 0v776h116v-776h-116zM1148 -16q-72 0 -133 34.5t-96.5 95t-35.5 134.5q0 75 35.5 135.5t96.5 94.5t133 34t133 -34t96.5 -94.5t35.5 -135.5q0 -74 -35.5 -134.5t-96.5 -95t-133 -34.5zM1726 -16q-72 0 -133 34.5
t-96.5 95t-35.5 134.5q0 75 35.5 135.5t96.5 94.5t133 34t133 -34t96.5 -94.5t35.5 -135.5q0 -74 -35.5 -134.5t-96.5 -95t-133 -34.5zM2294 -253q-88 0 -148 47t-86 109l101 42q16 -38 50 -66t83 -28q66 0 103.5 40t37.5 115v38h-4q-21 -26 -57.5 -43t-81.5 -17
q-66 0 -124 35t-93.5 95.5t-35.5 132.5q0 73 35.5 133.5t94 96t123.5 35.5q45 0 81.5 -17t57.5 -42h4v43h110v-474q0 -138 -70.5 -206.5t-180.5 -68.5zM3059 -16q-74 0 -134 35t-94 95.5t-34 133.5q0 77 33.5 137t90.5 93.5t125 33.5q91 0 147 -53t79 -115l12 -30l-353 -146
q41 -80 128 -80q80 0 130 73l90 -60q-30 -45 -85 -81t-135 -36zM3148 354q-10 25 -37 40.5t-61 15.5q-31 0 -64 -18t-54 -53t-20 -83zM1148 88q40 0 74 20.5t54.5 57t20.5 82.5t-20.5 82.5t-54.5 57t-74 20.5t-74 -20.5t-54.5 -57t-20.5 -82.5t20.5 -82.5t54.5 -57t74 -20.5
zM1726 88q40 0 74 20.5t54.5 57t20.5 82.5t-20.5 82.5t-54.5 57t-74 20.5t-74 -20.5t-54.5 -57t-20.5 -82.5t20.5 -82.5t54.5 -57t74 -20.5zM2302 88q39 0 71.5 20.5t51 57t18.5 81.5q0 46 -18.5 82.5t-51 57.5t-71.5 21q-40 0 -73.5 -21t-53.5 -58t-20 -82t20 -81.5
t53.5 -57t73.5 -20.5z" />
    <glyph glyph-name=".notdef" horiz-adv-x="220" 
 />
    <glyph glyph-name=".null" 
 />
    <glyph glyph-name="nonmarkingreturn" horiz-adv-x="250" 
 />
    <glyph glyph-name="uni0002" 
 />
    <glyph glyph-name="space" unicode=" " horiz-adv-x="220" 
 />
    <glyph glyph-name="exclam" unicode="!" horiz-adv-x="286" 
d="M120 510l36 206h134l-36 -206l-59 -264h-110zM112 -6q-36 0 -61.5 25.5t-25.5 61.5t25.5 61t61.5 25t61 -25t25 -61t-25 -61.5t-61 -25.5z" />
    <glyph glyph-name="quotedbl" unicode="&#x22;" horiz-adv-x="396" 
d="M134 716h119l-40 -226h-119zM306 716h119l-40 -226h-119z" />
    <glyph glyph-name="numbersign" unicode="#" horiz-adv-x="657" 
d="M151 192h-115l19 102h114l18 105h-116l18 102h116l32 183h111l-33 -183h112l33 183h111l-33 -183h116l-19 -102h-115l-18 -105h118l-19 -102h-116l-34 -192h-111l34 192h-112l-34 -192h-110zM393 292l19 109h-116l-19 -109h116z" />
    <glyph glyph-name="dollar" unicode="$" horiz-adv-x="559" 
d="M181 -11q-69 14 -119.5 64.5t-62.5 126.5l117 47q7 -40 29.5 -70.5t57.5 -42.5l33 190q-154 67 -154 195q0 54 28 97t78.5 70t117.5 32l15 86h89l-16 -90q62 -14 99.5 -53t52.5 -88l-118 -45q-9 24 -22 40t-33 24l-32 -180q80 -36 119 -80.5t39 -109.5q0 -93 -63 -149.5
t-166 -65.5l-15 -87h-89zM285 579q-36 -6 -57.5 -24.5t-21.5 -50.5q0 -22 12.5 -39.5t40.5 -33.5zM292 109q34 8 54.5 29t20.5 55q0 25 -11.5 41.5t-36.5 31.5z" />
    <glyph glyph-name="percent" unicode="%" horiz-adv-x="858" 
d="M129 39l561 662l67 -58l-561 -662zM245 358q-71 0 -116 42.5t-45 107.5q0 51 25.5 95t71.5 70.5t105 26.5q68 0 112 -42.5t44 -108.5q0 -53 -26 -96.5t-71.5 -69t-99.5 -25.5zM254 456q34 0 56.5 24.5t22.5 59.5q0 27 -16.5 44.5t-41.5 17.5q-36 0 -59 -23.5t-23 -59.5
q0 -28 17.5 -45.5t43.5 -17.5zM606 -16q-72 0 -117 42.5t-45 107.5q0 51 26 95t72 70.5t105 26.5q68 0 112 -42.5t44 -108.5q0 -53 -26.5 -96.5t-71.5 -69t-99 -25.5zM614 82q34 0 57 24.5t23 59.5q0 27 -17 44.5t-42 17.5q-36 0 -59 -23.5t-23 -59.5q0 -28 17.5 -45.5
t43.5 -17.5z" />
    <glyph glyph-name="ampersand" unicode="&#x26;" horiz-adv-x="663" 
d="M265 -16q-62 0 -113.5 27.5t-82 77.5t-30.5 115q0 78 39 139t114 102q-25 52 -25 94q0 52 25 96.5t72 70.5t109 26q69 0 111 -33.5t61 -89.5l-117 -51q-6 25 -24.5 42t-46.5 17t-47.5 -18.5t-19.5 -45.5q0 -16 5.5 -30t16.5 -32l162 -262l79 106l82 -62l-104 -135l55 -89
l-107 -65l-36 57q-37 -30 -80 -43.5t-98 -13.5zM290 102q53 0 95 31l-137 219q-81 -49 -81 -129q0 -54 36 -87.5t87 -33.5z" />
    <glyph glyph-name="quotesingle" unicode="'" horiz-adv-x="224" 
d="M134 716h119l-40 -226h-119z" />
    <glyph glyph-name="parenleft" unicode="(" horiz-adv-x="359" 
d="M181 -136q-50 74 -82.5 171.5t-32.5 209.5q0 153 69 290t197 245l83 -74q-108 -108 -163 -218t-55 -240q0 -95 20.5 -169.5t60.5 -145.5z" />
    <glyph glyph-name="parenright" unicode=")" horiz-adv-x="359" 
d="M-31 -62q108 108 163 218t55 240q0 95 -20.5 169.5t-60.5 145.5l97 69q50 -74 82.5 -171t32.5 -210q0 -153 -69 -290t-197 -245z" />
    <glyph glyph-name="asterisk" unicode="*" horiz-adv-x="464" 
d="M100 406l90 99l-2 9l-94 36l36 88l101 -39l9 3l20 114h95l-20 -114l7 -3l104 35l27 -86l-117 -43l-5 -9l57 -97l-86 -52l-55 100h-9l-87 -100z" />
    <glyph glyph-name="plus" unicode="+" horiz-adv-x="583" 
d="M226 213h-170l20 116h170l30 170h116l-30 -170h171l-21 -116h-170l-30 -170h-116z" />
    <glyph glyph-name="comma" unicode="," horiz-adv-x="271" 
d="M62 4q-42 27 -42 77q0 36 25.5 61t60.5 25q36 0 61.5 -25t25.5 -61q0 -33 -33 -72l-118 -142l-56 45z" />
    <glyph glyph-name="hyphen" unicode="-" horiz-adv-x="451" 
d="M414 368l-20 -116h-339l20 116h339z" />
    <glyph glyph-name="period" unicode="." horiz-adv-x="269" 
d="M103 -6q-36 0 -61 25.5t-25 61.5t25 61t61 25t61.5 -25t25.5 -61t-25.5 -61.5t-61.5 -25.5z" />
    <glyph glyph-name="slash" unicode="/" horiz-adv-x="346" 
d="M298 716h129l-343 -716h-129z" />
    <glyph glyph-name="zero" unicode="0" horiz-adv-x="675" 
d="M302 -16q-72 0 -127.5 35t-86.5 103t-31 163q0 110 44 205t122.5 152.5t177.5 57.5q73 0 128.5 -35t86.5 -102.5t31 -163.5q0 -115 -45 -210t-123.5 -150t-176.5 -55zM314 107q56 0 101.5 37.5t72 102.5t26.5 143q0 89 -33.5 138t-92.5 49q-56 0 -101.5 -40.5t-71 -106
t-25.5 -136.5q0 -88 34 -137.5t90 -49.5z" />
    <glyph glyph-name="one" unicode="1" horiz-adv-x="434" 
d="M259 504l-105 -66l-57 101l223 145h102l-120 -684h-131z" />
    <glyph glyph-name="two" unicode="2" horiz-adv-x="556" 
d="M31 119q244 206 293 251q47 41 66 66t19 61q0 35 -25 57.5t-64 22.5q-41 0 -69 -24.5t-41 -61.5l-117 51q28 69 87.5 113.5t154.5 44.5q60 0 108 -23t75 -64.5t27 -94.5q0 -67 -35.5 -119.5t-109.5 -115.5l-191 -162l2 -6h273l-20 -115h-453z" />
    <glyph glyph-name="three" unicode="3" horiz-adv-x="571" 
d="M250 -16q-87 0 -149.5 47.5t-76.5 132.5l128 48q6 -48 35.5 -74.5t76.5 -26.5q51 0 85 28t34 74q0 41 -28 62.5t-80 21.5h-59l21 119h54q53 0 87 24t34 69q0 31 -23.5 51t-59.5 20q-40 0 -66 -23t-40 -57l-114 52q26 65 85 106.5t152 41.5q58 0 104 -22.5t72 -61
t26 -85.5q0 -60 -32 -102t-84 -63v-8q37 -20 60.5 -56t23.5 -84q0 -70 -34.5 -123t-95 -82t-136.5 -29z" />
    <glyph glyph-name="four" unicode="4" horiz-adv-x="625" 
d="M338 126h-315l19 109l378 449h147l-77 -436h86l-22 -122h-85l-23 -126h-131zM359 248l42 241h-8l-200 -241h166z" />
    <glyph glyph-name="five" unicode="5" horiz-adv-x="586" 
d="M256 -16q-54 0 -102.5 21t-82 63t-41.5 101l125 46q6 -50 35 -80t75 -30q55 0 93.5 34.5t38.5 91.5q0 43 -26.5 71.5t-70.5 28.5q-30 0 -56.5 -12.5t-46.5 -33.5l-119 51l101 348h386l-20 -115h-277l-54 -160l7 -3q51 42 115 42q54 0 98 -24.5t69 -70.5t25 -108
q0 -72 -33.5 -131.5t-95.5 -94.5t-143 -35z" />
    <glyph glyph-name="six" unicode="6" horiz-adv-x="580" 
d="M258 -16q-64 0 -114.5 29t-78.5 78t-28 107q0 50 16 92t42.5 78.5t73.5 89.5l219 246l89 -70l-173 -197l5 -5q26 8 48 8q44 0 84.5 -25.5t65 -71.5t24.5 -104q0 -71 -34 -129.5t-96 -92t-143 -33.5zM271 104q56 0 93 35.5t37 90.5q0 44 -30 72.5t-77 28.5
q-55 0 -91.5 -37t-36.5 -92q0 -43 30.5 -70.5t74.5 -27.5z" />
    <glyph glyph-name="seven" unicode="7" horiz-adv-x="557" 
d="M44 54l368 501l-2 6h-311l24 123h463l-22 -129l-423 -571z" />
    <glyph glyph-name="eight" unicode="8" horiz-adv-x="588" 
d="M257 -16q-68 0 -119.5 26t-79 69t-27.5 94q0 62 37.5 111.5t101.5 74.5l1 8q-27 20 -43.5 50t-16.5 69q0 61 34.5 109.5t93 76.5t127.5 28q58 0 103 -22t70.5 -61t25.5 -87q0 -57 -29.5 -99.5t-79.5 -67.5l-1 -8q35 -21 56.5 -57t21.5 -85q0 -68 -36.5 -120t-99 -80.5
t-140.5 -28.5zM329 414q48 0 79 26t31 66q0 34 -24.5 55.5t-64.5 21.5q-49 0 -81 -25t-32 -69q0 -34 26 -54.5t66 -20.5zM267 105q56 0 95 30t39 82q0 36 -28 59t-73 23q-53 0 -93.5 -30.5t-40.5 -79.5q0 -39 28 -61.5t73 -22.5z" />
    <glyph glyph-name="nine" unicode="9" horiz-adv-x="579" 
d="M134 50l172 197l-4 5q-26 -8 -44 -8q-43 0 -84 25.5t-67.5 71.5t-26.5 104q0 71 34 129.5t96 92t143 33.5q64 0 114.5 -28.5t78.5 -78t28 -111.5q0 -48 -16 -89.5t-42.5 -77.5t-73.5 -89l-219 -246zM317 353q55 0 91.5 36.5t36.5 89.5q0 44 -30.5 72.5t-74.5 28.5
q-56 0 -93 -35.5t-37 -90.5q0 -44 30 -72.5t77 -28.5z" />
    <glyph glyph-name="colon" unicode=":" horiz-adv-x="286" 
d="M175 349q-36 0 -61.5 25.5t-25.5 61.5t25.5 61t61.5 25t61.5 -25t25.5 -61t-25.5 -61.5t-61.5 -25.5zM113 -6q-36 0 -61.5 25.5t-25.5 61.5t25.5 61t61.5 25t61 -25t25 -61t-25 -61.5t-61 -25.5z" />
    <glyph glyph-name="semicolon" unicode=";" horiz-adv-x="288" 
d="M176 349q-36 0 -61.5 25.5t-25.5 61.5t25.5 61t61.5 25t61 -25t25 -61t-25 -61.5t-61 -25.5zM0 -82l75 92q-19 14 -30.5 31.5t-11.5 45.5q0 36 26 61.5t61 25.5q36 0 61.5 -25.5t25.5 -61.5q0 -18 -8 -34.5t-26 -37.5l-118 -141z" />
    <glyph glyph-name="less" unicode="&#x3c;" horiz-adv-x="531" 
d="M53 222l18 104l449 188l-23 -133l-277 -109l-2 -8l239 -110l-22 -126z" />
    <glyph glyph-name="equal" unicode="=" horiz-adv-x="595" 
d="M102 477h469l-20 -116h-469zM67 277h468l-20 -116h-469z" />
    <glyph glyph-name="greater" unicode="&#x3e;" horiz-adv-x="531" 
d="M44 161l276 109l2 8l-238 110l22 126l381 -194l-18 -104l-449 -188z" />
    <glyph glyph-name="question" unicode="?" horiz-adv-x="531" 
d="M201 279q10 52 33.5 85.5t87.5 77.5q34 24 54 47t20 51q0 31 -22 50t-58 19q-40 0 -67.5 -22.5t-40.5 -59.5l-107 48q22 66 83.5 111.5t146.5 45.5q57 0 102 -22t70 -61t25 -88q0 -55 -30.5 -97t-89.5 -89q-41 -33 -56 -54.5t-22 -57.5l-3 -17h-132zM230 -6
q-36 0 -61.5 25.5t-25.5 61.5t25.5 61t61.5 25t61.5 -25t25.5 -61t-25.5 -61.5t-61.5 -25.5z" />
    <glyph glyph-name="at" unicode="@" horiz-adv-x="897" 
d="M406 -82q-103 0 -182.5 47t-122.5 125.5t-43 171.5q0 126 59 223t162 151t232 54q94 0 173.5 -40t127.5 -114t48 -172q0 -72 -24 -133.5t-68 -98t-103 -36.5q-42 0 -70.5 19t-38.5 53q-24 -35 -61.5 -53.5t-80.5 -18.5q-47 0 -87 23t-64 64t-24 92q0 57 25.5 109.5
t75.5 86t119 33.5q38 0 65.5 -14t42.5 -38h8l7 38h98l-44 -246q-2 -12 -2 -18q0 -20 11 -31.5t30 -11.5q40 0 65 51.5t25 119.5q0 70 -32 125.5t-93.5 87.5t-144.5 32q-96 0 -172.5 -43t-120 -118.5t-43.5 -170.5q0 -73 34.5 -132t92.5 -92.5t125 -33.5q77 0 140 33l31 -87
q-78 -37 -176 -37zM433 193q49 0 81.5 34.5t32.5 88.5q0 41 -25 66t-64 25q-52 0 -84.5 -36.5t-32.5 -87.5q0 -42 27 -66t65 -24z" />
    <glyph glyph-name="A" unicode="A" horiz-adv-x="722" 
d="M360 716h158l143 -716h-144l-31 171h-273l-90 -171h-153zM463 295l-33 180l-11 86h-8l-40 -86l-94 -180h186z" />
    <glyph glyph-name="B" unicode="B" horiz-adv-x="646" 
d="M163 716h254q67 0 115.5 -24t73.5 -64t25 -88q0 -66 -36 -107t-90 -58l-1 -8q42 -19 68.5 -56t26.5 -89q0 -66 -36 -116.5t-98 -78t-139 -27.5h-290zM381 424q52 0 83.5 24t31.5 68q0 35 -23 57t-61 22h-137l-29 -171h135zM343 123q51 0 85.5 26.5t34.5 72.5
q0 39 -25 62.5t-71 23.5h-142l-33 -185h151z" />
    <glyph glyph-name="C" unicode="C" horiz-adv-x="750" 
d="M384 -16q-93 0 -167.5 40.5t-117 115.5t-42.5 176q0 112 55.5 207.5t154 152t221.5 56.5q87 0 153.5 -32.5t105.5 -90.5l-107 -88q-31 41 -71.5 62t-98.5 21q-75 0 -138.5 -37.5t-101.5 -102t-38 -141.5q0 -63 26 -111t72.5 -74t105.5 -26q62 0 111 25t98 74l86 -97
q-68 -69 -139.5 -99.5t-167.5 -30.5z" />
    <glyph glyph-name="D" unicode="D" horiz-adv-x="738" 
d="M163 716h227q104 0 177.5 -40t111 -110.5t37.5 -163.5q0 -109 -52 -201t-149.5 -146.5t-225.5 -54.5h-253zM295 128q84 0 149 33.5t100.5 92.5t35.5 133q0 98 -51 149.5t-153 51.5h-101l-82 -460h102z" />
    <glyph glyph-name="E" unicode="E" horiz-adv-x="593" 
d="M163 716h454l-23 -128h-319l-30 -166h288l-23 -128h-288l-29 -166h319l-22 -128h-454z" />
    <glyph glyph-name="F" unicode="F" horiz-adv-x="573" 
d="M163 716h454l-23 -128h-319l-31 -174h287l-22 -128h-288l-51 -286h-134z" />
    <glyph glyph-name="G" unicode="G" horiz-adv-x="826" 
d="M404 -16q-101 0 -179.5 43t-122.5 120.5t-44 176.5q0 108 54.5 202t153.5 150t225 56q88 0 157 -31t111 -86l-107 -91q-26 36 -71.5 58t-103.5 22q-78 0 -142.5 -34.5t-102.5 -97t-38 -142.5q0 -66 28.5 -115.5t77.5 -76t111 -26.5q101 0 167 57q46 40 69 109h-222
l21 115h350q1 -8 1 -21q0 -88 -32.5 -161.5t-89.5 -126.5q-54 -49 -123 -74.5t-148 -25.5z" />
    <glyph glyph-name="H" unicode="H" horiz-adv-x="734" 
d="M163 716h134l-51 -286h302l51 286h135l-127 -716h-135l54 302h-302l-54 -302h-134z" />
    <glyph glyph-name="I" unicode="I" horiz-adv-x="298" 
d="M163 716h134l-127 -716h-134z" />
    <glyph glyph-name="J" unicode="J" horiz-adv-x="569" 
d="M232 -16q-55 0 -102 22t-78 61.5t-37 89.5l129 50q5 -46 33 -70.5t70 -24.5q45 0 75.5 30t40.5 84l86 490h135l-87 -489q-22 -124 -92 -183.5t-173 -59.5z" />
    <glyph glyph-name="K" unicode="K" horiz-adv-x="683" 
d="M163 716h134l-53 -303h8l311 303h168l-2 -8l-312 -298l212 -402l-1 -8h-158l-161 307l-101 -97l-38 -210h-134z" />
    <glyph glyph-name="L" unicode="L" horiz-adv-x="550" 
d="M163 716h134l-104 -588h303l-22 -128h-438z" />
    <glyph glyph-name="M" unicode="M" horiz-adv-x="900" 
d="M163 716h170l102 -503h8l278 503h178l-127 -716h-133l63 353l29 119h-8l-263 -472h-107l-100 472h-8l-13 -119l-63 -353h-133z" />
    <glyph glyph-name="N" unicode="N" horiz-adv-x="742" 
d="M163 716h149l211 -480h8l16 138l61 342h133l-127 -716h-133l-222 507h-8l-16 -138l-66 -369h-133z" />
    <glyph glyph-name="O" unicode="O" horiz-adv-x="840" 
d="M396 -16q-96 0 -173.5 41.5t-121.5 117.5t-44 174q0 112 53.5 207t150.5 151.5t220 56.5q98 0 175 -43t120 -119t43 -171q0 -112 -53.5 -207t-150 -151.5t-219.5 -56.5zM407 112q77 0 140 38t99.5 103.5t36.5 143.5q0 60 -28 107t-77 73.5t-109 26.5q-77 0 -140 -38
t-99.5 -102.5t-36.5 -141.5q0 -61 28 -109t77 -74.5t109 -26.5z" />
    <glyph glyph-name="P" unicode="P" horiz-adv-x="614" 
d="M163 716h240q63 0 113 -26t78 -72.5t28 -107.5q0 -77 -35.5 -133t-98.5 -85t-144 -29h-127l-47 -263h-134zM361 391q57 0 91.5 28t34.5 81q0 40 -24 64t-67 24h-121l-35 -197h121z" />
    <glyph glyph-name="Q" unicode="Q" horiz-adv-x="840" 
d="M538 7q-71 -23 -142 -23q-96 0 -173.5 41.5t-121.5 117.5t-44 174q0 112 53.5 207t150.5 151.5t220 56.5q98 0 175 -43t120 -119t43 -171q0 -99 -42.5 -185.5t-119.5 -144.5l38 -76l-119 -61zM407 112q38 0 74 12l-58 119l119 62l56 -114q40 39 62.5 92.5t22.5 113.5
t-28 107t-77 73.5t-109 26.5q-77 0 -140 -38t-99.5 -102.5t-36.5 -141.5q0 -61 28 -109t77 -74.5t109 -26.5z" />
    <glyph glyph-name="R" unicode="R" horiz-adv-x="634" 
d="M163 716h235q67 0 119 -26.5t80.5 -72t28.5 -100.5q0 -59 -25 -107.5t-68 -80.5t-95 -44l-3 -7l140 -270l-1 -8h-147l-138 269h-71l-48 -269h-134zM365 393q56 0 90.5 28.5t34.5 82.5q0 39 -26.5 63t-70.5 24h-118l-35 -198h125z" />
    <glyph glyph-name="S" unicode="S" horiz-adv-x="590" 
d="M262 -16q-92 0 -158 52.5t-83 150.5l129 52q5 -56 38 -91.5t89 -35.5q52 0 87.5 26t35.5 69q0 37 -26 62t-89 50l-35 14q-65 25 -106 71.5t-41 118.5q0 59 33.5 107t91.5 75t129 27q68 0 115 -23.5t71.5 -58.5t31.5 -71l-124 -47q-8 35 -34.5 55.5t-72.5 20.5
q-44 0 -75 -21.5t-31 -58.5q0 -32 23.5 -54t76.5 -41l41 -15q76 -29 116.5 -76t40.5 -120q0 -69 -34.5 -123t-96.5 -84.5t-143 -30.5z" />
    <glyph glyph-name="T" unicode="T" horiz-adv-x="588" 
d="M285 588h-200l23 128h534l-22 -128h-200l-105 -588h-134z" />
    <glyph glyph-name="U" unicode="U" horiz-adv-x="694" 
d="M308 -16q-70 0 -124.5 29.5t-84.5 83t-30 123.5q0 36 9 84l72 412h135l-77 -435q-4 -25 -4 -47q0 -57 30.5 -89.5t91.5 -32.5q67 0 111 44.5t58 120.5l77 439h135l-79 -447q-25 -142 -107.5 -213.5t-212.5 -71.5z" />
    <glyph glyph-name="V" unicode="V" horiz-adv-x="684" 
d="M96 716h144l71 -432l10 -91h8l44 91l229 432h150l-387 -716h-142z" />
    <glyph glyph-name="W" unicode="W" horiz-adv-x="984" 
d="M99 716h150l26 -402l-1 -75h8l29 75l195 402h135l51 -402l3 -73h8l26 73l168 402h151l-308 -716h-146l-49 432l-2 77h-8l-30 -77l-201 -432h-139z" />
    <glyph glyph-name="X" unicode="X" horiz-adv-x="694" 
d="M278 377l-171 339h170l104 -231h8l182 231h174l-292 -351l184 -365h-165l-122 251h-8l-201 -251h-174z" />
    <glyph glyph-name="Y" unicode="Y" horiz-adv-x="642" 
d="M269 333l-173 383h156l102 -237h8l180 237h167l-305 -383l-59 -333h-135z" />
    <glyph glyph-name="Z" unicode="Z" horiz-adv-x="609" 
d="M18 136l436 452h-341l23 128h504l-24 -136l-433 -452h357l-23 -128h-523z" />
    <glyph glyph-name="bracketleft" unicode="[" horiz-adv-x="367" 
d="M176 792h248l-19 -108h-120l-122 -700h120l-20 -108h-247z" />
    <glyph glyph-name="backslash" unicode="\" horiz-adv-x="340" 
d="M81 716h123l91 -716h-123z" />
    <glyph glyph-name="bracketright" unicode="]" horiz-adv-x="366" 
d="M-10 -16h119l123 700h-120l19 108h248l-161 -916h-248z" />
    <glyph glyph-name="asciicircum" unicode="^" horiz-adv-x="515" 
d="M324 592h-8l-134 -182h-142l245 306h109l137 -306h-133z" />
    <glyph glyph-name="underscore" unicode="_" horiz-adv-x="499" 
d="M436 -100l-21 -116h-497l20 116h498z" />
    <glyph glyph-name="grave" unicode="`" horiz-adv-x="443" 
d="M161 724h148l19 -136h-102z" />
    <glyph glyph-name="a" unicode="a" horiz-adv-x="555" 
d="M181 -16q-46 0 -83.5 21.5t-59.5 58t-22 79.5q0 86 58.5 135t168.5 49q73 0 135 -25l5 22l2 22q0 32 -29.5 53t-72.5 21q-38 0 -69.5 -14.5t-53.5 -41.5l-87 64q39 48 98 73t128 25q99 0 156.5 -48t57.5 -126q0 -20 -5 -52l-54 -300h-129l9 52h-8q-51 -68 -145 -68z
M226 86q54 0 91 34.5t45 87.5q-28 12 -53 18t-60 6q-49 0 -74.5 -20.5t-25.5 -58.5q0 -31 21.5 -49t55.5 -18z" />
    <glyph glyph-name="b" unicode="b" horiz-adv-x="630" 
d="M323 -16q-56 0 -98 22t-64 55h-8l-11 -61h-122l126 716h131l-35 -196l-21 -72h8q20 31 61 54.5t95 23.5q59 0 107.5 -30t76.5 -84.5t28 -123.5q0 -87 -36.5 -156.5t-99 -108.5t-138.5 -39zM304 105q44 0 81.5 21.5t59 59.5t21.5 87q0 36 -17 66t-46 47.5t-63 17.5
q-47 0 -82.5 -23.5t-55 -63t-19.5 -86.5q0 -36 17 -65t44.5 -45t59.5 -16z" />
    <glyph glyph-name="c" unicode="c" horiz-adv-x="572" 
d="M274 -16q-70 0 -125.5 31.5t-86.5 86.5t-31 122q0 79 37.5 148.5t107.5 111.5t163 42q82 0 139.5 -39.5t78.5 -104.5l-122 -48q-13 33 -43.5 51.5t-70.5 18.5q-44 0 -80.5 -21.5t-57 -59.5t-20.5 -85q0 -59 35 -96t87 -37q46 0 79 19.5t51 54.5l111 -54
q-38 -69 -104 -105t-148 -36z" />
    <glyph glyph-name="d" unicode="d" horiz-adv-x="630" 
d="M237 -16q-59 0 -106.5 30.5t-74 84.5t-26.5 120q0 86 36.5 156t102 110.5t149.5 40.5q53 0 95.5 -23.5t57.5 -54.5h8l3 72l35 196h130l-126 -716h-123l11 61h-8q-24 -35 -65 -56t-99 -21zM286 105q42 0 78.5 21t59 61t22.5 94t-35.5 88.5t-88.5 34.5q-47 0 -83.5 -22.5
t-57 -62t-20.5 -88.5q0 -56 36 -91t89 -35z" />
    <glyph glyph-name="e" unicode="e" horiz-adv-x="588" 
d="M271 -16q-71 0 -125 32.5t-83.5 88t-29.5 121.5q0 80 38 148.5t106.5 110t154.5 41.5q69 0 120 -30t78 -79t27 -106q0 -45 -13 -87h-383l-1 -11q1 -53 36.5 -83t85.5 -30q55 0 89 18.5t57 57.5l99 -52q-44 -70 -104 -105t-152 -35zM436 317v4q0 40 -32 69t-84 29
q-51 0 -89.5 -30t-53.5 -72h259z" />
    <glyph glyph-name="f" unicode="f" horiz-adv-x="414" 
d="M144 398h-90l19 112h92l4 28q13 90 71.5 138t151.5 48q24 0 46 -4t33 -10l-23 -125q-30 16 -63 16t-57 -19t-29 -52l-3 -20h124l-20 -112h-125l-70 -398h-131z" />
    <glyph glyph-name="g" unicode="g" horiz-adv-x="624" 
d="M222 -232q-92 0 -151 42.5t-73 105.5l128 48q10 -38 38.5 -59t71.5 -21q136 0 160 139l8 47h-8q-25 -36 -62 -53t-92 -17q-59 0 -106 29t-74 80t-27 115q0 81 34 150t98 110.5t148 41.5q51 0 90.5 -18t58.5 -52h8l10 54h125l-86 -486q-23 -128 -95.5 -192t-203.5 -64z
M281 119q44 0 80.5 21.5t58 59.5t21.5 84q0 56 -34 89.5t-83 33.5q-44 0 -80 -21.5t-57 -60.5t-21 -88q0 -56 33 -87t82 -31z" />
    <glyph glyph-name="h" unicode="h" horiz-adv-x="600" 
d="M146 716h131l-33 -181l-23 -89h8q25 38 66 59t95 21q76 0 120 -44.5t44 -113.5q0 -33 -6 -65l-54 -303h-131l53 293q4 24 4 39q0 30 -22.5 51t-59.5 21q-57 0 -92.5 -38.5t-48.5 -111.5l-46 -254h-131z" />
    <glyph glyph-name="i" unicode="i" horiz-adv-x="276" 
d="M208 566q-35 0 -60 25t-25 60t25 59.5t60 24.5t59.5 -24.5t24.5 -59.5t-24.5 -60t-59.5 -25zM117 510h131l-89 -510h-131z" />
    <glyph glyph-name="j" unicode="j" horiz-adv-x="276" 
d="M208 566q-35 0 -60 25t-25 60t25 59.5t60 24.5t59.5 -24.5t24.5 -59.5t-24.5 -60t-59.5 -25zM-39 -226q-18 0 -38.5 2.5t-32.5 6.5l22 122q20 -11 50 -11q26 0 39 14t18 42l99 560h130l-99 -564q-18 -99 -64 -135.5t-124 -36.5z" />
    <glyph glyph-name="k" unicode="k" horiz-adv-x="561" 
d="M147 716h131l-67 -385h7l206 179h169l-2 -8l-231 -194l150 -300l-1 -8h-149l-105 222l-75 -63l-28 -159h-131z" />
    <glyph glyph-name="l" unicode="l" horiz-adv-x="260" 
d="M146 716h131l-126 -716h-131z" />
    <glyph glyph-name="m" unicode="m" horiz-adv-x="912" 
d="M232 510l-11 -64h8q29 40 67 60t92 20t89.5 -24.5t49.5 -65.5q28 41 73 65.5t109 24.5q74 0 116.5 -42t42.5 -109q0 -23 -6 -53l-57 -322h-130l53 304q3 18 3 32q0 32 -19 50t-54 18q-51 0 -87 -41.5t-49 -113.5l-44 -249h-131l54 304q3 15 3 32q0 32 -21 50t-56 18
q-50 0 -84.5 -41.5t-47.5 -113.5l-44 -249h-131l90 510h122z" />
    <glyph glyph-name="n" unicode="n" horiz-adv-x="600" 
d="M229 446q26 38 67.5 59t95.5 21q78 0 120 -44t42 -112q0 -34 -5 -62l-55 -308h-131l52 293q4 22 4 38q0 31 -22 52t-58 21q-58 0 -94 -38.5t-48 -105.5l-46 -260h-131l90 510h122l-11 -64h8z" />
    <glyph glyph-name="o" unicode="o" horiz-adv-x="609" 
d="M272 -16q-71 0 -125.5 31.5t-84.5 85.5t-30 121q0 85 38 154.5t107 109.5t159 40q71 0 125.5 -31.5t84.5 -85.5t30 -121q0 -85 -38 -154.5t-107 -109.5t-159 -40zM287 105q43 0 79 22t57 61t21 86q0 57 -33 93.5t-90 36.5q-43 0 -79 -22t-57 -60.5t-21 -85.5
q0 -58 33 -94.5t90 -36.5z" />
    <glyph glyph-name="p" unicode="p" horiz-adv-x="630" 
d="M109 510h123l-11 -62h8q24 36 64.5 57t99.5 21t106 -30.5t74 -84.5t27 -120q0 -86 -36.5 -156t-102 -110.5t-149.5 -40.5q-53 0 -95.5 23t-57.5 54h-8l-3 -72l-36 -205h-131zM308 105q47 0 83.5 22.5t56.5 62.5t20 89q0 56 -35.5 90.5t-88.5 34.5q-42 0 -79 -21
t-59 -60.5t-22 -93.5t35.5 -89t88.5 -35z" />
    <glyph glyph-name="q" unicode="q" horiz-adv-x="630" 
d="M387 -11l21 72h-8q-21 -32 -61 -54.5t-96 -22.5q-59 0 -107.5 30t-77 84.5t-28.5 122.5q0 87 37 156.5t100 109t139 39.5q56 0 98 -22t64 -56h8l10 62h123l-127 -726h-131zM289 105q47 0 82.5 23.5t54.5 63.5t19 87q0 55 -36 90t-86 35q-44 0 -80.5 -21t-58.5 -59
t-22 -87q0 -55 36.5 -93.5t90.5 -38.5z" />
    <glyph glyph-name="r" unicode="r" horiz-adv-x="427" 
d="M110 510h122l-11 -62h8q23 36 66 56.5t95 20.5q37 0 61 -11l-23 -134q-15 10 -36.5 16t-42.5 6q-59 0 -100.5 -42t-53.5 -106l-44 -254h-131z" />
    <glyph glyph-name="s" unicode="s" horiz-adv-x="498" 
d="M227 -16q-87 0 -145.5 39.5t-75.5 100.5l121 49q8 -36 38.5 -55t71.5 -19q34 0 57.5 14.5t23.5 39.5q0 44 -70 60l-50 12q-57 13 -97 50t-40 92q0 72 59.5 115.5t158.5 43.5q75 0 125.5 -30t73.5 -88l-120 -44q-9 27 -33.5 41.5t-55.5 14.5q-37 0 -57.5 -13.5
t-20.5 -32.5q0 -16 16.5 -29.5t41.5 -19.5l73 -18q60 -15 94.5 -54t34.5 -89q0 -54 -27.5 -94.5t-78 -63t-118.5 -22.5z" />
    <glyph glyph-name="t" unicode="t" horiz-adv-x="418" 
d="M242 -8q-66 0 -104.5 35.5t-38.5 103.5q0 19 5 52l37 215h-88l20 112h89l25 144h131l-25 -144h124l-20 -112h-125l-37 -209q-2 -11 -2 -24q0 -23 14 -36.5t37 -13.5q20 0 35.5 5.5t35.5 16.5l-22 -128q-42 -17 -91 -17z" />
    <glyph glyph-name="u" unicode="u" horiz-adv-x="600" 
d="M371 64q-26 -39 -67.5 -59.5t-95.5 -20.5q-78 0 -120 44t-42 112q0 32 5 61l55 309h131l-52 -293q-4 -16 -4 -38q0 -32 22 -53t58 -21q58 0 94 38.5t48 106.5l46 260h131l-90 -510h-122l11 64h-8z" />
    <glyph glyph-name="v" unicode="v" horiz-adv-x="578" 
d="M53 510h148l66 -332h8l189 332h151l-308 -510h-131z" />
    <glyph glyph-name="w" unicode="w" horiz-adv-x="834" 
d="M53 510h140l33 -331h7l160 331h138l46 -331h7l142 331h146l-248 -510h-144l-45 330h-7l-161 -330h-140z" />
    <glyph glyph-name="x" unicode="x" horiz-adv-x="536" 
d="M189 266l-130 244h154l69 -147h7l116 147h161l-220 -253l131 -257h-152l-70 152h-7l-120 -152h-161z" />
    <glyph glyph-name="y" unicode="y" horiz-adv-x="579" 
d="M180 29l-127 481h146l77 -317h7l185 317h148l-444 -726h-143z" />
    <glyph glyph-name="z" unicode="z" horiz-adv-x="505" 
d="M325 399h-254l19 111h419l-19 -107l-314 -292h266l-20 -111h-429l19 107z" />
    <glyph glyph-name="braceleft" unicode="{" horiz-adv-x="337" 
d="M204 -124q-69 0 -111.5 39t-42.5 104q0 16 3 40l27 154q1 7 1 17q0 49 -53 49l19 110q28 0 49 16.5t27 49.5l29 163q14 82 66.5 128t139.5 46h41l-19 -108h-16q-36 0 -58 -21t-29 -59l-26 -146q-9 -52 -30 -80.5t-61 -39.5l-2 -8q54 -16 54 -77q0 -22 -4 -43l-26 -146
q-2 -18 -2 -23q0 -28 16.5 -42.5t44.5 -14.5h16l-19 -108h-34z" />
    <glyph glyph-name="bar" unicode="|" horiz-adv-x="284" 
d="M176 792h120l-160 -912h-120z" />
    <glyph glyph-name="braceright" unicode="}" horiz-adv-x="337" 
d="M-15 -16h17q36 0 58 21t29 59l25 146q9 52 30.5 80.5t61.5 39.5l2 8q-55 16 -55 77q0 16 5 43l26 146q2 18 2 23q0 28 -16.5 42.5t-44.5 14.5h-17l19 108h35q68 0 111 -39t43 -104q0 -19 -4 -40l-26 -154q-2 -14 -2 -17q0 -24 14 -36.5t40 -12.5l-20 -110
q-27 0 -48 -16.5t-27 -49.5l-29 -163q-14 -81 -66.5 -127.5t-139.5 -46.5h-42z" />
    <glyph glyph-name="asciitilde" unicode="~" horiz-adv-x="565" 
d="M381 223q-32 0 -56.5 8.5t-56.5 25.5q-25 13 -41 19t-34 6q-22 0 -36.5 -12t-20.5 -31h-106q11 73 53.5 113.5t118.5 40.5q33 0 57 -8.5t57 -25.5q25 -13 40.5 -19t33.5 -6q22 0 36.5 12t20.5 31h107q-13 -73 -55 -113.5t-118 -40.5z" />
    <glyph glyph-name="uni00A0" unicode="&#xa0;" horiz-adv-x="220" 
 />
    <glyph glyph-name="exclamdown" unicode="&#xa1;" horiz-adv-x="286" 
d="M177 352q-36 0 -61.5 25.5t-25.5 61.5t25.5 61.5t61.5 25.5t61 -25.5t25 -61.5t-25 -61.5t-61 -25.5zM30 -10l63 279h109l-37 -279l-36 -206h-135z" />
    <glyph glyph-name="cent" unicode="&#xa2;" horiz-adv-x="553" 
d="M219 88q-74 18 -121 77.5t-47 142.5q0 75 32.5 138t91 103t134.5 49l15 86h90l-16 -87q59 -10 98.5 -45.5t58.5 -87.5l-114 -46q-6 23 -22.5 41.5t-40.5 25.5l-51 -289q57 8 97 74l95 -45q-39 -65 -89.5 -99.5t-121.5 -40.5l-15 -85h-90zM289 486q-55 -15 -86 -60.5
t-31 -103.5q0 -43 17.5 -74.5t49.5 -45.5z" />
    <glyph glyph-name="sterling" unicode="&#xa3;" horiz-adv-x="549" 
d="M17 106q45 18 78.5 54t38.5 81v1h-90l17 100h54q-3 8 -12.5 35.5t-14.5 54t-5 52.5q0 61 30 110t84.5 77.5t126.5 28.5q85 0 133 -42.5t62 -105.5l-123 -47q-13 79 -88 79q-43 0 -72 -30t-29 -75q0 -26 6.5 -50t19.5 -59l10 -28h135l-17 -100h-106q-10 -67 -73 -119l4 -7
h148q32 0 51 14.5t32 44.5l94 -44q-26 -66 -71 -98.5t-120 -32.5h-321z" />
    <glyph glyph-name="currency" unicode="&#xa4;" horiz-adv-x="609" 
d="M73 150l58 57q-34 55 -34 118q0 65 34 118l-58 58l63 64l59 -57q55 36 122 36t122 -36l59 57l63 -64l-57 -58q33 -52 33 -118q0 -65 -33 -118l57 -57l-63 -65l-59 57q-55 -36 -122 -36t-122 36l-59 -57zM317 209q47 0 79.5 33.5t32.5 82.5t-32.5 82.5t-79.5 33.5
t-79.5 -33.5t-32.5 -82.5t32.5 -82.5t79.5 -33.5z" />
    <glyph glyph-name="yen" unicode="&#xa5;" horiz-adv-x="639" 
d="M232 133h-165l20 116h166l11 63h-166l21 116h91l-119 256h157l80 -189l18 -67h8l40 67l142 189h163l-206 -256h88l-20 -116h-162l-11 -63h162l-21 -116h-162l-23 -133h-135z" />
    <glyph glyph-name="brokenbar" unicode="&#xa6;" horiz-adv-x="284" 
d="M170 756h120l-67 -380h-120zM88 292h120l-72 -412h-120z" />
    <glyph glyph-name="section" unicode="&#xa7;" horiz-adv-x="576" 
d="M224 -232q-64 0 -115 25.5t-81 70.5t-33 100l117 43q7 -54 38.5 -86.5t83.5 -32.5q45 0 76.5 23t31.5 62q0 38 -26 59.5t-89 43.5l-30 11q-60 21 -97.5 65t-37.5 99q0 51 28 93t76 69q-52 52 -52 119q0 58 32.5 103.5t88 71t121.5 25.5q87 0 137 -42.5t68 -109.5
l-128 -47q-7 34 -29.5 56.5t-64.5 22.5q-37 0 -64.5 -18.5t-27.5 -48.5t23 -50t79 -40l29 -10q150 -54 150 -178q0 -54 -26 -95.5t-68 -70.5q40 -45 40 -113q0 -59 -34 -110t-91.5 -80.5t-124.5 -29.5zM345 159q50 35 50 83q0 38 -25.5 63.5t-83.5 44.5l-26 9
q-31 -13 -51 -35t-20 -49q0 -31 24 -53.5t71 -39.5q38 -13 61 -23z" />
    <glyph glyph-name="dieresis" unicode="&#xa8;" horiz-adv-x="452" 
d="M182 587q-30 0 -51 21.5t-21 50.5q0 30 21 51t51 21t50.5 -21t20.5 -51t-20.5 -51t-50.5 -21zM372 587q-29 0 -50 21.5t-21 50.5q0 30 21 51t50 21q31 0 51.5 -21t20.5 -51t-21 -51t-51 -21z" />
    <glyph glyph-name="copyright" unicode="&#xa9;" horiz-adv-x="532" 
d="M309 272q-62 0 -115 31t-84 84t-31 115t31 115t84 84t115 31t115 -31t84 -84t31 -115t-31 -115t-84 -84t-115 -31zM309 320q50 0 91.5 24.5t66 66.5t24.5 91q0 50 -24.5 91.5t-66 66t-91.5 24.5q-49 0 -91 -24.5t-66.5 -66t-24.5 -91.5q0 -49 25 -90.5t66.5 -66.5
t90.5 -25zM313 383q-50 0 -84.5 35t-34.5 84q0 50 34 84.5t85 34.5q28 0 48 -10t39 -29l-32 -29q-12 13 -23.5 18.5t-31.5 5.5q-29 0 -51 -21.5t-22 -53.5q0 -31 22 -53t51 -22q36 0 60 31l34 -27q-36 -48 -94 -48z" />
    <glyph glyph-name="ordfeminine" unicode="&#xaa;" horiz-adv-x="495" 
d="M215 272q-64 0 -105.5 37.5t-41.5 94.5q0 74 56.5 118t143.5 44q72 0 122 -25l3 27q0 32 -23.5 51t-62.5 19q-31 0 -59 -13t-46 -37l-78 54q30 43 82 66.5t114 23.5q88 0 139 -41t51 -112q0 -17 -3 -35l-46 -258h-117l9 46h-8q-25 -27 -58 -43.5t-72 -16.5zM257 363
q42 0 76.5 29.5t41.5 67.5q-41 22 -96 22q-38 0 -64.5 -16.5t-26.5 -50.5q0 -25 19.5 -38.5t49.5 -13.5z" />
    <glyph glyph-name="guillemotleft" unicode="&#xab;" horiz-adv-x="610" 
d="M215 41l-172 230l253 230l66 -74l-180 -163l116 -157zM438 41l-172 230l253 230l66 -74l-180 -163l116 -157z" />
    <glyph glyph-name="logicalnot" unicode="&#xac;" horiz-adv-x="612" 
d="M414 290h-351l20 114h466l-53 -299h-114z" />
    <glyph glyph-name="uni00AD" unicode="&#xad;" horiz-adv-x="451" 
d="M414 368l-20 -116h-339l20 116h339z" />
    <glyph glyph-name="registered" unicode="&#xae;" horiz-adv-x="532" 
d="M309 272q-62 0 -115 31t-84 84t-31 115t31 115t84 84t115 31t115 -31t84 -84t31 -115t-31 -115t-84 -84t-115 -31zM309 320q50 0 91.5 24.5t66 66.5t24.5 91q0 50 -24.5 91.5t-66 66t-91.5 24.5q-49 0 -91 -24.5t-66.5 -66t-24.5 -91.5q0 -49 25 -90.5t66.5 -66.5
t90.5 -25zM232 615h96q29 0 51 -21t22 -51q0 -23 -14.5 -41.5t-35.5 -24.5l-2 -2l60 -84v-2h-52l-55 84h-24v-84h-46v226zM324 515q13 0 22 8t9 20q0 11 -8.5 19.5t-21.5 8.5h-47v-56h46z" />
    <glyph glyph-name="macron" unicode="&#xaf;" horiz-adv-x="416" 
d="M122 709h296l-18 -100h-296z" />
    <glyph glyph-name="degree" unicode="&#xb0;" horiz-adv-x="325" 
d="M205 442q-49 0 -84 32t-35 82q0 63 41.5 103.5t104.5 40.5q49 0 84 -32t35 -82q0 -63 -41.5 -103.5t-104.5 -40.5zM213 519q24 0 40.5 17t16.5 41q0 20 -12.5 33t-33.5 13q-24 0 -40.5 -16.5t-16.5 -41.5q0 -21 13 -33.5t33 -12.5z" />
    <glyph glyph-name="plusminus" unicode="&#xb1;" horiz-adv-x="569" 
d="M237 316h-170l19 108h170l25 141h116l-25 -141h171l-19 -108h-171l-25 -141h-116zM31 116h457l-21 -116h-455z" />
    <glyph glyph-name="uni00B2" unicode="&#xb2;" horiz-adv-x="317" 
d="M57 413l151 129q22 18 35.5 33.5t13.5 33.5q0 16 -11 26t-28 10q-39 0 -54 -48l-75 29q14 46 51.5 72t90.5 26q55 0 87 -28.5t32 -72.5q0 -35 -17.5 -60.5t-58.5 -59.5l-87 -74h134l-14 -79h-261z" />
    <glyph glyph-name="uni00B3" unicode="&#xb3;" horiz-adv-x="334" 
d="M188 342q-49 0 -85.5 26.5t-45.5 74.5l78 28q14 -52 60 -52q22 0 39 13t17 34q0 19 -14.5 29t-39.5 10h-35l13 70h34q24 0 40.5 10.5t16.5 29.5q0 14 -11.5 23t-26.5 9q-21 0 -34.5 -10.5t-20.5 -25.5l-73 32q18 37 54 59t87 22q50 0 82.5 -26.5t32.5 -66.5
q0 -30 -16.5 -52t-44.5 -36q21 -11 33 -30t12 -43q0 -56 -43 -92t-109 -36z" />
    <glyph glyph-name="acute" unicode="&#xb4;" horiz-adv-x="443" 
d="M256 724h154l-114 -136h-106z" />
    <glyph glyph-name="mu" unicode="&#xb5;" horiz-adv-x="600" 
d="M106 510h131l-54 -301q-2 -9 -2 -30q0 -33 22 -53.5t58 -20.5q58 0 94 39t48 106l46 260h131l-90 -510h-122l11 64h-8q-27 -40 -62.5 -60t-87.5 -20q-20 0 -41.5 7t-33.5 17h-8l-2 -65l-28 -159h-130z" />
    <glyph glyph-name="paragraph" unicode="&#xb6;" horiz-adv-x="643" 
d="M273 296h-25q-60 0 -111.5 25.5t-82 73.5t-30.5 111t30.5 111t82 73.5t111.5 25.5h315v-932h-110v825h-70v-825h-110v512z" />
    <glyph glyph-name="periodcentered" unicode="&#xb7;" horiz-adv-x="213" 
d="M118 237q-36 0 -61.5 25.5t-25.5 61.5t25.5 61.5t61.5 25.5t61.5 -25.5t25.5 -61.5t-25.5 -61.5t-61.5 -25.5z" />
    <glyph glyph-name="cedilla" unicode="&#xb8;" horiz-adv-x="411" 
d="M94 -237q-34 0 -62 19t-35 47l68 27q2 -12 11.5 -20t22.5 -8q15 0 25.5 9.5t10.5 25.5q0 14 -8.5 22.5t-21.5 8.5q-14 0 -28 -14l-55 28l51 92h68l-29 -47q7 1 18 1q35 0 57 -24.5t22 -61.5q0 -48 -32.5 -76.5t-82.5 -28.5z" />
    <glyph glyph-name="uni00B9" unicode="&#xb9;" horiz-adv-x="272" 
d="M191 601l-53 -38l-41 65l122 88h81l-65 -366h-89z" />
    <glyph glyph-name="ordmasculine" unicode="&#xba;" horiz-adv-x="535" 
d="M280 272q-91 0 -147.5 54t-56.5 146q0 68 34 127.5t95 96t138 36.5q91 0 147 -53.5t56 -145.5q0 -70 -35 -130t-95.5 -95.5t-135.5 -35.5zM290 381q36 0 67.5 18.5t50.5 51t19 71.5q0 45 -27 73t-69 28q-36 0 -67.5 -19t-50 -51.5t-18.5 -70.5q0 -45 26.5 -73t68.5 -28z
" />
    <glyph glyph-name="guillemotright" unicode="&#xbb;" horiz-adv-x="610" 
d="M179 501l172 -230l-253 -230l-66 74l180 163l-116 157zM402 501l172 -230l-253 -230l-66 74l180 163l-116 157z" />
    <glyph glyph-name="onequarter" unicode="&#xbc;" horiz-adv-x="759" 
d="M215 601l-53 -38l-41 65l122 88h81l-65 -366h-89zM672 731l71 -54l-587 -693l-72 55zM547 65h-173l12 64l212 237h88l-40 -227h47l-13 -74h-47l-12 -65h-86zM560 139l18 104h-8l-90 -104h80z" />
    <glyph glyph-name="onehalf" unicode="&#xbd;" horiz-adv-x="808" 
d="M215 601l-53 -38l-41 65l122 88h81l-65 -366h-89zM667 731l71 -54l-587 -693l-72 55zM468 63q137 117 150 129q22 17 36 33t14 34q0 16 -11 26t-29 10q-39 0 -53 -48l-76 29q13 46 51.5 72t91.5 26q55 0 87 -28.5t32 -72.5q0 -35 -17.5 -60t-58.5 -60l-87 -74h134
l-15 -79h-261z" />
    <glyph glyph-name="threequarters" unicode="&#xbe;" horiz-adv-x="842" 
d="M219 342q-49 0 -85.5 26.5t-45.5 74.5l78 28q14 -52 60 -52q22 0 39 13t17 34q0 19 -14.5 29t-39.5 10h-35l13 70h34q24 0 40.5 10.5t16.5 29.5q0 14 -11.5 23t-26.5 9q-21 0 -34.5 -10.5t-20.5 -25.5l-73 32q18 37 54 59t87 22q50 0 82.5 -26.5t32.5 -66.5
q0 -30 -16.5 -52t-44.5 -36q21 -11 33 -30t12 -43q0 -56 -43 -92t-109 -36zM735 731l71 -54l-587 -693l-72 55zM625 65h-173l12 64l212 237h88l-40 -227h47l-13 -74h-47l-12 -65h-86zM638 139l18 104h-8l-90 -104h80z" />
    <glyph glyph-name="questiondown" unicode="&#xbf;" horiz-adv-x="531" 
d="M302 352q-36 0 -61 25.5t-25 61.5t25 61.5t61 25.5t61.5 -25.5t25.5 -61.5t-25.5 -61.5t-61.5 -25.5zM198 -232q-57 0 -102 22t-70 61t-25 88q0 55 30.5 97t89.5 89q40 32 55.5 53.5t22.5 58.5l7 32h131l-9 -48q-9 -51 -33 -85.5t-88 -77.5q-34 -24 -54 -47t-20 -51
q0 -31 22 -50t58 -19q40 0 67.5 22.5t40.5 59.5l107 -48q-22 -66 -83.5 -111.5t-146.5 -45.5z" />
    <glyph glyph-name="Agrave" unicode="&#xc0;" horiz-adv-x="722" 
d="M360 716h158l143 -716h-144l-31 171h-273l-90 -171h-153zM463 295l-33 180l-11 86h-8l-40 -86l-94 -180h186zM323 908h148l19 -136h-102z" />
    <glyph glyph-name="Aacute" unicode="&#xc1;" horiz-adv-x="722" 
d="M360 716h158l143 -716h-144l-31 171h-273l-90 -171h-153zM463 295l-33 180l-11 86h-8l-40 -86l-94 -180h186zM455 908h154l-114 -136h-106z" />
    <glyph glyph-name="Acircumflex" unicode="&#xc2;" horiz-adv-x="722" 
d="M360 716h158l143 -716h-144l-31 171h-273l-90 -171h-153zM463 295l-33 180l-11 86h-8l-40 -86l-94 -180h186zM272 786l132 126h119l91 -126l-1 -8h-121l-31 59h-12l-49 -59h-129z" />
    <glyph glyph-name="Atilde" unicode="&#xc3;" horiz-adv-x="722" 
d="M360 716h158l143 -716h-144l-31 171h-273l-90 -171h-153zM463 295l-33 180l-11 86h-8l-40 -86l-94 -180h186zM514 771q-20 0 -36.5 6.5t-40.5 19.5q-30 17 -45 17q-26 0 -33 -29h-92q8 63 42 95.5t86 32.5q20 0 36.5 -6.5t40.5 -19.5q30 -17 45 -17q26 0 33 29h92
q-8 -63 -42 -95.5t-86 -32.5z" />
    <glyph glyph-name="Adieresis" unicode="&#xc4;" horiz-adv-x="722" 
d="M360 716h158l143 -716h-144l-31 171h-273l-90 -171h-153zM463 295l-33 180l-11 86h-8l-40 -86l-94 -180h186zM359 771q-30 0 -51 21.5t-21 50.5q0 30 21 51t51 21t50.5 -21t20.5 -51t-20.5 -51t-50.5 -21zM549 771q-29 0 -50 21.5t-21 50.5q0 30 21 51t50 21
q31 0 51.5 -21t20.5 -51t-21 -51t-51 -21z" />
    <glyph glyph-name="Aring" unicode="&#xc5;" horiz-adv-x="722" 
d="M340 680q-25 33 -25 76q0 36 17.5 65.5t47 47t65.5 17.5q35 0 65 -17.5t47.5 -47.5t17.5 -65q0 -29 -12 -54.5t-34 -44.5l132 -657h-144l-31 171h-273l-90 -171h-153zM445 716q17 0 28.5 12t11.5 28q0 17 -11.5 28.5t-28.5 11.5q-16 0 -28 -11.5t-12 -28.5q0 -16 12 -28
t28 -12zM463 295l-33 180l-11 86h-8l-40 -86l-94 -180h186z" />
    <glyph glyph-name="AE" unicode="&#xc6;" horiz-adv-x="1012" 
d="M459 716h536l-23 -128h-319l-29 -166h287l-23 -128h-287l-30 -166h320l-23 -128h-454l31 173h-233l-128 -173h-167zM467 301l51 287h-10l-43 -70l-161 -217h163z" />
    <glyph glyph-name="Ccedilla" unicode="&#xc7;" horiz-adv-x="750" 
d="M396 112q62 0 111 25t98 74l86 -97q-68 -69 -139.5 -99.5t-167.5 -30.5h-4l-19 -31q7 1 18 1q35 0 57 -24.5t22 -61.5q0 -48 -32.5 -76.5t-82.5 -28.5q-34 0 -62 19t-35 47l68 27q2 -12 11.5 -20t22.5 -8q15 0 25.5 9.5t10.5 25.5q0 14 -8.5 22.5t-21.5 8.5
q-14 0 -28 -14l-55 28l45 82q-76 14 -134.5 57t-91.5 112t-33 157q0 112 55.5 207.5t154 152t221.5 56.5q87 0 153.5 -32.5t105.5 -90.5l-107 -88q-31 41 -71.5 62t-98.5 21q-75 0 -138.5 -37.5t-101.5 -102t-38 -141.5q0 -63 26 -111t72.5 -74t105.5 -26z" />
    <glyph glyph-name="Egrave" unicode="&#xc8;" horiz-adv-x="593" 
d="M163 716h454l-23 -128h-319l-30 -166h288l-23 -128h-288l-29 -166h319l-22 -128h-454zM264 908h148l19 -136h-102z" />
    <glyph glyph-name="Eacute" unicode="&#xc9;" horiz-adv-x="593" 
d="M163 716h454l-23 -128h-319l-30 -166h288l-23 -128h-288l-29 -166h319l-22 -128h-454zM396 908h154l-114 -136h-106z" />
    <glyph glyph-name="Ecircumflex" unicode="&#xca;" horiz-adv-x="593" 
d="M163 716h454l-23 -128h-319l-30 -166h288l-23 -128h-288l-29 -166h319l-22 -128h-454zM213 786l132 126h119l91 -126l-1 -8h-121l-31 59h-12l-49 -59h-129z" />
    <glyph glyph-name="Edieresis" unicode="&#xcb;" horiz-adv-x="593" 
d="M163 716h454l-23 -128h-319l-30 -166h288l-23 -128h-288l-29 -166h319l-22 -128h-454zM300 771q-30 0 -51 21.5t-21 50.5q0 30 21 51t51 21t50.5 -21t20.5 -51t-20.5 -51t-50.5 -21zM490 771q-29 0 -50 21.5t-21 50.5q0 30 21 51t50 21q31 0 51.5 -21t20.5 -51t-21 -51
t-51 -21z" />
    <glyph glyph-name="Igrave" unicode="&#xcc;" horiz-adv-x="298" 
d="M163 716h134l-127 -716h-134zM122 908h148l19 -136h-102z" />
    <glyph glyph-name="Iacute" unicode="&#xcd;" horiz-adv-x="298" 
d="M163 716h134l-127 -716h-134zM254 908h154l-114 -136h-106z" />
    <glyph glyph-name="Icircumflex" unicode="&#xce;" horiz-adv-x="298" 
d="M163 716h134l-127 -716h-134zM71 786l132 126h119l91 -126l-1 -8h-121l-31 59h-12l-49 -59h-129z" />
    <glyph glyph-name="Idieresis" unicode="&#xcf;" horiz-adv-x="299" 
d="M163 774q-28 0 -48.5 20.5t-20.5 48.5q0 29 20.5 49t48.5 20q29 0 49 -20t20 -49q0 -28 -20 -48.5t-49 -20.5zM337 774q-28 0 -48.5 20.5t-20.5 48.5q0 29 20 49t49 20t49 -20t20 -49q0 -28 -20.5 -48.5t-48.5 -20.5zM163 716h134l-127 -716h-134z" />
    <glyph glyph-name="Eth" unicode="&#xd0;" horiz-adv-x="769" 
d="M120 302h-76l20 110h75l55 304h227q104 0 177.5 -40t111 -110.5t37.5 -163.5q0 -109 -52 -201t-149.5 -146.5t-225.5 -54.5h-253zM326 128q84 0 149 33.5t100.5 92.5t35.5 133q0 98 -51 149.5t-153 51.5h-101l-31 -176h184l-20 -110h-184l-31 -174h102z" />
    <glyph glyph-name="Ntilde" unicode="&#xd1;" horiz-adv-x="742" 
d="M163 716h149l211 -480h8l16 138l61 342h133l-127 -716h-133l-222 507h-8l-16 -138l-66 -369h-133zM532 771q-20 0 -36.5 6.5t-40.5 19.5q-30 17 -45 17q-26 0 -33 -29h-92q8 63 42 95.5t86 32.5q20 0 36.5 -6.5t40.5 -19.5q30 -17 45 -17q26 0 33 29h92q-8 -63 -42 -95.5
t-86 -32.5z" />
    <glyph glyph-name="Ograve" unicode="&#xd2;" horiz-adv-x="840" 
d="M396 -16q-96 0 -173.5 41.5t-121.5 117.5t-44 174q0 112 53.5 207t150.5 151.5t220 56.5q98 0 175 -43t120 -119t43 -171q0 -112 -53.5 -207t-150 -151.5t-219.5 -56.5zM407 112q77 0 140 38t99.5 103.5t36.5 143.5q0 60 -28 107t-77 73.5t-109 26.5q-77 0 -140 -38
t-99.5 -102.5t-36.5 -141.5q0 -61 28 -109t77 -74.5t109 -26.5zM377 908h148l19 -136h-102z" />
    <glyph glyph-name="Oacute" unicode="&#xd3;" horiz-adv-x="840" 
d="M396 -16q-96 0 -173.5 41.5t-121.5 117.5t-44 174q0 112 53.5 207t150.5 151.5t220 56.5q98 0 175 -43t120 -119t43 -171q0 -112 -53.5 -207t-150 -151.5t-219.5 -56.5zM407 112q77 0 140 38t99.5 103.5t36.5 143.5q0 60 -28 107t-77 73.5t-109 26.5q-77 0 -140 -38
t-99.5 -102.5t-36.5 -141.5q0 -61 28 -109t77 -74.5t109 -26.5zM509 908h154l-114 -136h-106z" />
    <glyph glyph-name="Ocircumflex" unicode="&#xd4;" horiz-adv-x="840" 
d="M396 -16q-96 0 -173.5 41.5t-121.5 117.5t-44 174q0 112 53.5 207t150.5 151.5t220 56.5q98 0 175 -43t120 -119t43 -171q0 -112 -53.5 -207t-150 -151.5t-219.5 -56.5zM407 112q77 0 140 38t99.5 103.5t36.5 143.5q0 60 -28 107t-77 73.5t-109 26.5q-77 0 -140 -38
t-99.5 -102.5t-36.5 -141.5q0 -61 28 -109t77 -74.5t109 -26.5zM326 786l132 126h119l91 -126l-1 -8h-121l-31 59h-12l-49 -59h-129z" />
    <glyph glyph-name="Otilde" unicode="&#xd5;" horiz-adv-x="840" 
d="M396 -16q-96 0 -173.5 41.5t-121.5 117.5t-44 174q0 112 53.5 207t150.5 151.5t220 56.5q98 0 175 -43t120 -119t43 -171q0 -112 -53.5 -207t-150 -151.5t-219.5 -56.5zM407 112q77 0 140 38t99.5 103.5t36.5 143.5q0 60 -28 107t-77 73.5t-109 26.5q-77 0 -140 -38
t-99.5 -102.5t-36.5 -141.5q0 -61 28 -109t77 -74.5t109 -26.5zM568 771q-20 0 -36.5 6.5t-40.5 19.5q-30 17 -45 17q-26 0 -33 -29h-92q8 63 42 95.5t86 32.5q20 0 36.5 -6.5t40.5 -19.5q30 -17 45 -17q26 0 33 29h92q-8 -63 -42 -95.5t-86 -32.5z" />
    <glyph glyph-name="Odieresis" unicode="&#xd6;" horiz-adv-x="840" 
d="M396 -16q-96 0 -173.5 41.5t-121.5 117.5t-44 174q0 112 53.5 207t150.5 151.5t220 56.5q98 0 175 -43t120 -119t43 -171q0 -112 -53.5 -207t-150 -151.5t-219.5 -56.5zM407 112q77 0 140 38t99.5 103.5t36.5 143.5q0 60 -28 107t-77 73.5t-109 26.5q-77 0 -140 -38
t-99.5 -102.5t-36.5 -141.5q0 -61 28 -109t77 -74.5t109 -26.5zM413 771q-30 0 -51 21.5t-21 50.5q0 30 21 51t51 21t50.5 -21t20.5 -51t-20.5 -51t-50.5 -21zM603 771q-29 0 -50 21.5t-21 50.5q0 30 21 51t50 21q31 0 51.5 -21t20.5 -51t-21 -51t-51 -21z" />
    <glyph glyph-name="multiply" unicode="&#xd7;" horiz-adv-x="625" 
d="M40 117l193 158l-134 154l92 78l135 -156l194 159l70 -85l-192 -158l134 -154l-91 -78l-135 156l-194 -159z" />
    <glyph glyph-name="Oslash" unicode="&#xd8;" horiz-adv-x="840" 
d="M94 15l53 67q-43 45 -66.5 104.5t-23.5 130.5q0 112 53.5 207t150.5 151.5t220 56.5q84 0 159 -35l56 70l84 -68l-52 -65q44 -45 67.5 -105t23.5 -130q0 -112 -53.5 -207t-150 -151.5t-219.5 -56.5q-88 0 -160 35l-57 -71zM553 588q-42 16 -84 16q-77 0 -140 -38
t-99.5 -102.5t-36.5 -141.5q0 -78 43 -130zM407 112q77 0 140 38t99.5 103.5t36.5 143.5q0 74 -43 127l-317 -396q40 -16 84 -16z" />
    <glyph glyph-name="Ugrave" unicode="&#xd9;" horiz-adv-x="694" 
d="M308 -16q-70 0 -124.5 29.5t-84.5 83t-30 123.5q0 36 9 84l72 412h135l-77 -435q-4 -25 -4 -47q0 -57 30.5 -89.5t91.5 -32.5q67 0 111 44.5t58 120.5l77 439h135l-79 -447q-25 -142 -107.5 -213.5t-212.5 -71.5zM313 908h148l19 -136h-102z" />
    <glyph glyph-name="Uacute" unicode="&#xda;" horiz-adv-x="694" 
d="M308 -16q-70 0 -124.5 29.5t-84.5 83t-30 123.5q0 36 9 84l72 412h135l-77 -435q-4 -25 -4 -47q0 -57 30.5 -89.5t91.5 -32.5q67 0 111 44.5t58 120.5l77 439h135l-79 -447q-25 -142 -107.5 -213.5t-212.5 -71.5zM445 908h154l-114 -136h-106z" />
    <glyph glyph-name="Ucircumflex" unicode="&#xdb;" horiz-adv-x="694" 
d="M308 -16q-70 0 -124.5 29.5t-84.5 83t-30 123.5q0 36 9 84l72 412h135l-77 -435q-4 -25 -4 -47q0 -57 30.5 -89.5t91.5 -32.5q67 0 111 44.5t58 120.5l77 439h135l-79 -447q-25 -142 -107.5 -213.5t-212.5 -71.5zM262 786l132 126h119l91 -126l-1 -8h-121l-31 59h-12
l-49 -59h-129z" />
    <glyph glyph-name="Udieresis" unicode="&#xdc;" horiz-adv-x="694" 
d="M308 -16q-70 0 -124.5 29.5t-84.5 83t-30 123.5q0 36 9 84l72 412h135l-77 -435q-4 -25 -4 -47q0 -57 30.5 -89.5t91.5 -32.5q67 0 111 44.5t58 120.5l77 439h135l-79 -447q-25 -142 -107.5 -213.5t-212.5 -71.5zM349 771q-30 0 -51 21.5t-21 50.5q0 30 21 51t51 21
t50.5 -21t20.5 -51t-20.5 -51t-50.5 -21zM539 771q-29 0 -50 21.5t-21 50.5q0 30 21 51t50 21q31 0 51.5 -21t20.5 -51t-21 -51t-51 -21z" />
    <glyph glyph-name="Yacute" unicode="&#xdd;" horiz-adv-x="642" 
d="M269 333l-173 383h156l102 -237h8l180 237h167l-305 -383l-59 -333h-135zM412 908h154l-114 -136h-106z" />
    <glyph glyph-name="Thorn" unicode="&#xde;" horiz-adv-x="605" 
d="M153 716h135l-20 -109h106q63 0 113 -26t78.5 -73t28.5 -107q0 -77 -35.5 -132.5t-98.5 -84.5t-145 -29h-127l-27 -155h-135zM333 283q56 0 91 27.5t35 80.5q0 40 -24 64t-68 24h-121l-35 -196h122z" />
    <glyph glyph-name="germandbls" unicode="&#xdf;" horiz-adv-x="585" 
d="M460 383q40 -19 63.5 -58.5t23.5 -95.5q0 -69 -34 -123t-94 -84t-136 -30q-42 0 -67 4l21 119q21 -4 51 -4q54 0 91 31.5t37 85.5q0 44 -27.5 70t-78.5 26h-25l20 115h20q49 0 82.5 25.5t33.5 69.5q0 35 -23 56t-62 21q-44 0 -72.5 -29.5t-37.5 -76.5l-89 -505h-131
l89 507q18 102 83 163.5t176 61.5q59 0 104 -24t69 -64.5t24 -87.5q0 -62 -31 -103.5t-79 -61.5z" />
    <glyph glyph-name="agrave" unicode="&#xe0;" horiz-adv-x="555" 
d="M181 -16q-46 0 -83.5 21.5t-59.5 58t-22 79.5q0 86 58.5 135t168.5 49q73 0 135 -25l5 22l2 22q0 32 -29.5 53t-72.5 21q-38 0 -69.5 -14.5t-53.5 -41.5l-87 64q39 48 98 73t128 25q99 0 156.5 -48t57.5 -126q0 -20 -5 -52l-54 -300h-129l9 52h-8q-51 -68 -145 -68z
M226 86q54 0 91 34.5t45 87.5q-28 12 -53 18t-60 6q-49 0 -74.5 -20.5t-25.5 -58.5q0 -31 21.5 -49t55.5 -18zM204 744h148l18 -136h-102z" />
    <glyph glyph-name="aacute" unicode="&#xe1;" horiz-adv-x="555" 
d="M181 -16q-46 0 -83.5 21.5t-59.5 58t-22 79.5q0 86 58.5 135t168.5 49q73 0 135 -25l5 22l2 22q0 32 -29.5 53t-72.5 21q-38 0 -69.5 -14.5t-53.5 -41.5l-87 64q39 48 98 73t128 25q99 0 156.5 -48t57.5 -126q0 -20 -5 -52l-54 -300h-129l9 52h-8q-51 -68 -145 -68z
M226 86q54 0 91 34.5t45 87.5q-28 12 -53 18t-60 6q-49 0 -74.5 -20.5t-25.5 -58.5q0 -31 21.5 -49t55.5 -18zM331 744h153l-113 -136h-106z" />
    <glyph glyph-name="acircumflex" unicode="&#xe2;" horiz-adv-x="555" 
d="M181 -16q-46 0 -83.5 21.5t-59.5 58t-22 79.5q0 86 58.5 135t168.5 49q73 0 135 -25l5 22l2 22q0 32 -29.5 53t-72.5 21q-38 0 -69.5 -14.5t-53.5 -41.5l-87 64q39 48 98 73t128 25q99 0 156.5 -48t57.5 -126q0 -20 -5 -52l-54 -300h-129l9 52h-8q-51 -68 -145 -68z
M226 86q54 0 91 34.5t45 87.5q-28 12 -53 18t-60 6q-49 0 -74.5 -20.5t-25.5 -58.5q0 -31 21.5 -49t55.5 -18zM146 610l132 126h119l91 -126l-2 -8h-120l-32 58h-12l-48 -58h-130z" />
    <glyph glyph-name="atilde" unicode="&#xe3;" horiz-adv-x="555" 
d="M181 -16q-46 0 -83.5 21.5t-59.5 58t-22 79.5q0 86 58.5 135t168.5 49q73 0 135 -25l5 22l2 22q0 32 -29.5 53t-72.5 21q-38 0 -69.5 -14.5t-53.5 -41.5l-87 64q39 48 98 73t128 25q99 0 156.5 -48t57.5 -126q0 -20 -5 -52l-54 -300h-129l9 52h-8q-51 -68 -145 -68z
M226 86q54 0 91 34.5t45 87.5q-28 12 -53 18t-60 6q-49 0 -74.5 -20.5t-25.5 -58.5q0 -31 21.5 -49t55.5 -18zM391 607q-21 0 -38 6.5t-38 18.5q-31 18 -47 18q-25 0 -32 -29h-92q8 62 41.5 94.5t85.5 32.5q21 0 38 -7t39 -19q12 -7 24.5 -12t21.5 -5q26 0 32 29h92
q-8 -62 -41.5 -94.5t-85.5 -32.5z" />
    <glyph glyph-name="adieresis" unicode="&#xe4;" horiz-adv-x="555" 
d="M181 -16q-46 0 -83.5 21.5t-59.5 58t-22 79.5q0 86 58.5 135t168.5 49q73 0 135 -25l5 22l2 22q0 32 -29.5 53t-72.5 21q-38 0 -69.5 -14.5t-53.5 -41.5l-87 64q39 48 98 73t128 25q99 0 156.5 -48t57.5 -126q0 -20 -5 -52l-54 -300h-129l9 52h-8q-51 -68 -145 -68z
M226 86q54 0 91 34.5t45 87.5q-28 12 -53 18t-60 6q-49 0 -74.5 -20.5t-25.5 -58.5q0 -31 21.5 -49t55.5 -18zM235 607q-29 0 -50 21t-21 51t21 50.5t50 20.5q31 0 51.5 -20.5t20.5 -50.5t-20.5 -51t-51.5 -21zM426 607q-29 0 -50.5 21t-21.5 51t21 50.5t51 20.5t51 -20.5
t21 -50.5t-21 -51t-51 -21z" />
    <glyph glyph-name="aring" unicode="&#xe5;" horiz-adv-x="555" 
d="M181 -16q-46 0 -83.5 21.5t-59.5 58t-22 79.5q0 86 58.5 135t168.5 49q73 0 135 -25l5 22l2 22q0 32 -29.5 53t-72.5 21q-38 0 -69.5 -14.5t-53.5 -41.5l-87 64q39 48 98 73t128 25q99 0 156.5 -48t57.5 -126q0 -20 -5 -52l-54 -300h-129l9 52h-8q-51 -68 -145 -68z
M226 86q54 0 91 34.5t45 87.5q-28 12 -53 18t-60 6q-49 0 -74.5 -20.5t-25.5 -58.5q0 -31 21.5 -49t55.5 -18zM333 584q-45 0 -76.5 31.5t-31.5 76.5t31.5 76.5t76.5 31.5t76.5 -31.5t31.5 -76.5t-31.5 -76.5t-76.5 -31.5zM333 657q14 0 24 10.5t10 24.5t-10.5 24t-23.5 10
q-14 0 -24.5 -10t-10.5 -24t10.5 -24.5t24.5 -10.5z" />
    <glyph glyph-name="ae" unicode="&#xe6;" horiz-adv-x="919" 
d="M180 -16q-45 0 -82.5 21.5t-59.5 58t-22 79.5q0 91 63.5 137.5t170.5 46.5q40 0 75 -7.5t54 -15.5l5 22q2 14 2 17q0 36 -27.5 56.5t-73.5 20.5q-77 0 -111 -52l-94 51q34 55 90 81t128 26q63 0 108.5 -21.5t69.5 -57.5q73 79 190 79q68 0 118.5 -30t77 -79.5
t26.5 -105.5q0 -46 -13 -87h-383q-1 -3 -1 -11q2 -53 37 -83t86 -30q54 0 88 18.5t57 57.5l99 -52q-44 -70 -104 -105t-150 -35q-67 0 -116 29.5t-79 77.5q-45 -57 -102 -82t-127 -25zM767 317v4q0 41 -33.5 69.5t-82.5 28.5q-52 0 -90.5 -30t-53.5 -72h260zM226 86
q54 0 91 34.5t45 87.5q-48 24 -113 24q-49 0 -74.5 -20.5t-25.5 -58.5q0 -31 21.5 -49t55.5 -18z" />
    <glyph glyph-name="ccedilla" unicode="&#xe7;" horiz-adv-x="572" 
d="M285 105q46 0 79 19.5t51 54.5l111 -54q-38 -69 -104 -105t-148 -36h-5l-19 -31q7 1 18 1q35 0 57 -24.5t22 -61.5q0 -48 -32.5 -76.5t-82.5 -28.5q-34 0 -62 19t-35 47l68 27q2 -12 11.5 -20t22.5 -8q15 0 25.5 9.5t10.5 25.5q0 14 -8.5 22.5t-21.5 8.5q-14 0 -28 -14
l-55 28l47 84q-80 20 -128 83.5t-48 148.5q0 79 37.5 148.5t107.5 111.5t163 42q82 0 139.5 -39.5t78.5 -104.5l-122 -48q-13 33 -43.5 51.5t-70.5 18.5q-44 0 -80.5 -21.5t-57 -59.5t-20.5 -85q0 -59 35 -96t87 -37z" />
    <glyph glyph-name="egrave" unicode="&#xe8;" horiz-adv-x="588" 
d="M271 -16q-71 0 -125 32.5t-83.5 88t-29.5 121.5q0 80 38 148.5t106.5 110t154.5 41.5q69 0 120 -30t78 -79t27 -106q0 -45 -13 -87h-383l-1 -11q1 -53 36.5 -83t85.5 -30q55 0 89 18.5t57 57.5l99 -52q-44 -70 -104 -105t-152 -35zM436 317v4q0 40 -32 69t-84 29
q-51 0 -89.5 -30t-53.5 -72h259zM232 744h148l18 -136h-102z" />
    <glyph glyph-name="eacute" unicode="&#xe9;" horiz-adv-x="588" 
d="M271 -16q-71 0 -125 32.5t-83.5 88t-29.5 121.5q0 80 38 148.5t106.5 110t154.5 41.5q69 0 120 -30t78 -79t27 -106q0 -45 -13 -87h-383l-1 -11q1 -53 36.5 -83t85.5 -30q55 0 89 18.5t57 57.5l99 -52q-44 -70 -104 -105t-152 -35zM436 317v4q0 40 -32 69t-84 29
q-51 0 -89.5 -30t-53.5 -72h259zM359 744h153l-113 -136h-106z" />
    <glyph glyph-name="ecircumflex" unicode="&#xea;" horiz-adv-x="588" 
d="M271 -16q-71 0 -125 32.5t-83.5 88t-29.5 121.5q0 80 38 148.5t106.5 110t154.5 41.5q69 0 120 -30t78 -79t27 -106q0 -45 -13 -87h-383l-1 -11q1 -53 36.5 -83t85.5 -30q55 0 89 18.5t57 57.5l99 -52q-44 -70 -104 -105t-152 -35zM436 317v4q0 40 -32 69t-84 29
q-51 0 -89.5 -30t-53.5 -72h259zM174 610l132 126h119l91 -126l-2 -8h-120l-32 58h-12l-48 -58h-130z" />
    <glyph glyph-name="edieresis" unicode="&#xeb;" horiz-adv-x="588" 
d="M271 -16q-71 0 -125 32.5t-83.5 88t-29.5 121.5q0 80 38 148.5t106.5 110t154.5 41.5q69 0 120 -30t78 -79t27 -106q0 -45 -13 -87h-383l-1 -11q1 -53 36.5 -83t85.5 -30q55 0 89 18.5t57 57.5l99 -52q-44 -70 -104 -105t-152 -35zM436 317v4q0 40 -32 69t-84 29
q-51 0 -89.5 -30t-53.5 -72h259zM263 607q-29 0 -50 21t-21 51t21 50.5t50 20.5q31 0 51.5 -20.5t20.5 -50.5t-20.5 -51t-51.5 -21zM454 607q-29 0 -50.5 21t-21.5 51t21 50.5t51 20.5t51 -20.5t21 -50.5t-21 -51t-51 -21z" />
    <glyph glyph-name="igrave" unicode="&#xec;" horiz-adv-x="276" 
d="M118 510h130l-89 -510h-130zM86 744h148l18 -136h-102z" />
    <glyph glyph-name="iacute" unicode="&#xed;" horiz-adv-x="276" 
d="M118 510h130l-89 -510h-130zM213 744h153l-113 -136h-106z" />
    <glyph glyph-name="icircumflex" unicode="&#xee;" horiz-adv-x="276" 
d="M118 510h130l-89 -510h-130zM28 610l132 126h119l91 -126l-2 -8h-120l-32 58h-12l-48 -58h-130z" />
    <glyph glyph-name="idieresis" unicode="&#xef;" horiz-adv-x="276" 
d="M125 610q-28 0 -48.5 20.5t-20.5 48.5q0 29 20.5 49t48.5 20q29 0 49 -20t20 -49q0 -28 -20 -48.5t-49 -20.5zM293 610q-28 0 -48.5 20.5t-20.5 48.5q0 29 20.5 49t48.5 20q29 0 49 -20t20 -49q0 -28 -20 -48.5t-49 -20.5zM118 510h130l-89 -510h-130z" />
    <glyph glyph-name="eth" unicode="&#xf0;" horiz-adv-x="588" 
d="M258 -16q-63 0 -114 30t-80 81t-29 112q0 80 34 145t96.5 102t145.5 37q34 0 64 -10.5t48 -27.5l7 6q-9 26 -24.5 44.5t-47.5 48.5l-123 -51l-31 75l71 29q-40 18 -84 26l36 99q99 -21 172 -74l116 48l30 -74l-79 -34q43 -53 68 -126t25 -155q0 -90 -33.5 -165.5
t-101.5 -120.5t-166 -45zM277 101q41 0 73 21.5t50 57t18 76.5q0 51 -30 84.5t-78 33.5q-43 0 -76.5 -22t-52 -57.5t-18.5 -75.5q0 -51 32.5 -84.5t81.5 -33.5z" />
    <glyph glyph-name="ntilde" unicode="&#xf1;" horiz-adv-x="600" 
d="M229 446q26 38 67.5 59t95.5 21q78 0 120 -44t42 -112q0 -34 -5 -62l-55 -308h-131l52 293q4 22 4 38q0 31 -22 52t-58 21q-58 0 -94 -38.5t-48 -105.5l-46 -260h-131l90 510h122l-11 -64h8zM449 607q-21 0 -38 6.5t-38 18.5q-31 18 -47 18q-25 0 -32 -29h-92
q8 62 41.5 94.5t85.5 32.5q21 0 38 -7t39 -19q12 -7 24.5 -12t21.5 -5q26 0 32 29h92q-8 -62 -41.5 -94.5t-85.5 -32.5z" />
    <glyph glyph-name="ograve" unicode="&#xf2;" horiz-adv-x="609" 
d="M272 -16q-71 0 -125.5 31.5t-84.5 85.5t-30 121q0 85 38 154.5t107 109.5t159 40q71 0 125.5 -31.5t84.5 -85.5t30 -121q0 -85 -38 -154.5t-107 -109.5t-159 -40zM287 105q43 0 79 22t57 61t21 86q0 57 -33 93.5t-90 36.5q-43 0 -79 -22t-57 -60.5t-21 -85.5
q0 -58 33 -94.5t90 -36.5zM241 744h148l18 -136h-102z" />
    <glyph glyph-name="oacute" unicode="&#xf3;" horiz-adv-x="609" 
d="M272 -16q-71 0 -125.5 31.5t-84.5 85.5t-30 121q0 85 38 154.5t107 109.5t159 40q71 0 125.5 -31.5t84.5 -85.5t30 -121q0 -85 -38 -154.5t-107 -109.5t-159 -40zM287 105q43 0 79 22t57 61t21 86q0 57 -33 93.5t-90 36.5q-43 0 -79 -22t-57 -60.5t-21 -85.5
q0 -58 33 -94.5t90 -36.5zM368 744h153l-113 -136h-106z" />
    <glyph glyph-name="ocircumflex" unicode="&#xf4;" horiz-adv-x="609" 
d="M272 -16q-71 0 -125.5 31.5t-84.5 85.5t-30 121q0 85 38 154.5t107 109.5t159 40q71 0 125.5 -31.5t84.5 -85.5t30 -121q0 -85 -38 -154.5t-107 -109.5t-159 -40zM287 105q43 0 79 22t57 61t21 86q0 57 -33 93.5t-90 36.5q-43 0 -79 -22t-57 -60.5t-21 -85.5
q0 -58 33 -94.5t90 -36.5zM183 610l132 126h119l91 -126l-2 -8h-120l-32 58h-12l-48 -58h-130z" />
    <glyph glyph-name="otilde" unicode="&#xf5;" horiz-adv-x="609" 
d="M272 -16q-71 0 -125.5 31.5t-84.5 85.5t-30 121q0 85 38 154.5t107 109.5t159 40q71 0 125.5 -31.5t84.5 -85.5t30 -121q0 -85 -38 -154.5t-107 -109.5t-159 -40zM287 105q43 0 79 22t57 61t21 86q0 57 -33 93.5t-90 36.5q-43 0 -79 -22t-57 -60.5t-21 -85.5
q0 -58 33 -94.5t90 -36.5zM428 607q-21 0 -38 6.5t-38 18.5q-31 18 -47 18q-25 0 -32 -29h-92q8 62 41.5 94.5t85.5 32.5q21 0 38 -7t39 -19q12 -7 24.5 -12t21.5 -5q26 0 32 29h92q-8 -62 -41.5 -94.5t-85.5 -32.5z" />
    <glyph glyph-name="odieresis" unicode="&#xf6;" horiz-adv-x="609" 
d="M272 -16q-71 0 -125.5 31.5t-84.5 85.5t-30 121q0 85 38 154.5t107 109.5t159 40q71 0 125.5 -31.5t84.5 -85.5t30 -121q0 -85 -38 -154.5t-107 -109.5t-159 -40zM287 105q43 0 79 22t57 61t21 86q0 57 -33 93.5t-90 36.5q-43 0 -79 -22t-57 -60.5t-21 -85.5
q0 -58 33 -94.5t90 -36.5zM272 607q-29 0 -50 21t-21 51t21 50.5t50 20.5q31 0 51.5 -20.5t20.5 -50.5t-20.5 -51t-51.5 -21zM463 607q-29 0 -50.5 21t-21.5 51t21 50.5t51 20.5t51 -20.5t21 -50.5t-21 -51t-51 -21z" />
    <glyph glyph-name="divide" unicode="&#xf7;" horiz-adv-x="569" 
d="M322 386q-34 0 -58 24t-24 58t24 58t58 24t58 -24t24 -58t-24 -58t-58 -24zM69 325h457l-20 -108h-456zM253 -8q-34 0 -58 24t-24 58t24 58t58 24t58 -24t24 -58t-24 -58t-58 -24z" />
    <glyph glyph-name="oslash" unicode="&#xf8;" horiz-adv-x="602" 
d="M56 13l33 43q-29 32 -45 75t-16 91q0 85 38 154.5t107.5 109.5t158.5 40q59 0 108 -23l40 52l74 -62l-38 -46q58 -66 58 -159q0 -85 -38.5 -154.5t-107.5 -109.5t-159 -40q-53 0 -99 19l-37 -48zM361 404q-16 8 -43 8q-43 0 -80.5 -24t-60 -64.5t-22.5 -87.5
q0 -40 18 -73zM283 96q43 0 80.5 23.5t60 64.5t22.5 90q0 37 -14 64l-184 -236q17 -6 35 -6z" />
    <glyph glyph-name="ugrave" unicode="&#xf9;" horiz-adv-x="600" 
d="M371 64q-26 -39 -67.5 -59.5t-95.5 -20.5q-78 0 -120 44t-42 112q0 32 5 61l55 309h131l-52 -293q-4 -16 -4 -38q0 -32 22 -53t58 -21q58 0 94 38.5t48 106.5l46 260h131l-90 -510h-122l11 64h-8zM246 744h148l18 -136h-102z" />
    <glyph glyph-name="uacute" unicode="&#xfa;" horiz-adv-x="600" 
d="M371 64q-26 -39 -67.5 -59.5t-95.5 -20.5q-78 0 -120 44t-42 112q0 32 5 61l55 309h131l-52 -293q-4 -16 -4 -38q0 -32 22 -53t58 -21q58 0 94 38.5t48 106.5l46 260h131l-90 -510h-122l11 64h-8zM373 744h153l-113 -136h-106z" />
    <glyph glyph-name="ucircumflex" unicode="&#xfb;" horiz-adv-x="600" 
d="M371 64q-26 -39 -67.5 -59.5t-95.5 -20.5q-78 0 -120 44t-42 112q0 32 5 61l55 309h131l-52 -293q-4 -16 -4 -38q0 -32 22 -53t58 -21q58 0 94 38.5t48 106.5l46 260h131l-90 -510h-122l11 64h-8zM188 610l132 126h119l91 -126l-2 -8h-120l-32 58h-12l-48 -58h-130z" />
    <glyph glyph-name="udieresis" unicode="&#xfc;" horiz-adv-x="600" 
d="M371 64q-26 -39 -67.5 -59.5t-95.5 -20.5q-78 0 -120 44t-42 112q0 32 5 61l55 309h131l-52 -293q-4 -16 -4 -38q0 -32 22 -53t58 -21q58 0 94 38.5t48 106.5l46 260h131l-90 -510h-122l11 64h-8zM277 607q-29 0 -50 21t-21 51t21 50.5t50 20.5q31 0 51.5 -20.5
t20.5 -50.5t-20.5 -51t-51.5 -21zM468 607q-29 0 -50.5 21t-21.5 51t21 50.5t51 20.5t51 -20.5t21 -50.5t-21 -51t-51 -21z" />
    <glyph glyph-name="yacute" unicode="&#xfd;" horiz-adv-x="579" 
d="M180 29l-127 481h146l77 -317h7l185 317h148l-444 -726h-143zM356 744h153l-113 -136h-106z" />
    <glyph glyph-name="thorn" unicode="&#xfe;" horiz-adv-x="630" 
d="M145 716h131l-35 -196l-20 -72h8q24 36 64.5 57t99.5 21t106 -30.5t74 -84.5t27 -120q0 -86 -36.5 -156t-102 -110.5t-149.5 -40.5q-53 0 -95.5 23t-57.5 54h-8l-3 -72l-36 -205h-131zM308 105q47 0 83.5 22.5t56.5 62.5t20 89q0 56 -35.5 90.5t-88.5 34.5q-42 0 -79 -21
t-59 -60.5t-22 -93.5t35.5 -89t88.5 -35z" />
    <glyph glyph-name="ydieresis" unicode="&#xff;" horiz-adv-x="579" 
d="M180 29l-127 481h146l77 -317h7l185 317h148l-444 -726h-143zM260 607q-29 0 -50 21t-21 51t21 50.5t50 20.5q31 0 51.5 -20.5t20.5 -50.5t-20.5 -51t-51.5 -21zM451 607q-29 0 -50.5 21t-21.5 51t21 50.5t51 20.5t51 -20.5t21 -50.5t-21 -51t-51 -21z" />
    <glyph glyph-name="Amacron" unicode="&#x100;" horiz-adv-x="722" 
d="M360 716h158l143 -716h-144l-31 171h-273l-90 -171h-153zM463 295l-33 180l-11 86h-8l-40 -86l-94 -180h186zM316 893h296l-18 -100h-296z" />
    <glyph glyph-name="amacron" unicode="&#x101;" horiz-adv-x="555" 
d="M181 -16q-46 0 -83.5 21.5t-59.5 58t-22 79.5q0 86 58.5 135t168.5 49q73 0 135 -25l5 22l2 22q0 32 -29.5 53t-72.5 21q-38 0 -69.5 -14.5t-53.5 -41.5l-87 64q39 48 98 73t128 25q99 0 156.5 -48t57.5 -126q0 -20 -5 -52l-54 -300h-129l9 52h-8q-51 -68 -145 -68z
M226 86q54 0 91 34.5t45 87.5q-28 12 -53 18t-60 6q-49 0 -74.5 -20.5t-25.5 -58.5q0 -31 21.5 -49t55.5 -18zM191 729h296l-17 -100h-297z" />
    <glyph glyph-name="Abreve" unicode="&#x102;" horiz-adv-x="722" 
d="M360 716h158l143 -716h-144l-31 171h-273l-90 -171h-153zM463 295l-33 180l-11 86h-8l-40 -86l-94 -180h186zM445 763q-50 0 -84.5 32t-34.5 81q0 13 2 23h92q-1 -4 -1 -9q0 -16 10 -26.5t28 -10.5q19 0 33 13t18 33h92q-10 -66 -51 -101t-104 -35z" />
    <glyph glyph-name="abreve" unicode="&#x103;" horiz-adv-x="555" 
d="M181 -16q-46 0 -83.5 21.5t-59.5 58t-22 79.5q0 86 58.5 135t168.5 49q73 0 135 -25l5 22l2 22q0 32 -29.5 53t-72.5 21q-38 0 -69.5 -14.5t-53.5 -41.5l-87 64q39 48 98 73t128 25q99 0 156.5 -48t57.5 -126q0 -20 -5 -52l-54 -300h-129l9 52h-8q-51 -68 -145 -68z
M226 86q54 0 91 34.5t45 87.5q-28 12 -53 18t-60 6q-49 0 -74.5 -20.5t-25.5 -58.5q0 -31 21.5 -49t55.5 -18zM319 599q-50 0 -84.5 31.5t-34.5 80.5q0 5 2 23h93q-1 -4 -1 -9q0 -15 9.5 -25.5t27.5 -10.5q20 0 34 12.5t17 32.5h92q-10 -66 -51 -100.5t-104 -34.5z" />
    <glyph glyph-name="Aogonek" unicode="&#x104;" horiz-adv-x="722" 
d="M574 -224q-54 0 -84 27t-30 70q0 37 20 68.5t54 53.5l-1 5h-16l-31 171h-273l-90 -171h-153l390 716h158l143 -716q-34 -19 -60 -45t-26 -52q0 -15 9 -23.5t24 -8.5q19 0 43 11l-17 -96q-30 -10 -60 -10zM463 295l-33 180l-11 86h-8l-40 -86l-94 -180h186z" />
    <glyph glyph-name="aogonek" unicode="&#x105;" horiz-adv-x="555" 
d="M368 -224q-54 0 -84.5 27t-30.5 70q0 37 21 68t56 53l-5 6l9 52h-8q-51 -68 -145 -68q-46 0 -83.5 21.5t-59.5 58t-22 79.5q0 86 58.5 135t168.5 49q73 0 135 -25l5 22l2 22q0 32 -29.5 53t-72.5 21q-38 0 -69.5 -14.5t-53.5 -41.5l-87 64q39 48 98 73t128 25
q99 0 156.5 -48t57.5 -126q0 -20 -5 -52l-54 -300q-34 -19 -59.5 -45t-25.5 -52q0 -15 9 -23.5t24 -8.5q18 0 42 11l-17 -96q-29 -10 -59 -10zM226 86q54 0 91 34.5t45 87.5q-28 12 -53 18t-60 6q-49 0 -74.5 -20.5t-25.5 -58.5q0 -31 21.5 -49t55.5 -18z" />
    <glyph glyph-name="Cacute" unicode="&#x106;" horiz-adv-x="750" 
d="M384 -16q-93 0 -167.5 40.5t-117 115.5t-42.5 176q0 112 55.5 207.5t154 152t221.5 56.5q87 0 153.5 -32.5t105.5 -90.5l-107 -88q-31 41 -71.5 62t-98.5 21q-75 0 -138.5 -37.5t-101.5 -102t-38 -141.5q0 -63 26 -111t72.5 -74t105.5 -26q62 0 111 25t98 74l86 -97
q-68 -69 -139.5 -99.5t-167.5 -30.5zM498 908h154l-114 -136h-106z" />
    <glyph glyph-name="cacute" unicode="&#x107;" horiz-adv-x="572" 
d="M274 -16q-70 0 -125.5 31.5t-86.5 86.5t-31 122q0 79 37.5 148.5t107.5 111.5t163 42q82 0 139.5 -39.5t78.5 -104.5l-122 -48q-13 33 -43.5 51.5t-70.5 18.5q-44 0 -80.5 -21.5t-57 -59.5t-20.5 -85q0 -59 35 -96t87 -37q46 0 79 19.5t51 54.5l111 -54
q-38 -69 -104 -105t-148 -36zM355 744h153l-113 -136h-106z" />
    <glyph glyph-name="Ccircumflex" unicode="&#x108;" horiz-adv-x="750" 
d="M384 -16q-93 0 -167.5 40.5t-117 115.5t-42.5 176q0 112 55.5 207.5t154 152t221.5 56.5q87 0 153.5 -32.5t105.5 -90.5l-107 -88q-31 41 -71.5 62t-98.5 21q-75 0 -138.5 -37.5t-101.5 -102t-38 -141.5q0 -63 26 -111t72.5 -74t105.5 -26q62 0 111 25t98 74l86 -97
q-68 -69 -139.5 -99.5t-167.5 -30.5zM315 786l132 126h119l91 -126l-1 -8h-121l-31 59h-12l-49 -59h-129z" />
    <glyph glyph-name="ccircumflex" unicode="&#x109;" horiz-adv-x="572" 
d="M274 -16q-70 0 -125.5 31.5t-86.5 86.5t-31 122q0 79 37.5 148.5t107.5 111.5t163 42q82 0 139.5 -39.5t78.5 -104.5l-122 -48q-13 33 -43.5 51.5t-70.5 18.5q-44 0 -80.5 -21.5t-57 -59.5t-20.5 -85q0 -59 35 -96t87 -37q46 0 79 19.5t51 54.5l111 -54
q-38 -69 -104 -105t-148 -36zM170 610l132 126h119l91 -126l-2 -8h-120l-32 58h-12l-48 -58h-130z" />
    <glyph glyph-name="Cdotaccent" unicode="&#x10a;" horiz-adv-x="750" 
d="M384 -16q-93 0 -167.5 40.5t-117 115.5t-42.5 176q0 112 55.5 207.5t154 152t221.5 56.5q87 0 153.5 -32.5t105.5 -90.5l-107 -88q-31 41 -71.5 62t-98.5 21q-75 0 -138.5 -37.5t-101.5 -102t-38 -141.5q0 -63 26 -111t72.5 -74t105.5 -26q62 0 111 25t98 74l86 -97
q-68 -69 -139.5 -99.5t-167.5 -30.5zM500 785q-28 0 -49 21t-21 50t20.5 50t49.5 21q30 0 50.5 -21t20.5 -50t-20.5 -50t-50.5 -21z" />
    <glyph glyph-name="cdotaccent" unicode="&#x10b;" horiz-adv-x="572" 
d="M274 -16q-70 0 -125.5 31.5t-86.5 86.5t-31 122q0 79 37.5 148.5t107.5 111.5t163 42q82 0 139.5 -39.5t78.5 -104.5l-122 -48q-13 33 -43.5 51.5t-70.5 18.5q-44 0 -80.5 -21.5t-57 -59.5t-20.5 -85q0 -59 35 -96t87 -37q46 0 79 19.5t51 54.5l111 -54
q-38 -69 -104 -105t-148 -36zM354 595q-32 0 -54 22.5t-22 53.5t22 53t54 22q31 0 53 -21.5t22 -53.5t-22 -54t-53 -22z" />
    <glyph glyph-name="Ccaron" unicode="&#x10c;" horiz-adv-x="750" 
d="M384 -16q-93 0 -167.5 40.5t-117 115.5t-42.5 176q0 112 55.5 207.5t154 152t221.5 56.5q87 0 153.5 -32.5t105.5 -90.5l-107 -88q-31 41 -71.5 62t-98.5 21q-75 0 -138.5 -37.5t-101.5 -102t-38 -141.5q0 -63 26 -111t72.5 -74t105.5 -26q62 0 111 25t98 74l86 -97
q-68 -69 -139.5 -99.5t-167.5 -30.5zM340 904l1 8h121l31 -59h12l49 59h129l-1 -8l-132 -126h-119z" />
    <glyph glyph-name="ccaron" unicode="&#x10d;" horiz-adv-x="572" 
d="M274 -16q-70 0 -125.5 31.5t-86.5 86.5t-31 122q0 79 37.5 148.5t107.5 111.5t163 42q82 0 139.5 -39.5t78.5 -104.5l-122 -48q-13 33 -43.5 51.5t-70.5 18.5q-44 0 -80.5 -21.5t-57 -59.5t-20.5 -85q0 -59 35 -96t87 -37q46 0 79 19.5t51 54.5l111 -54
q-38 -69 -104 -105t-148 -36zM195 727l2 9h120l32 -59h12l48 59h130l-2 -9l-132 -125h-118z" />
    <glyph glyph-name="Dcaron" unicode="&#x10e;" horiz-adv-x="738" 
d="M163 716h227q104 0 177.5 -40t111 -110.5t37.5 -163.5q0 -109 -52 -201t-149.5 -146.5t-225.5 -54.5h-253zM295 128q84 0 149 33.5t100.5 92.5t35.5 133q0 98 -51 149.5t-153 51.5h-101l-82 -460h102zM254 904l1 8h121l31 -59h12l49 59h129l-1 -8l-132 -126h-119z" />
    <glyph glyph-name="dcaron" unicode="&#x10f;" horiz-adv-x="744" 
d="M237 -16q-59 0 -106.5 30.5t-74 84.5t-26.5 120q0 86 36.5 156t102 110.5t149.5 40.5q53 0 95.5 -23.5t57.5 -54.5h8l3 72l35 196h130l-126 -716h-123l11 61h-8q-24 -35 -65 -56t-99 -21zM286 105q42 0 78.5 21t59 61t22.5 94t-35.5 88.5t-88.5 34.5q-47 0 -83.5 -22.5
t-57 -62t-20.5 -88.5q0 -56 36 -91t89 -35zM703 716h138l-77 -201h-97z" />
    <glyph glyph-name="Dcroat" unicode="&#x110;" horiz-adv-x="730" 
d="M12 317l18 110h73l52 289h227q104 0 177.5 -40t111 -110.5t37.5 -163.5q0 -109 -52 -201t-149.5 -146.5t-225.5 -54.5h-253l55 317h-71zM287 128q84 0 149 33.5t100.5 92.5t35.5 133q0 98 -51 149.5t-153 51.5h-101l-29 -161h184l-19 -110h-185l-33 -189h102z" />
    <glyph glyph-name="dcroat" unicode="&#x111;" horiz-adv-x="630" 
d="M237 -16q-59 0 -106.5 30.5t-74 84.5t-26.5 120q0 86 36.5 156t102 110.5t149.5 40.5q53 0 95.5 -23.5t57.5 -54.5h8l3 72l9 51h-139l17 91h137l11 54h130l-10 -54h61l-17 -91h-59l-101 -571h-123l11 61h-8q-24 -35 -65 -56t-99 -21zM286 105q42 0 78.5 21t59 61t22.5 94
t-35.5 88.5t-88.5 34.5q-47 0 -83.5 -22.5t-57 -62t-20.5 -88.5q0 -56 36 -91t89 -35z" />
    <glyph glyph-name="Emacron" unicode="&#x112;" horiz-adv-x="593" 
d="M163 716h454l-23 -128h-319l-30 -166h288l-23 -128h-288l-29 -166h319l-22 -128h-454zM257 893h296l-18 -100h-296z" />
    <glyph glyph-name="emacron" unicode="&#x113;" horiz-adv-x="588" 
d="M271 -16q-71 0 -125 32.5t-83.5 88t-29.5 121.5q0 80 38 148.5t106.5 110t154.5 41.5q69 0 120 -30t78 -79t27 -106q0 -45 -13 -87h-383l-1 -11q1 -53 36.5 -83t85.5 -30q55 0 89 18.5t57 57.5l99 -52q-44 -70 -104 -105t-152 -35zM436 317v4q0 40 -32 69t-84 29
q-51 0 -89.5 -30t-53.5 -72h259zM219 729h296l-17 -100h-297z" />
    <glyph glyph-name="Ebreve" unicode="&#x114;" horiz-adv-x="593" 
d="M163 716h454l-23 -128h-319l-30 -166h288l-23 -128h-288l-29 -166h319l-22 -128h-454zM386 763q-50 0 -84.5 32t-34.5 81q0 13 2 23h92q-1 -4 -1 -9q0 -16 10 -26.5t28 -10.5q19 0 33 13t18 33h92q-10 -66 -51 -101t-104 -35z" />
    <glyph glyph-name="ebreve" unicode="&#x115;" horiz-adv-x="588" 
d="M271 -16q-71 0 -125 32.5t-83.5 88t-29.5 121.5q0 80 38 148.5t106.5 110t154.5 41.5q69 0 120 -30t78 -79t27 -106q0 -45 -13 -87h-383l-1 -11q1 -53 36.5 -83t85.5 -30q55 0 89 18.5t57 57.5l99 -52q-44 -70 -104 -105t-152 -35zM436 317v4q0 40 -32 69t-84 29
q-51 0 -89.5 -30t-53.5 -72h259zM347 599q-50 0 -84.5 31.5t-34.5 80.5q0 5 2 23h93q-1 -4 -1 -9q0 -15 9.5 -25.5t27.5 -10.5q20 0 34 12.5t17 32.5h92q-10 -66 -51 -100.5t-104 -34.5z" />
    <glyph glyph-name="Edotaccent" unicode="&#x116;" horiz-adv-x="593" 
d="M163 716h454l-23 -128h-319l-30 -166h288l-23 -128h-288l-29 -166h319l-22 -128h-454zM398 785q-28 0 -49 21t-21 50t20.5 50t49.5 21q30 0 50.5 -21t20.5 -50t-20.5 -50t-50.5 -21z" />
    <glyph glyph-name="edotaccent" unicode="&#x117;" horiz-adv-x="588" 
d="M271 -16q-71 0 -125 32.5t-83.5 88t-29.5 121.5q0 80 38 148.5t106.5 110t154.5 41.5q69 0 120 -30t78 -79t27 -106q0 -45 -13 -87h-383l-1 -11q1 -53 36.5 -83t85.5 -30q55 0 89 18.5t57 57.5l99 -52q-44 -70 -104 -105t-152 -35zM436 317v4q0 40 -32 69t-84 29
q-51 0 -89.5 -30t-53.5 -72h259zM358 595q-32 0 -54 22.5t-22 53.5t22 53t54 22q31 0 53 -21.5t22 -53.5t-22 -54t-53 -22z" />
    <glyph glyph-name="Eogonek" unicode="&#x118;" horiz-adv-x="593" 
d="M275 588l-30 -166h288l-23 -128h-288l-29 -166h319l-22 -128q-34 -19 -59.5 -45t-25.5 -52q0 -15 9 -23.5t24 -8.5q18 0 42 11l-17 -96q-30 -10 -60 -10q-53 0 -83.5 27t-30.5 70q0 40 22.5 72.5t61.5 54.5h-337l127 716h454l-23 -128h-319z" />
    <glyph glyph-name="eogonek" unicode="&#x119;" horiz-adv-x="588" 
d="M303 -224q-54 0 -85.5 27.5t-31.5 69.5q0 34 16 62.5t45 49.5q-64 5 -113 39t-75 87t-26 115q0 80 38 148.5t106.5 110t154.5 41.5q69 0 120 -30t78 -79t27 -106q0 -45 -13 -87h-383l-1 -11q1 -53 36.5 -83t85.5 -30q55 0 89 18.5t57 57.5l99 -52q-26 -42 -58 -71.5
t-74 -48.5q-40 -17 -67 -45t-27 -56q0 -15 9 -23.5t24 -8.5t30 7l11 -88q-31 -14 -72 -14zM436 317v4q0 40 -32 69t-84 29q-51 0 -89.5 -30t-53.5 -72h259z" />
    <glyph glyph-name="Ecaron" unicode="&#x11a;" horiz-adv-x="593" 
d="M163 716h454l-23 -128h-319l-30 -166h288l-23 -128h-288l-29 -166h319l-22 -128h-454zM238 904l1 8h121l31 -59h12l49 59h129l-1 -8l-132 -126h-119z" />
    <glyph glyph-name="ecaron" unicode="&#x11b;" horiz-adv-x="588" 
d="M271 -16q-71 0 -125 32.5t-83.5 88t-29.5 121.5q0 80 38 148.5t106.5 110t154.5 41.5q69 0 120 -30t78 -79t27 -106q0 -45 -13 -87h-383l-1 -11q1 -53 36.5 -83t85.5 -30q55 0 89 18.5t57 57.5l99 -52q-44 -70 -104 -105t-152 -35zM436 317v4q0 40 -32 69t-84 29
q-51 0 -89.5 -30t-53.5 -72h259zM199 727l2 9h120l32 -59h12l48 59h130l-2 -9l-132 -125h-118z" />
    <glyph glyph-name="Gcircumflex" unicode="&#x11c;" horiz-adv-x="826" 
d="M404 -16q-101 0 -179.5 43t-122.5 120.5t-44 176.5q0 108 54.5 202t153.5 150t225 56q88 0 157 -31t111 -86l-107 -91q-26 36 -71.5 58t-103.5 22q-78 0 -142.5 -34.5t-102.5 -97t-38 -142.5q0 -66 28.5 -115.5t77.5 -76t111 -26.5q101 0 167 57q46 40 69 109h-222
l21 115h350q1 -8 1 -21q0 -88 -32.5 -161.5t-89.5 -126.5q-54 -49 -123 -74.5t-148 -25.5zM326 786l132 126h119l91 -126l-1 -8h-121l-31 59h-12l-49 -59h-129z" />
    <glyph glyph-name="gcircumflex" unicode="&#x11d;" horiz-adv-x="624" 
d="M222 -232q-92 0 -151 42.5t-73 105.5l128 48q10 -38 38.5 -59t71.5 -21q136 0 160 139l8 47h-8q-25 -36 -62 -53t-92 -17q-59 0 -106 29t-74 80t-27 115q0 81 34 150t98 110.5t148 41.5q51 0 90.5 -18t58.5 -52h8l10 54h125l-86 -486q-23 -128 -95.5 -192t-203.5 -64z
M281 119q44 0 80.5 21.5t58 59.5t21.5 84q0 56 -34 89.5t-83 33.5q-44 0 -80 -21.5t-57 -60.5t-21 -88q0 -56 33 -87t82 -31zM171 610l132 126h119l91 -126l-2 -8h-120l-32 58h-12l-48 -58h-130z" />
    <glyph glyph-name="Gbreve" unicode="&#x11e;" horiz-adv-x="826" 
d="M404 -16q-101 0 -179.5 43t-122.5 120.5t-44 176.5q0 108 54.5 202t153.5 150t225 56q88 0 157 -31t111 -86l-107 -91q-26 36 -71.5 58t-103.5 22q-78 0 -142.5 -34.5t-102.5 -97t-38 -142.5q0 -66 28.5 -115.5t77.5 -76t111 -26.5q101 0 167 57q46 40 69 109h-222
l21 115h350q1 -8 1 -21q0 -88 -32.5 -161.5t-89.5 -126.5q-54 -49 -123 -74.5t-148 -25.5zM499 763q-50 0 -84.5 32t-34.5 81q0 13 2 23h92q-1 -4 -1 -9q0 -16 10 -26.5t28 -10.5q19 0 33 13t18 33h92q-10 -66 -51 -101t-104 -35z" />
    <glyph glyph-name="gbreve" unicode="&#x11f;" horiz-adv-x="624" 
d="M222 -232q-92 0 -151 42.5t-73 105.5l128 48q10 -38 38.5 -59t71.5 -21q136 0 160 139l8 47h-8q-25 -36 -62 -53t-92 -17q-59 0 -106 29t-74 80t-27 115q0 81 34 150t98 110.5t148 41.5q51 0 90.5 -18t58.5 -52h8l10 54h125l-86 -486q-23 -128 -95.5 -192t-203.5 -64z
M281 119q44 0 80.5 21.5t58 59.5t21.5 84q0 56 -34 89.5t-83 33.5q-44 0 -80 -21.5t-57 -60.5t-21 -88q0 -56 33 -87t82 -31zM344 599q-50 0 -84.5 31.5t-34.5 80.5q0 5 2 23h93q-1 -4 -1 -9q0 -15 9.5 -25.5t27.5 -10.5q20 0 34 12.5t17 32.5h92q-10 -66 -51 -100.5
t-104 -34.5z" />
    <glyph glyph-name="Gdotaccent" unicode="&#x120;" horiz-adv-x="826" 
d="M404 -16q-101 0 -179.5 43t-122.5 120.5t-44 176.5q0 108 54.5 202t153.5 150t225 56q88 0 157 -31t111 -86l-107 -91q-26 36 -71.5 58t-103.5 22q-78 0 -142.5 -34.5t-102.5 -97t-38 -142.5q0 -66 28.5 -115.5t77.5 -76t111 -26.5q101 0 167 57q46 40 69 109h-222
l21 115h350q1 -8 1 -21q0 -88 -32.5 -161.5t-89.5 -126.5q-54 -49 -123 -74.5t-148 -25.5zM511 785q-28 0 -49 21t-21 50t20.5 50t49.5 21q30 0 50.5 -21t20.5 -50t-20.5 -50t-50.5 -21z" />
    <glyph glyph-name="gdotaccent" unicode="&#x121;" horiz-adv-x="624" 
d="M222 -232q-92 0 -151 42.5t-73 105.5l128 48q10 -38 38.5 -59t71.5 -21q136 0 160 139l8 47h-8q-25 -36 -62 -53t-92 -17q-59 0 -106 29t-74 80t-27 115q0 81 34 150t98 110.5t148 41.5q51 0 90.5 -18t58.5 -52h8l10 54h125l-86 -486q-23 -128 -95.5 -192t-203.5 -64z
M281 119q44 0 80.5 21.5t58 59.5t21.5 84q0 56 -34 89.5t-83 33.5q-44 0 -80 -21.5t-57 -60.5t-21 -88q0 -56 33 -87t82 -31zM355 595q-32 0 -54 22.5t-22 53.5t22 53t54 22q31 0 53 -21.5t22 -53.5t-22 -54t-53 -22z" />
    <glyph glyph-name="uni0122" unicode="&#x122;" horiz-adv-x="826" 
d="M404 -16q-101 0 -179.5 43t-122.5 120.5t-44 176.5q0 108 54.5 202t153.5 150t225 56q88 0 157 -31t111 -86l-107 -91q-26 36 -71.5 58t-103.5 22q-78 0 -142.5 -34.5t-102.5 -97t-38 -142.5q0 -66 28.5 -115.5t77.5 -76t111 -26.5q101 0 167 57q46 40 69 109h-222
l21 115h350q1 -8 1 -21q0 -88 -32.5 -161.5t-89.5 -126.5q-54 -49 -123 -74.5t-148 -25.5zM351 -183q-20 8 -31.5 25t-11.5 39q0 29 20.5 50t50.5 21t50.5 -21t20.5 -51q0 -29 -19 -52l-94 -114l-44 37z" />
    <glyph glyph-name="uni0123" unicode="&#x123;" horiz-adv-x="624" 
d="M222 -232q-92 0 -151 42.5t-73 105.5l128 48q10 -38 38.5 -59t71.5 -21q136 0 160 139l8 47h-8q-25 -36 -62 -53t-92 -17q-59 0 -106 29t-74 80t-27 115q0 81 34 150t98 110.5t148 41.5q51 0 90.5 -18t58.5 -52h8l10 54h125l-86 -486q-23 -128 -95.5 -192t-203.5 -64z
M281 119q44 0 80.5 21.5t58 59.5t21.5 84q0 56 -34 89.5t-83 33.5q-44 0 -80 -21.5t-57 -60.5t-21 -88q0 -56 33 -87t82 -31zM382 727q20 -8 31.5 -25t11.5 -39q0 -29 -20.5 -50t-50.5 -21t-50.5 21t-20.5 51q0 29 19 52l94 114l44 -37z" />
    <glyph glyph-name="Hcircumflex" unicode="&#x124;" horiz-adv-x="734" 
d="M163 716h134l-51 -286h302l51 286h135l-127 -716h-135l54 302h-302l-54 -302h-134zM287 786l132 126h119l91 -126l-1 -8h-121l-31 59h-12l-49 -59h-129z" />
    <glyph glyph-name="hcircumflex" unicode="&#x125;" horiz-adv-x="600" 
d="M146 716h131l-33 -181l-23 -89h8q25 38 66 59t95 21q76 0 120 -44.5t44 -113.5q0 -33 -6 -65l-54 -303h-131l53 293q4 24 4 39q0 30 -22.5 51t-59.5 21q-57 0 -92.5 -38.5t-48.5 -111.5l-46 -254h-131zM50 774l132 126h119l91 -126l-2 -8h-120l-32 58h-12l-48 -58h-130z
" />
    <glyph glyph-name="Hbar" unicode="&#x126;" horiz-adv-x="734" 
d="M60 493l18 98h62l23 125h134l-22 -125h302l22 125h135l-22 -125h62l-17 -98h-63l-87 -493h-135l54 302h-302l-54 -302h-134l87 493h-63zM559 493h-302l-11 -63h302z" />
    <glyph glyph-name="hbar" unicode="&#x127;" horiz-adv-x="600" 
d="M121 571h-58l15 91h58l10 54h131l-11 -54h136l-16 -91h-135l-7 -36l-23 -89h8q25 38 66 59t95 21q76 0 120 -44.5t44 -113.5q0 -33 -6 -65l-54 -303h-131l53 293q4 24 4 39q0 30 -22.5 51t-59.5 21q-57 0 -92.5 -38.5t-48.5 -111.5l-46 -254h-131z" />
    <glyph glyph-name="Itilde" unicode="&#x128;" horiz-adv-x="298" 
d="M163 716h134l-127 -716h-134zM313 771q-20 0 -36.5 6.5t-40.5 19.5q-30 17 -45 17q-26 0 -33 -29h-92q8 63 42 95.5t86 32.5q20 0 36.5 -6.5t40.5 -19.5q30 -17 45 -17q26 0 33 29h92q-8 -63 -42 -95.5t-86 -32.5z" />
    <glyph glyph-name="itilde" unicode="&#x129;" horiz-adv-x="276" 
d="M118 510h130l-89 -510h-130zM273 607q-21 0 -38 6.5t-38 18.5q-31 18 -47 18q-25 0 -32 -29h-92q8 62 41.5 94.5t85.5 32.5q21 0 38 -7t39 -19q12 -7 24.5 -12t21.5 -5q26 0 32 29h92q-8 -62 -41.5 -94.5t-85.5 -32.5z" />
    <glyph glyph-name="Imacron" unicode="&#x12a;" horiz-adv-x="298" 
d="M124 893h274l-17 -100h-275zM163 716h134l-127 -716h-134z" />
    <glyph glyph-name="imacron" unicode="&#x12b;" horiz-adv-x="276" 
d="M118 510h130l-89 -510h-130zM73 729h296l-17 -100h-297z" />
    <glyph glyph-name="Ibreve" unicode="&#x12c;" horiz-adv-x="298" 
d="M163 716h134l-127 -716h-134zM244 763q-50 0 -84.5 32t-34.5 81q0 13 2 23h92q-1 -4 -1 -9q0 -16 10 -26.5t28 -10.5q19 0 33 13t18 33h92q-10 -66 -51 -101t-104 -35z" />
    <glyph glyph-name="ibreve" unicode="&#x12d;" horiz-adv-x="276" 
d="M118 510h130l-89 -510h-130zM201 599q-50 0 -84.5 31.5t-34.5 80.5q0 5 2 23h93q-1 -4 -1 -9q0 -15 9.5 -25.5t27.5 -10.5q20 0 34 12.5t17 32.5h92q-10 -66 -51 -100.5t-104 -34.5z" />
    <glyph glyph-name="Iogonek" unicode="&#x12e;" horiz-adv-x="298" 
d="M84 -224q-54 0 -84.5 27t-30.5 70q0 37 21 68.5t56 53.5l-1 5h-9l127 716h134l-127 -716q-34 -19 -59.5 -45t-25.5 -52q0 -15 9 -23.5t24 -8.5q18 0 42 11l-17 -96q-29 -10 -59 -10z" />
    <glyph glyph-name="iogonek" unicode="&#x12f;" horiz-adv-x="276" 
d="M208 566q-35 0 -60 25t-25 60t25 59.5t60 24.5t59.5 -24.5t24.5 -59.5t-24.5 -60t-59.5 -25zM72 -224q-54 0 -84 27t-30 70q0 37 19 67.5t54 52.5l-3 7l89 510h131l-89 -510q-34 -19 -60 -45t-26 -52q0 -15 9 -23.5t24 -8.5q19 0 43 11l-17 -96q-30 -10 -60 -10z" />
    <glyph glyph-name="Idotaccent" unicode="&#x130;" horiz-adv-x="298" 
d="M163 716h134l-127 -716h-134zM256 785q-28 0 -49 21t-21 50t20.5 50t49.5 21q30 0 50.5 -21t20.5 -50t-20.5 -50t-50.5 -21z" />
    <glyph glyph-name="dotlessi" unicode="&#x131;" horiz-adv-x="276" 
d="M118 510h130l-89 -510h-130z" />
    <glyph glyph-name="IJ" unicode="&#x132;" horiz-adv-x="825" 
d="M695 711h143l-83 -492q-14 -103 -85.5 -167t-176.5 -62q-102 2 -156.5 60.5t-50.5 159.5h143q-2 -41 11.5 -71t59.5 -31q48 -1 76 32t35 76zM285 711l-123 -711h-143l123 711h143z" />
    <glyph glyph-name="ij" unicode="&#x133;" horiz-adv-x="509" 
d="M372 663q-1 33 20.5 54t54.5 22q32 0 54.5 -19.5t23.5 -52.5q0 -33 -22 -54t-54 -21t-54.5 19.5t-22.5 51.5zM358 528h139l-95 -557q-11 -83 -61 -134.5t-138 -51.5q-34 1 -74 9l11 113q26 -6 43 -6q67 -1 80 72zM116 663q-1 33 21 54t55 22q32 0 54.5 -19.5t23.5 -52.5
q0 -33 -21.5 -54t-54.5 -21q-32 -1 -55 18.5t-23 52.5zM239 528l-92 -528h-138l92 528h138z" />
    <glyph glyph-name="Jcircumflex" unicode="&#x134;" horiz-adv-x="569" 
d="M232 -16q-55 0 -102 22t-78 61.5t-37 89.5l129 50q5 -46 33 -70.5t70 -24.5q45 0 75.5 30t40.5 84l86 490h135l-87 -489q-22 -124 -92 -183.5t-173 -59.5zM356 786l132 126h119l91 -126l-1 -8h-121l-31 59h-12l-49 -59h-129z" />
    <glyph glyph-name="jcircumflex" unicode="&#x135;" horiz-adv-x="277" 
d="M-39 -226q-18 0 -38.5 2.5t-32.5 6.5l22 122q20 -11 50 -11q26 0 39 14t18 42l99 560h130l-99 -564q-18 -99 -64 -135.5t-124 -36.5zM28 610l132 126h119l91 -126l-2 -8h-120l-32 58h-12l-48 -58h-130z" />
    <glyph glyph-name="uni0136" unicode="&#x136;" horiz-adv-x="683" 
d="M163 716h134l-53 -303h8l311 303h168l-2 -8l-312 -298l212 -402l-1 -8h-158l-161 307l-101 -97l-38 -210h-134zM275 -183q-20 8 -31.5 25t-11.5 39q0 29 20.5 50t50.5 21t50.5 -21t20.5 -51q0 -29 -19 -52l-94 -114l-44 37z" />
    <glyph glyph-name="uni0137" unicode="&#x137;" horiz-adv-x="561" 
d="M147 716h131l-67 -385h7l206 179h169l-2 -8l-231 -194l150 -300l-1 -8h-149l-105 222l-75 -63l-28 -159h-131zM214 -183q-20 8 -31.5 25t-11.5 39q0 29 20.5 50t50.5 21t50.5 -21t20.5 -51q0 -29 -19 -52l-94 -114l-44 37z" />
    <glyph glyph-name="kgreenlandic" unicode="&#x138;" horiz-adv-x="541" 
d="M111 510h131l-39 -219h8l203 219h157l-2 -8l-228 -240l149 -254l-1 -8h-148l-138 244h-8l-44 -244h-130z" />
    <glyph glyph-name="Lacute" unicode="&#x139;" horiz-adv-x="550" 
d="M163 716h134l-104 -588h303l-22 -128h-438zM253 908h154l-114 -136h-106z" />
    <glyph glyph-name="lacute" unicode="&#x13a;" horiz-adv-x="260" 
d="M146 716h131l-126 -716h-131zM235 908h153l-113 -136h-106z" />
    <glyph glyph-name="uni013B" unicode="&#x13b;" horiz-adv-x="550" 
d="M163 716h134l-104 -588h303l-22 -128h-438zM229 -183q-20 8 -31.5 25t-11.5 39q0 29 20.5 50t50.5 21t50.5 -21t20.5 -51q0 -29 -19 -52l-94 -114l-44 37z" />
    <glyph glyph-name="uni013C" unicode="&#x13c;" horiz-adv-x="260" 
d="M146 716h131l-126 -716h-131zM39 -183q-20 8 -31.5 25t-11.5 39q0 29 20.5 50t50.5 21t50.5 -21t20.5 -51q0 -29 -19 -52l-94 -114l-44 37z" />
    <glyph glyph-name="Lcaron" unicode="&#x13d;" horiz-adv-x="550" 
d="M163 716h134l-104 -588h303l-22 -128h-438zM432 716h138l-77 -201h-97z" />
    <glyph glyph-name="lcaron" unicode="&#x13e;" horiz-adv-x="402" 
d="M146 716h131l-126 -716h-131zM341 716h138l-77 -201h-97z" />
    <glyph glyph-name="Ldot" unicode="&#x13f;" horiz-adv-x="550" 
d="M163 716h134l-104 -588h303l-22 -128h-438zM410 257q-36 0 -61.5 25.5t-25.5 61.5t25.5 61.5t61.5 25.5t61.5 -25.5t25.5 -61.5t-25.5 -61.5t-61.5 -25.5z" />
    <glyph glyph-name="ldot" unicode="&#x140;" horiz-adv-x="364" 
d="M257 375q-1 31 19 50t50 20q29 0 50 -18t22 -48q0 -30 -19.5 -49t-48.5 -20q-29 0 -50.5 17.5t-22.5 47.5zM277 750l-130 -750h-138l130 750h138z" />
    <glyph glyph-name="Lslash" unicode="&#x141;" horiz-adv-x="623" 
d="M93 214l-49 91l132 74l60 337h134l-44 -250l121 68l49 -88l-193 -109l-37 -209h303l-22 -128h-438l43 247z" />
    <glyph glyph-name="lslash" unicode="&#x142;" horiz-adv-x="419" 
d="M144 272l-52 -33l-54 85l130 84l55 308h131l-39 -216l67 44l56 -86l-147 -95l-64 -363h-131z" />
    <glyph glyph-name="Nacute" unicode="&#x143;" horiz-adv-x="742" 
d="M163 716h149l211 -480h8l16 138l61 342h133l-127 -716h-133l-222 507h-8l-16 -138l-66 -369h-133zM473 908h154l-114 -136h-106z" />
    <glyph glyph-name="nacute" unicode="&#x144;" horiz-adv-x="600" 
d="M229 446q26 38 67.5 59t95.5 21q78 0 120 -44t42 -112q0 -34 -5 -62l-55 -308h-131l52 293q4 22 4 38q0 31 -22 52t-58 21q-58 0 -94 -38.5t-48 -105.5l-46 -260h-131l90 510h122l-11 -64h8zM389 744h153l-113 -136h-106z" />
    <glyph glyph-name="uni0145" unicode="&#x145;" horiz-adv-x="742" 
d="M163 716h149l211 -480h8l16 138l61 342h133l-127 -716h-133l-222 507h-8l-16 -138l-66 -369h-133zM281 -183q-20 8 -31.5 25t-11.5 39q0 29 20.5 50t50.5 21t50.5 -21t20.5 -51q0 -29 -19 -52l-94 -114l-44 37z" />
    <glyph glyph-name="uni0146" unicode="&#x146;" horiz-adv-x="600" 
d="M229 446q26 38 67.5 59t95.5 21q78 0 120 -44t42 -112q0 -34 -5 -62l-55 -308h-131l52 293q4 22 4 38q0 31 -22 52t-58 21q-58 0 -94 -38.5t-48 -105.5l-46 -260h-131l90 510h122l-11 -64h8zM212 -183q-20 8 -31.5 25t-11.5 39q0 29 20.5 50t50.5 21t50.5 -21t20.5 -51
q0 -29 -19 -52l-94 -114l-44 37z" />
    <glyph glyph-name="Ncaron" unicode="&#x147;" horiz-adv-x="742" 
d="M163 716h149l211 -480h8l16 138l61 342h133l-127 -716h-133l-222 507h-8l-16 -138l-66 -369h-133zM315 904l1 8h121l31 -59h12l49 59h129l-1 -8l-132 -126h-119z" />
    <glyph glyph-name="ncaron" unicode="&#x148;" horiz-adv-x="600" 
d="M229 446q26 38 67.5 59t95.5 21q78 0 120 -44t42 -112q0 -34 -5 -62l-55 -308h-131l52 293q4 22 4 38q0 31 -22 52t-58 21q-58 0 -94 -38.5t-48 -105.5l-46 -260h-131l90 510h122l-11 -64h8zM229 727l2 9h120l32 -59h12l48 59h130l-2 -9l-132 -125h-118z" />
    <glyph glyph-name="napostrophe" unicode="&#x149;" horiz-adv-x="543" 
d="M158 751l-2 -28q-7 -103 -90 -180l-69 40q43 61 55 117l10 50zM299 424q-54 2 -97 -50l-66 -374h-137l91 528l128 1l-10 -62q65 73 153 71q87 -1 115.5 -63t21.5 -139l-56 -336h-138l56 338q4 38 -7.5 62t-53.5 24z" />
    <glyph glyph-name="Eng" unicode="&#x14a;" horiz-adv-x="742" 
d="M412 -226q-37 0 -65 7l22 126q23 -13 48 -13q24 0 37.5 14.5t18.5 44.5l9 48l-223 506h-8l-16 -138l-66 -369h-133l127 716h151l210 -470h8l17 138l59 332h133l-135 -766q-16 -90 -69.5 -133t-124.5 -43z" />
    <glyph glyph-name="eng" unicode="&#x14b;" horiz-adv-x="600" 
d="M297 -226q-40 0 -71 9l22 122q20 -11 51 -11q25 0 38 14t18 42l60 343q4 22 4 38q0 31 -22 52t-58 21q-58 0 -94 -38.5t-48 -105.5l-46 -260h-131l90 510h122l-11 -64h8q26 38 67.5 59t95.5 21q78 0 120 -44t42 -112q0 -34 -5 -62l-64 -362q-18 -99 -64 -135.5
t-124 -36.5z" />
    <glyph glyph-name="Omacron" unicode="&#x14c;" horiz-adv-x="840" 
d="M396 -16q-96 0 -173.5 41.5t-121.5 117.5t-44 174q0 112 53.5 207t150.5 151.5t220 56.5q98 0 175 -43t120 -119t43 -171q0 -112 -53.5 -207t-150 -151.5t-219.5 -56.5zM407 112q77 0 140 38t99.5 103.5t36.5 143.5q0 60 -28 107t-77 73.5t-109 26.5q-77 0 -140 -38
t-99.5 -102.5t-36.5 -141.5q0 -61 28 -109t77 -74.5t109 -26.5zM370 893h296l-18 -100h-296z" />
    <glyph glyph-name="omacron" unicode="&#x14d;" horiz-adv-x="609" 
d="M272 -16q-71 0 -125.5 31.5t-84.5 85.5t-30 121q0 85 38 154.5t107 109.5t159 40q71 0 125.5 -31.5t84.5 -85.5t30 -121q0 -85 -38 -154.5t-107 -109.5t-159 -40zM287 105q43 0 79 22t57 61t21 86q0 57 -33 93.5t-90 36.5q-43 0 -79 -22t-57 -60.5t-21 -85.5
q0 -58 33 -94.5t90 -36.5zM228 729h296l-17 -100h-297z" />
    <glyph glyph-name="Obreve" unicode="&#x14e;" horiz-adv-x="840" 
d="M396 -16q-96 0 -173.5 41.5t-121.5 117.5t-44 174q0 112 53.5 207t150.5 151.5t220 56.5q98 0 175 -43t120 -119t43 -171q0 -112 -53.5 -207t-150 -151.5t-219.5 -56.5zM407 112q77 0 140 38t99.5 103.5t36.5 143.5q0 60 -28 107t-77 73.5t-109 26.5q-77 0 -140 -38
t-99.5 -102.5t-36.5 -141.5q0 -61 28 -109t77 -74.5t109 -26.5zM499 763q-50 0 -84.5 32t-34.5 81q0 13 2 23h92q-1 -4 -1 -9q0 -16 10 -26.5t28 -10.5q19 0 33 13t18 33h92q-10 -66 -51 -101t-104 -35z" />
    <glyph glyph-name="obreve" unicode="&#x14f;" horiz-adv-x="609" 
d="M272 -16q-71 0 -125.5 31.5t-84.5 85.5t-30 121q0 85 38 154.5t107 109.5t159 40q71 0 125.5 -31.5t84.5 -85.5t30 -121q0 -85 -38 -154.5t-107 -109.5t-159 -40zM287 105q43 0 79 22t57 61t21 86q0 57 -33 93.5t-90 36.5q-43 0 -79 -22t-57 -60.5t-21 -85.5
q0 -58 33 -94.5t90 -36.5zM356 599q-50 0 -84.5 31.5t-34.5 80.5q0 5 2 23h93q-1 -4 -1 -9q0 -15 9.5 -25.5t27.5 -10.5q20 0 34 12.5t17 32.5h92q-10 -66 -51 -100.5t-104 -34.5z" />
    <glyph glyph-name="Ohungarumlaut" unicode="&#x150;" horiz-adv-x="840" 
d="M396 -16q-96 0 -173.5 41.5t-121.5 117.5t-44 174q0 112 53.5 207t150.5 151.5t220 56.5q98 0 175 -43t120 -119t43 -171q0 -112 -53.5 -207t-150 -151.5t-219.5 -56.5zM407 112q77 0 140 38t99.5 103.5t36.5 143.5q0 60 -28 107t-77 73.5t-109 26.5q-77 0 -140 -38
t-99.5 -102.5t-36.5 -141.5q0 -61 28 -109t77 -74.5t109 -26.5zM410 908h154l-114 -136h-106zM608 908h154l-114 -136h-106z" />
    <glyph glyph-name="ohungarumlaut" unicode="&#x151;" horiz-adv-x="609" 
d="M272 -16q-71 0 -125.5 31.5t-84.5 85.5t-30 121q0 85 38 154.5t107 109.5t159 40q71 0 125.5 -31.5t84.5 -85.5t30 -121q0 -85 -38 -154.5t-107 -109.5t-159 -40zM287 105q43 0 79 22t57 61t21 86q0 57 -33 93.5t-90 36.5q-43 0 -79 -22t-57 -60.5t-21 -85.5
q0 -58 33 -94.5t90 -36.5zM268 744h154l-114 -136h-106zM467 744h154l-114 -136h-106z" />
    <glyph glyph-name="OE" unicode="&#x152;" horiz-adv-x="1160" 
d="M383 -16q-91 0 -165.5 42t-118 118t-43.5 173q0 111 54 206.5t150.5 152t217.5 56.5q76 0 134.5 -25t95.5 -70h7l15 79h454l-23 -128h-319l-30 -166h288l-23 -128h-288l-29 -166h319l-22 -128h-454l12 69h-6q-41 -41 -98.5 -63t-127.5 -22zM404 112q78 0 140 37t97 100.5
t35 139.5q0 64 -27 113t-75 75.5t-109 26.5q-76 0 -138.5 -37.5t-98.5 -102.5t-36 -144q0 -60 28.5 -107.5t77 -74t106.5 -26.5z" />
    <glyph glyph-name="oe" unicode="&#x153;" horiz-adv-x="1000" 
d="M274 -16q-72 0 -127 31.5t-85 85.5t-30 121q0 85 38.5 154.5t108 109.5t158.5 40q59 0 108 -25t80 -68q41 44 96.5 68.5t120.5 24.5q70 0 121.5 -30t78.5 -79.5t27 -105.5q0 -50 -14 -87h-383v-11q1 -53 36 -83t86 -30q55 0 89 18.5t57 57.5l98 -52q-43 -70 -103.5 -105
t-150.5 -35q-61 0 -109.5 24t-80.5 67q-40 -43 -96 -67t-124 -24zM847 317v4q0 41 -33 69.5t-82 28.5q-52 0 -90.5 -30t-53.5 -72h259zM288 105q43 0 79.5 22t58 61t21.5 86q0 57 -33.5 93.5t-90.5 36.5q-43 0 -79.5 -22t-58 -60.5t-21.5 -85.5q0 -57 33.5 -94t90.5 -37z
" />
    <glyph glyph-name="Racute" unicode="&#x154;" horiz-adv-x="634" 
d="M163 716h235q67 0 119 -26.5t80.5 -72t28.5 -100.5q0 -59 -25 -107.5t-68 -80.5t-95 -44l-3 -7l140 -270l-1 -8h-147l-138 269h-71l-48 -269h-134zM365 393q56 0 90.5 28.5t34.5 82.5q0 39 -26.5 63t-70.5 24h-118l-35 -198h125zM387 908h154l-114 -136h-106z" />
    <glyph glyph-name="racute" unicode="&#x155;" horiz-adv-x="427" 
d="M110 510h122l-11 -62h8q23 36 66 56.5t95 20.5q37 0 61 -11l-23 -134q-15 10 -36.5 16t-42.5 6q-59 0 -100.5 -42t-53.5 -106l-44 -254h-131zM307 744h153l-113 -136h-106z" />
    <glyph glyph-name="uni0156" unicode="&#x156;" horiz-adv-x="634" 
d="M163 716h235q67 0 119 -26.5t80.5 -72t28.5 -100.5q0 -59 -25 -107.5t-68 -80.5t-95 -44l-3 -7l140 -270l-1 -8h-147l-138 269h-71l-48 -269h-134zM365 393q56 0 90.5 28.5t34.5 82.5q0 39 -26.5 63t-70.5 24h-118l-35 -198h125zM250 -183q-20 8 -31.5 25t-11.5 39
q0 29 20.5 50t50.5 21t50.5 -21t20.5 -51q0 -29 -19 -52l-94 -114l-44 37z" />
    <glyph glyph-name="uni0157" unicode="&#x157;" horiz-adv-x="427" 
d="M110 510h122l-11 -62h8q23 36 66 56.5t95 20.5q37 0 61 -11l-23 -134q-15 10 -36.5 16t-42.5 6q-59 0 -100.5 -42t-53.5 -106l-44 -254h-131zM39 -183q-20 8 -31.5 25t-11.5 39q0 29 20.5 50t50.5 21t50.5 -21t20.5 -51q0 -29 -19 -52l-94 -114l-44 37z" />
    <glyph glyph-name="Rcaron" unicode="&#x158;" horiz-adv-x="634" 
d="M163 716h235q67 0 119 -26.5t80.5 -72t28.5 -100.5q0 -59 -25 -107.5t-68 -80.5t-95 -44l-3 -7l140 -270l-1 -8h-147l-138 269h-71l-48 -269h-134zM365 393q56 0 90.5 28.5t34.5 82.5q0 39 -26.5 63t-70.5 24h-118l-35 -198h125zM229 904l1 8h121l31 -59h12l49 59h129
l-1 -8l-132 -126h-119z" />
    <glyph glyph-name="rcaron" unicode="&#x159;" horiz-adv-x="427" 
d="M110 510h122l-11 -62h8q23 36 66 56.5t95 20.5q37 0 61 -11l-23 -134q-15 10 -36.5 16t-42.5 6q-59 0 -100.5 -42t-53.5 -106l-44 -254h-131zM147 727l2 9h120l32 -59h12l48 59h130l-2 -9l-132 -125h-118z" />
    <glyph glyph-name="Sacute" unicode="&#x15a;" horiz-adv-x="590" 
d="M262 -16q-92 0 -158 52.5t-83 150.5l129 52q5 -56 38 -91.5t89 -35.5q52 0 87.5 26t35.5 69q0 37 -26 62t-89 50l-35 14q-65 25 -106 71.5t-41 118.5q0 59 33.5 107t91.5 75t129 27q68 0 115 -23.5t71.5 -58.5t31.5 -71l-124 -47q-8 35 -34.5 55.5t-72.5 20.5
q-44 0 -75 -21.5t-31 -58.5q0 -32 23.5 -54t76.5 -41l41 -15q76 -29 116.5 -76t40.5 -120q0 -69 -34.5 -123t-96.5 -84.5t-143 -30.5zM382 908h154l-114 -136h-106z" />
    <glyph glyph-name="sacute" unicode="&#x15b;" horiz-adv-x="498" 
d="M227 -16q-87 0 -145.5 39.5t-75.5 100.5l121 49q8 -36 38.5 -55t71.5 -19q34 0 57.5 14.5t23.5 39.5q0 44 -70 60l-50 12q-57 13 -97 50t-40 92q0 72 59.5 115.5t158.5 43.5q75 0 125.5 -30t73.5 -88l-120 -44q-9 27 -33.5 41.5t-55.5 14.5q-37 0 -57.5 -13.5
t-20.5 -32.5q0 -16 16.5 -29.5t41.5 -19.5l73 -18q60 -15 94.5 -54t34.5 -89q0 -54 -27.5 -94.5t-78 -63t-118.5 -22.5zM311 744h153l-113 -136h-106z" />
    <glyph glyph-name="Scircumflex" unicode="&#x15c;" horiz-adv-x="590" 
d="M262 -16q-92 0 -158 52.5t-83 150.5l129 52q5 -56 38 -91.5t89 -35.5q52 0 87.5 26t35.5 69q0 37 -26 62t-89 50l-35 14q-65 25 -106 71.5t-41 118.5q0 59 33.5 107t91.5 75t129 27q68 0 115 -23.5t71.5 -58.5t31.5 -71l-124 -47q-8 35 -34.5 55.5t-72.5 20.5
q-44 0 -75 -21.5t-31 -58.5q0 -32 23.5 -54t76.5 -41l41 -15q76 -29 116.5 -76t40.5 -120q0 -69 -34.5 -123t-96.5 -84.5t-143 -30.5zM199 786l132 126h119l91 -126l-1 -8h-121l-31 59h-12l-49 -59h-129z" />
    <glyph glyph-name="scircumflex" unicode="&#x15d;" horiz-adv-x="498" 
d="M227 -16q-87 0 -145.5 39.5t-75.5 100.5l121 49q8 -36 38.5 -55t71.5 -19q34 0 57.5 14.5t23.5 39.5q0 44 -70 60l-50 12q-57 13 -97 50t-40 92q0 72 59.5 115.5t158.5 43.5q75 0 125.5 -30t73.5 -88l-120 -44q-9 27 -33.5 41.5t-55.5 14.5q-37 0 -57.5 -13.5
t-20.5 -32.5q0 -16 16.5 -29.5t41.5 -19.5l73 -18q60 -15 94.5 -54t34.5 -89q0 -54 -27.5 -94.5t-78 -63t-118.5 -22.5zM126 610l132 126h119l91 -126l-2 -8h-120l-32 58h-12l-48 -58h-130z" />
    <glyph glyph-name="Scedilla" unicode="&#x15e;" horiz-adv-x="590" 
d="M379 418q76 -29 116.5 -76t40.5 -120q0 -69 -34.5 -123t-96.5 -84.5t-143 -30.5l-19 -31q7 1 18 1q35 0 57 -24.5t22 -61.5q0 -48 -32.5 -76.5t-82.5 -28.5q-34 0 -62 19t-35 47l68 27q2 -12 11.5 -20t22.5 -8q15 0 25.5 9.5t10.5 25.5q0 14 -8.5 22.5t-21.5 8.5
q-14 0 -28 -14l-55 28l46 83q-69 16 -116.5 66t-61.5 130l129 52q5 -56 38 -91.5t89 -35.5q52 0 87.5 26t35.5 69q0 37 -26 62t-89 50l-35 14q-65 25 -106 71.5t-41 118.5q0 59 33.5 107t91.5 75t129 27q68 0 115 -23.5t71.5 -58.5t31.5 -71l-124 -47q-8 35 -34.5 55.5
t-72.5 20.5q-44 0 -75 -21.5t-31 -58.5q0 -32 23.5 -54t76.5 -41z" />
    <glyph glyph-name="scedilla" unicode="&#x15f;" horiz-adv-x="498" 
d="M322 307q60 -15 94.5 -54t34.5 -89q0 -81 -59.5 -130t-160.5 -50l-19 -31q7 1 18 1q35 0 57 -24.5t22 -61.5q0 -48 -32.5 -76.5t-82.5 -28.5q-34 0 -62 19t-35 47l68 27q2 -12 11.5 -20t22.5 -8q15 0 25.5 9.5t10.5 25.5q0 14 -8.5 22.5t-21.5 8.5q-14 0 -28 -14l-55 28
l45 82q-63 12 -105 48t-56 86l121 49q8 -36 38.5 -55t71.5 -19q34 0 57.5 14.5t23.5 39.5q0 44 -70 60l-50 12q-57 13 -97 50t-40 92q0 72 59.5 115.5t158.5 43.5q75 0 125.5 -30t73.5 -88l-120 -44q-9 27 -33.5 41.5t-55.5 14.5q-37 0 -57.5 -13.5t-20.5 -32.5
q0 -16 16.5 -29.5t41.5 -19.5z" />
    <glyph glyph-name="Scaron" unicode="&#x160;" horiz-adv-x="590" 
d="M262 -16q-92 0 -158 52.5t-83 150.5l129 52q5 -56 38 -91.5t89 -35.5q52 0 87.5 26t35.5 69q0 37 -26 62t-89 50l-35 14q-65 25 -106 71.5t-41 118.5q0 59 33.5 107t91.5 75t129 27q68 0 115 -23.5t71.5 -58.5t31.5 -71l-124 -47q-8 35 -34.5 55.5t-72.5 20.5
q-44 0 -75 -21.5t-31 -58.5q0 -32 23.5 -54t76.5 -41l41 -15q76 -29 116.5 -76t40.5 -120q0 -69 -34.5 -123t-96.5 -84.5t-143 -30.5zM224 904l1 8h121l31 -59h12l49 59h129l-1 -8l-132 -126h-119z" />
    <glyph glyph-name="scaron" unicode="&#x161;" horiz-adv-x="498" 
d="M227 -16q-87 0 -145.5 39.5t-75.5 100.5l121 49q8 -36 38.5 -55t71.5 -19q34 0 57.5 14.5t23.5 39.5q0 44 -70 60l-50 12q-57 13 -97 50t-40 92q0 72 59.5 115.5t158.5 43.5q75 0 125.5 -30t73.5 -88l-120 -44q-9 27 -33.5 41.5t-55.5 14.5q-37 0 -57.5 -13.5
t-20.5 -32.5q0 -16 16.5 -29.5t41.5 -19.5l73 -18q60 -15 94.5 -54t34.5 -89q0 -54 -27.5 -94.5t-78 -63t-118.5 -22.5zM151 727l2 9h120l32 -59h12l48 59h130l-2 -9l-132 -125h-118z" />
    <glyph glyph-name="uni0162" unicode="&#x162;" horiz-adv-x="588" 
d="M233 -237q-34 0 -62 19t-35 47l68 27q2 -12 11.5 -20t22.5 -8q15 0 25.5 9.5t10.5 25.5q0 14 -8 22.5t-22 8.5q-15 0 -27 -14l-56 28l52 92h-32l104 588h-200l23 128h534l-22 -128h-200l-105 -588h-34l-29 -47q7 1 18 1q34 0 56 -24.5t22 -61.5q0 -48 -32 -76.5
t-83 -28.5z" />
    <glyph glyph-name="uni0163" unicode="&#x163;" horiz-adv-x="418" 
d="M179 -237q-35 0 -63 19t-34 47l68 27q2 -12 11 -20t22 -8q15 0 25.5 9.5t10.5 25.5q0 14 -8 22.5t-22 8.5q-15 0 -27 -14l-56 28l58 102q-64 34 -64 121q0 24 5 52l37 215h-88l19 112h89l26 144h130l-25 -144h125l-20 -112h-125l-37 -209q-3 -18 -3 -26q0 -21 14 -34.5
t37 -13.5q29 0 52 17l19 -117q-36 -23 -108 -23q-9 0 -25 2l-25 -41q7 1 18 1q35 0 57 -24.5t22 -61.5q0 -48 -32.5 -76.5t-82.5 -28.5z" />
    <glyph glyph-name="Tcaron" unicode="&#x164;" horiz-adv-x="588" 
d="M285 588h-200l23 128h534l-22 -128h-200l-105 -588h-134zM228 904l1 8h121l31 -59h12l49 59h129l-1 -8l-132 -126h-119z" />
    <glyph glyph-name="tcaron" unicode="&#x165;" horiz-adv-x="411" 
d="M386 716h118l-54 -152h-91zM242 -8q-66 0 -104.5 35.5t-38.5 103.5q0 19 5 52l37 215h-88l20 112h89l25 144h131l-25 -144h124l-20 -112h-125l-37 -209q-2 -11 -2 -24q0 -23 14 -36.5t37 -13.5q20 0 35.5 5.5t35.5 16.5l-22 -128q-42 -17 -91 -17z" />
    <glyph glyph-name="Tbar" unicode="&#x166;" horiz-adv-x="588" 
d="M237 321h-126l19 106h126l29 161h-200l23 128h534l-22 -128h-200l-29 -161h127l-19 -106h-127l-57 -321h-134z" />
    <glyph glyph-name="tbar" unicode="&#x167;" horiz-adv-x="418" 
d="M243 -8q-66 0 -105 35.5t-39 103.5q0 19 5 52l7 39h-86l17 100h87l13 76h-89l20 112h89l25 144h131l-25 -144h125l-21 -112h-124l-13 -76h106l-18 -100h-106l-6 -33q-3 -16 -3 -24q0 -23 14 -36.5t37 -13.5q21 0 36.5 5.5t34.5 16.5l-22 -128q-42 -17 -90 -17z" />
    <glyph glyph-name="Utilde" unicode="&#x168;" horiz-adv-x="694" 
d="M308 -16q-70 0 -124.5 29.5t-84.5 83t-30 123.5q0 36 9 84l72 412h135l-77 -435q-4 -25 -4 -47q0 -57 30.5 -89.5t91.5 -32.5q67 0 111 44.5t58 120.5l77 439h135l-79 -447q-25 -142 -107.5 -213.5t-212.5 -71.5zM504 771q-20 0 -36.5 6.5t-40.5 19.5q-30 17 -45 17
q-26 0 -33 -29h-92q8 63 42 95.5t86 32.5q20 0 36.5 -6.5t40.5 -19.5q30 -17 45 -17q26 0 33 29h92q-8 -63 -42 -95.5t-86 -32.5z" />
    <glyph glyph-name="utilde" unicode="&#x169;" horiz-adv-x="600" 
d="M371 64q-26 -39 -67.5 -59.5t-95.5 -20.5q-78 0 -120 44t-42 112q0 32 5 61l55 309h131l-52 -293q-4 -16 -4 -38q0 -32 22 -53t58 -21q58 0 94 38.5t48 106.5l46 260h131l-90 -510h-122l11 64h-8zM433 607q-21 0 -38 6.5t-38 18.5q-31 18 -47 18q-25 0 -32 -29h-92
q8 62 41.5 94.5t85.5 32.5q21 0 38 -7t39 -19q12 -7 24.5 -12t21.5 -5q26 0 32 29h92q-8 -62 -41.5 -94.5t-85.5 -32.5z" />
    <glyph glyph-name="Umacron" unicode="&#x16a;" horiz-adv-x="694" 
d="M308 -16q-70 0 -124.5 29.5t-84.5 83t-30 123.5q0 36 9 84l72 412h135l-77 -435q-4 -25 -4 -47q0 -57 30.5 -89.5t91.5 -32.5q67 0 111 44.5t58 120.5l77 439h135l-79 -447q-25 -142 -107.5 -213.5t-212.5 -71.5zM306 893h296l-18 -100h-296z" />
    <glyph glyph-name="umacron" unicode="&#x16b;" horiz-adv-x="600" 
d="M371 64q-26 -39 -67.5 -59.5t-95.5 -20.5q-78 0 -120 44t-42 112q0 32 5 61l55 309h131l-52 -293q-4 -16 -4 -38q0 -32 22 -53t58 -21q58 0 94 38.5t48 106.5l46 260h131l-90 -510h-122l11 64h-8zM233 729h296l-17 -100h-297z" />
    <glyph glyph-name="Ubreve" unicode="&#x16c;" horiz-adv-x="694" 
d="M308 -16q-70 0 -124.5 29.5t-84.5 83t-30 123.5q0 36 9 84l72 412h135l-77 -435q-4 -25 -4 -47q0 -57 30.5 -89.5t91.5 -32.5q67 0 111 44.5t58 120.5l77 439h135l-79 -447q-25 -142 -107.5 -213.5t-212.5 -71.5zM435 763q-50 0 -84.5 32t-34.5 81q0 13 2 23h92
q-1 -4 -1 -9q0 -16 10 -26.5t28 -10.5q19 0 33 13t18 33h92q-10 -66 -51 -101t-104 -35z" />
    <glyph glyph-name="ubreve" unicode="&#x16d;" horiz-adv-x="600" 
d="M371 64q-26 -39 -67.5 -59.5t-95.5 -20.5q-78 0 -120 44t-42 112q0 32 5 61l55 309h131l-52 -293q-4 -16 -4 -38q0 -32 22 -53t58 -21q58 0 94 38.5t48 106.5l46 260h131l-90 -510h-122l11 64h-8zM361 599q-50 0 -84.5 31.5t-34.5 80.5q0 5 2 23h93q-1 -4 -1 -9
q0 -15 9.5 -25.5t27.5 -10.5q20 0 34 12.5t17 32.5h92q-10 -66 -51 -100.5t-104 -34.5z" />
    <glyph glyph-name="Uring" unicode="&#x16e;" horiz-adv-x="694" 
d="M308 -16q-70 0 -124.5 29.5t-84.5 83t-30 123.5q0 36 9 84l72 412h135l-77 -435q-4 -25 -4 -47q0 -57 30.5 -89.5t91.5 -32.5q67 0 111 44.5t58 120.5l77 439h135l-79 -447q-25 -142 -107.5 -213.5t-212.5 -71.5zM447 748q-45 0 -76.5 31.5t-31.5 76.5t31.5 76.5
t76.5 31.5t76.5 -31.5t31.5 -76.5t-31.5 -76.5t-76.5 -31.5zM447 821q14 0 24.5 10.5t10.5 24.5t-10.5 24.5t-24.5 10.5t-24 -10.5t-10 -24.5t10 -24.5t24 -10.5z" />
    <glyph glyph-name="uring" unicode="&#x16f;" horiz-adv-x="600" 
d="M371 64q-26 -39 -67.5 -59.5t-95.5 -20.5q-78 0 -120 44t-42 112q0 32 5 61l55 309h131l-52 -293q-4 -16 -4 -38q0 -32 22 -53t58 -21q58 0 94 38.5t48 106.5l46 260h131l-90 -510h-122l11 64h-8zM375 584q-45 0 -76.5 31.5t-31.5 76.5t31.5 76.5t76.5 31.5t76.5 -31.5
t31.5 -76.5t-31.5 -76.5t-76.5 -31.5zM375 657q14 0 24 10.5t10 24.5t-10.5 24t-23.5 10q-14 0 -24.5 -10t-10.5 -24t10.5 -24.5t24.5 -10.5z" />
    <glyph glyph-name="Uhungarumlaut" unicode="&#x170;" horiz-adv-x="694" 
d="M308 -16q-70 0 -124.5 29.5t-84.5 83t-30 123.5q0 36 9 84l72 412h135l-77 -435q-4 -25 -4 -47q0 -57 30.5 -89.5t91.5 -32.5q67 0 111 44.5t58 120.5l77 439h135l-79 -447q-25 -142 -107.5 -213.5t-212.5 -71.5zM346 908h154l-114 -136h-106zM544 908h154l-114 -136
h-106z" />
    <glyph glyph-name="uhungarumlaut" unicode="&#x171;" horiz-adv-x="600" 
d="M371 64q-26 -39 -67.5 -59.5t-95.5 -20.5q-78 0 -120 44t-42 112q0 32 5 61l55 309h131l-52 -293q-4 -16 -4 -38q0 -32 22 -53t58 -21q58 0 94 38.5t48 106.5l46 260h131l-90 -510h-122l11 64h-8zM273 744h154l-114 -136h-106zM472 744h154l-114 -136h-106z" />
    <glyph glyph-name="Uogonek" unicode="&#x172;" horiz-adv-x="694" 
d="M334 -224q-54 0 -84.5 27t-30.5 70q0 33 17 62t45 50q-62 6 -110 36.5t-75 82t-27 116.5q0 29 9 84l72 412h135l-77 -435q-4 -20 -4 -47q0 -57 30.5 -89.5t91.5 -32.5q67 0 111.5 44.5t57.5 120.5l77 439h135l-79 -447q-19 -106 -68 -170.5t-118 -89.5q-51 -18 -79 -47
t-28 -59q0 -15 9 -23.5t24 -8.5q18 0 42 11l-17 -96q-29 -10 -59 -10z" />
    <glyph glyph-name="uogonek" unicode="&#x173;" horiz-adv-x="600" 
d="M404 -224q-54 0 -84.5 27t-30.5 70q0 38 21.5 68.5t59.5 51.5l-2 7l11 64h-8q-26 -39 -67.5 -59.5t-95.5 -20.5q-78 0 -120 44t-42 112q0 32 5 61l55 309h131l-52 -293q-4 -24 -4 -38q0 -32 22 -53t58 -21q58 0 94 39t48 106l46 260h131l-90 -510q-34 -19 -59.5 -45
t-25.5 -52q0 -15 9 -23.5t24 -8.5q18 0 42 11l-17 -96q-29 -10 -59 -10z" />
    <glyph glyph-name="Wcircumflex" unicode="&#x174;" horiz-adv-x="984" 
d="M99 716h150l26 -402l-1 -75h8l29 75l195 402h135l51 -402l3 -73h8l26 73l168 402h151l-308 -716h-146l-49 432l-2 77h-8l-30 -77l-201 -432h-139zM411 786l132 126h119l91 -126l-1 -8h-121l-31 59h-12l-49 -59h-129z" />
    <glyph glyph-name="wcircumflex" unicode="&#x175;" horiz-adv-x="834" 
d="M53 510h140l33 -331h7l160 331h138l46 -331h7l142 331h146l-248 -510h-144l-45 330h-7l-161 -330h-140zM299 610l132 126h119l91 -126l-2 -8h-120l-32 58h-12l-48 -58h-130z" />
    <glyph glyph-name="Ycircumflex" unicode="&#x176;" horiz-adv-x="642" 
d="M269 333l-173 383h156l102 -237h8l180 237h167l-305 -383l-59 -333h-135zM229 786l132 126h119l91 -126l-1 -8h-121l-31 59h-12l-49 -59h-129z" />
    <glyph glyph-name="ycircumflex" unicode="&#x177;" horiz-adv-x="579" 
d="M180 29l-127 481h146l77 -317h7l185 317h148l-444 -726h-143zM171 610l132 126h119l91 -126l-2 -8h-120l-32 58h-12l-48 -58h-130z" />
    <glyph glyph-name="Ydieresis" unicode="&#x178;" horiz-adv-x="642" 
d="M269 333l-173 383h156l102 -237h8l180 237h167l-305 -383l-59 -333h-135zM316 771q-30 0 -51 21.5t-21 50.5q0 30 21 51t51 21t50.5 -21t20.5 -51t-20.5 -51t-50.5 -21zM506 771q-29 0 -50 21.5t-21 50.5q0 30 21 51t50 21q31 0 51.5 -21t20.5 -51t-21 -51t-51 -21z" />
    <glyph glyph-name="Zacute" unicode="&#x179;" horiz-adv-x="609" 
d="M18 136l436 452h-341l23 128h504l-24 -136l-433 -452h357l-23 -128h-523zM397 908h154l-114 -136h-106z" />
    <glyph glyph-name="zacute" unicode="&#x17a;" horiz-adv-x="505" 
d="M325 399h-254l19 111h419l-19 -107l-314 -292h266l-20 -111h-429l19 107zM319 744h153l-113 -136h-106z" />
    <glyph glyph-name="Zdotaccent" unicode="&#x17b;" horiz-adv-x="609" 
d="M18 136l436 452h-341l23 128h504l-24 -136l-433 -452h357l-23 -128h-523zM399 785q-28 0 -49 21t-21 50t20.5 50t49.5 21q30 0 50.5 -21t20.5 -50t-20.5 -50t-50.5 -21z" />
    <glyph glyph-name="zdotaccent" unicode="&#x17c;" horiz-adv-x="505" 
d="M325 399h-254l19 111h419l-19 -107l-314 -292h266l-20 -111h-429l19 107zM318 595q-32 0 -54 22.5t-22 53.5t22 53t54 22q31 0 53 -21.5t22 -53.5t-22 -54t-53 -22z" />
    <glyph glyph-name="Zcaron" unicode="&#x17d;" horiz-adv-x="609" 
d="M18 136l436 452h-341l23 128h504l-24 -136l-433 -452h357l-23 -128h-523zM239 904l1 8h121l31 -59h12l49 59h129l-1 -8l-132 -126h-119z" />
    <glyph glyph-name="zcaron" unicode="&#x17e;" horiz-adv-x="505" 
d="M325 399h-254l19 111h419l-19 -107l-314 -292h266l-20 -111h-429l19 107zM159 727l2 9h120l32 -59h12l48 59h130l-2 -9l-132 -125h-118z" />
    <glyph glyph-name="longs" unicode="&#x17f;" horiz-adv-x="251" 
d="M142 0h-138l97 574q12 88 68 138.5t146 48.5q30 0 81 -11l-22 -108q-26 6 -45 6q-75 0 -89 -77z" />
    <glyph glyph-name="uni0180" unicode="&#x180;" horiz-adv-x="591" 
d="M188 57l-21 -57h-125l102 591h-82l16 89h81l12 70h139l-14 -70h114l-16 -89h-115l-22 -111q55 59 129 58q73 -1 111 -43q37 -42 49 -103q11 -61 5 -121l-1 -8q-22 -166 -113 -237q-49 -38 -123 -36q-82 2 -126 67zM245 369l-38 -210q18 -53 79 -55q44 -1 70 23t39 61
q12 36 17 72q4 41 4 75q0 35 -15 62q-15 26 -55 27q-60 2 -101 -55z" />
    <glyph glyph-name="uni0181" unicode="&#x181;" horiz-adv-x="762" 
d="M57 529q7 91 67 137t148 45l226 -1q154 0 215 -77q33 -42 29 -112q-4 -59 -38.5 -97.5t-86.5 -60.5q47 -17 68 -59.5t18 -90.5q-7 -114 -88 -163.5t-185 -49.5h-275l107 594q-40 -4 -63 -28.5t-28 -64.5v-20l1 -22l-112 1q-5 37 -3 69zM401 592l-31 -178l91 -1
q47 0 87 20t48 72q8 48 -18 67t-69 20h-108zM562 215q15 91 -75 95h-135l-34 -192h113q47 0 85 23.5t46 73.5z" />
    <glyph glyph-name="uni0182" unicode="&#x182;" horiz-adv-x="612" 
d="M478 64q-81 -64 -208 -64h-261l124 711h452l-21 -119h-308l-24 -137h104q99 -2 169 -58t62 -163q-8 -106 -89 -170zM375 148q41 31 49 87q7 47 -19 73t-72 28l-122 1l-38 -219l106 -1q55 0 96 31z" />
    <glyph glyph-name="uni0183" unicode="&#x183;" horiz-adv-x="545" 
d="M1 0l130 750h368l-16 -89h-229l-37 -181q55 59 129 58q73 -1 110.5 -43t48.5 -103.5t5 -120.5l-1 -8q-22 -166 -113 -237q-48 -38 -122 -36q-83 2 -127 67l-20 -57h-126zM305 424q-60 2 -101 -55l-37 -210q18 -53 78 -55q44 -1 70 23t38.5 60.5t17.5 72.5q4 41 4 75
q0 35 -15 61.5t-55 27.5z" />
    <glyph glyph-name="uni0184" unicode="&#x184;" horiz-adv-x="666" 
d="M626 234q-8 -106 -89 -170t-207 -64h-262l83 479l-72 85l11 67l95 80h150l-44 -256h104q99 -2 169 -58t62 -163zM232 118l105 -1q55 0 96.5 31t49.5 87q7 48 -19 73.5t-72 27.5l-121 1z" />
    <glyph glyph-name="uni0185" unicode="&#x185;" horiz-adv-x="607" 
d="M335 -10q-83 2 -127 67l-20 -57h-126l90 518l-73 85l12 67l95 80h144l-53 -270q55 59 130 58q73 -1 110.5 -43t48.5 -103t5 -121l-1 -8q-22 -166 -112 -237q-49 -38 -123 -36zM366 424q-60 2 -102 -56l-37 -208q18 -54 79 -56q44 -1 70 23t39 60.5t17 72.5l1 11
q3 29 3 64t-15 61.5t-55 27.5z" />
    <glyph glyph-name="uni0186" unicode="&#x186;" horiz-adv-x="635" 
d="M19 242h142q0 -59 23.5 -94.5t86.5 -38.5q63 -2 101 32t58 88t29 122t9 123q0 51 -21.5 88t-80.5 39q-65 2 -104.5 -31t-52.5 -95l-143 -1q14 118 103 183.5t204 63.5q96 -1 151 -51.5t74.5 -128.5t9.5 -162l-6 -46q-13 -89 -55 -168.5t-113 -128t-169 -46.5
q-117 2 -178.5 71t-67.5 181z" />
    <glyph glyph-name="uni0187" unicode="&#x187;" horiz-adv-x="700" 
d="M763 649q-41 1 -71.5 -16t-39.5 -60l-17 -103l-139 -1q0 59 -23.5 95t-87.5 38q-62 2 -100.5 -32t-58 -88t-29 -122t-9.5 -122q0 -51 21.5 -88.5t81.5 -39.5q65 -2 104.5 31t51.5 95l143 1q-14 -118 -103 -183.5t-203 -63.5q-96 1 -151.5 51.5t-75 128.5t-9.5 162l7 50
q13 89 55.5 167t113 126t168.5 47q106 -1 170 -54q62 103 179 103q33 0 73 -9l-12 -118q-22 4 -39 5z" />
    <glyph glyph-name="uni0188" unicode="&#x188;" horiz-adv-x="572" 
d="M598 489q-36 1 -62 -16t-34 -53l-15 -88l-126 -1q0 37 -15.5 64.5t-56.5 29.5q-45 1 -72.5 -26t-42 -79t-14.5 -128q0 -35 15 -61.5t55 -26.5q38 -1 64.5 20.5t33.5 57.5l130 1q-7 -90 -76 -142.5t-155 -50.5q-114 2 -163 82t-39 184l1 14q13 111 84 191t189 78
q77 -1 128 -39q51 88 149 88q27 0 64 -8l-9 -95q-18 4 -33 4z" />
    <glyph glyph-name="uni0189" unicode="&#x189;" horiz-adv-x="671" 
d="M533 661q62 -48 89 -124q27 -77 17 -166l-2 -20q-19 -155 -119 -252t-242 -99h-229l55 317h-87l16 89h86l53 305l205 -1q95 -2 158 -49zM420 180q53 61 68 151q14 80 7 141q-5 50 -33 84t-90 36h-79l-32 -186h103l-16 -89h-103l-34 -199h60q96 0 149 62z" />
    <glyph glyph-name="uni018A" unicode="&#x18a;" horiz-adv-x="775" 
d="M57 529q7 91 67.5 137t147.5 45l206 -1q97 0 160.5 -47t91.5 -124.5t18 -167.5l-5 -31q-21 -151 -122 -245.5t-243 -94.5h-223l107 594q-40 -4 -63 -28.5t-28 -64.5v-20l1 -22l-112 1q-5 37 -3 69zM480 592h-78l-83 -474h59q98 0 151.5 63.5t67.5 152.5q13 77 6 138
q-6 50 -34 84t-89 36z" />
    <glyph glyph-name="uni018B" unicode="&#x18b;" horiz-adv-x="607" 
d="M504 0h-247q-102 3 -170.5 60.5t-60.5 166.5q6 78 48.5 128.5t107 75.5t136.5 25l121 -1l25 137h-310l21 119h453zM381 118l38 219l-106 1q-52 0 -93.5 -28t-50.5 -82q-7 -48 18 -77.5t73 -31.5z" />
    <glyph glyph-name="uni018C" unicode="&#x18c;" horiz-adv-x="546" 
d="M189 661l16 89h368l-130 -750h-123l8 57q-60 -68 -138 -67q-70 1 -108 43.5t-50.5 103.5t-6.5 119l1 11q8 65 35.5 128t77 104t125.5 39q75 -2 119 -58l36 181h-230zM164 257q-3 -28 -2 -63t15.5 -61.5t53.5 -27.5q56 -2 101 54l37 212q-19 52 -76 54q-42 1 -69 -24
t-41 -62t-18 -72z" />
    <glyph glyph-name="uni018D" unicode="&#x18d;" horiz-adv-x="547" 
d="M373 -183h-374l20 113l195 1q-13 18 -32 35q-80 72 -125 155q-36 66 -29 146l1 11q13 111 86 187t190 73q106 -2 162 -71.5t48 -172.5l-1 -10q-10 -91 -70.5 -163.5t-154.5 -81.5l-24 -2q24 -39 60 -78l59 -67zM373 272q4 44 1 74q-3 32 -20.5 55t-57.5 24
q-62 2 -92.5 -45.5t-36.5 -102.5l-2 -9q-4 -42 5.5 -82.5t41.5 -68.5q16 -4 27 -4q66 -2 96.5 50.5t37.5 108.5z" />
    <glyph glyph-name="uni018E" unicode="&#x18e;" horiz-adv-x="545" 
d="M73 593l20 118h464l-123 -711h-463l21 119h319l29 169h-273l20 115h272l34 190h-320z" />
    <glyph glyph-name="uni018F" unicode="&#x18f;" horiz-adv-x="673" 
d="M290 -10q-97 1 -156 47.5t-82 122t-11 164.5l13 80l447 -1q14 82 -24.5 134.5t-123.5 54.5t-190 -30l-13 122q42 26 105 31.5t110 5.5q146 -1 221.5 -94.5t57.5 -235.5l-10 -73q-13 -87 -59 -162.5t-119 -121t-166 -44.5zM297 117q77 -2 121.5 51t67.5 118l-306 -1
l-3 -16q-13 -67 19 -109t101 -43z" />
    <glyph glyph-name="uni0190" unicode="&#x190;" horiz-adv-x="598" 
d="M316 420h93l-20 -115l-76 1q-55 0 -94.5 -25t-47.5 -84q-6 -50 27 -69.5t76 -20.5q44 0 82.5 21.5t46.5 68.5l143 1q-4 -72 -46 -118.5t-104.5 -68.5t-127.5 -21q-64 1 -121.5 21.5t-91.5 65.5t-29 118q4 68 45 109t102 64q-39 24 -60.5 61.5t-18.5 84.5q4 74 46 120
t105 67t129 20q91 -2 158 -54t66 -148h-141q1 42 -24 62t-65 21q-45 1 -85.5 -19.5t-48.5 -70.5q-7 -45 15.5 -68t66.5 -24z" />
    <glyph glyph-name="uni0191" unicode="&#x191;" horiz-adv-x="578" 
d="M610 592h-307l-32 -183h273l-21 -118h-272l-52 -308q-11 -87 -64 -142.5t-145 -55.5q-35 1 -73 9l19 120q22 -7 43 -7q64 -1 77 79l125 725h450z" />
    <glyph glyph-name="florin" unicode="&#x192;" horiz-adv-x="614" 
d="M521 597q-31 0 -53.5 -19t-29.5 -54l-21 -104h113v-112h-135l-72 -365q-14 -74 -60.5 -118.5t-123.5 -44.5q-45 0 -79 11v128q32 -16 66 -16q60 0 75 74l65 331h-93v112h115l22 109q17 92 71 141.5t139 49.5q36 0 65 -10v-127q-31 14 -64 14z" />
    <glyph glyph-name="uni0193" unicode="&#x193;" horiz-adv-x="702" 
d="M656 573l-15 -88l-136 -1q-4 53 -28.5 85t-80.5 35q-61 2 -100 -30.5t-61.5 -85t-30.5 -107.5q-14 -85 -9 -146q4 -52 30 -88.5t88 -37.5q72 -1 123 35l24 122h-129l19 108h272l-45 -285q-47 -58 -126.5 -79t-150.5 -20q-97 1 -155.5 50.5t-81 127.5t-11.5 166l6 42
q13 92 55 171t113 127.5t172 47.5q109 -1 170 -50q63 99 177 99q31 0 73 -9l-12 -117q-22 5 -39 5q-41 1 -71.5 -17t-39.5 -60z" />
    <glyph glyph-name="uni0194" unicode="&#x194;" horiz-adv-x="646" 
d="M425 -74q-4 -72 -57.5 -106.5t-118.5 -33.5q-61 1 -111 32.5t-46 99.5q2 42 28.5 89t59 91t54.5 78l-146 535h158l83 -367l210 367h172l-340 -541q12 -58 34.5 -121t19.5 -123zM242 -77q-1 -10 1 -21.5t16 -11.5q16 0 24.5 12.5t10.5 26.5q4 21 -1 45l-9 45l-26 -46
q-13 -25 -16 -50z" />
    <glyph glyph-name="uni0195" unicode="&#x195;" horiz-adv-x="826" 
d="M354 538q93 -1 123 -65t21 -145l-18 -120q-3 -32 3.5 -67t48.5 -37q44 -2 64.5 30.5t27.5 73.5l54 320h138l-54 -319q-14 -105 -71.5 -163t-167.5 -56q-103 2 -147.5 60.5t-33.5 158.5l17 120q5 39 -5 66t-55 29q-55 2 -96 -47l-67 -377h-138l130 750h138l-55 -280
q61 69 143 68z" />
    <glyph glyph-name="uni0196" unicode="&#x196;" horiz-adv-x="341" 
d="M277 750l-98 -575q-8 -68 50 -70q17 0 48 5l2 -110q-40 -9 -71 -9q-83 1 -128.5 51.5t-37.5 133.5l98 574h137z" />
    <glyph glyph-name="uni0197" unicode="&#x197;" horiz-adv-x="355" 
d="M346 317h-96l-55 -317h-143l55 317h-94l16 89h93l53 305h143l-53 -305h97z" />
    <glyph glyph-name="uni0198" unicode="&#x198;" horiz-adv-x="616" 
d="M409 0l-127 283l-94 -89l-34 -194h-144l124 711h143l-55 -319q75 89 170 200q36 44 77.5 87.5t106.5 43.5q50 -1 115 -34l-62 -105q-21 13 -37 14q-27 0 -48 -24l-156 -183l183 -391h-162z" />
    <glyph glyph-name="uni0199" unicode="&#x199;" horiz-adv-x="518" 
d="M337 663q-36 1 -62 -16.5t-34 -53.5l-43 -249l184 184h176l-230 -226l147 -302h-152l-94 210l-63 -55l-27 -155h-138l101 593q10 84 62.5 127t137.5 42q38 0 77 -9l-9 -95q-25 5 -33 5z" />
    <glyph glyph-name="uni019A" unicode="&#x19a;" horiz-adv-x="355" 
d="M352 354h-97l-61 -354h-139l62 354h-97l16 90h97l53 306h138l-53 -306h97z" />
    <glyph glyph-name="uni019B" unicode="&#x19b;" horiz-adv-x="532" 
d="M481 -6q-21 -3 -47 -2q-102 3 -128 109l-42 222l-160 -323h-155l278 514v7l-104 -37l19 100l59 20q-12 39 -61 35l-15 -1l7 107q34 9 73 9q42 -1 74.5 -21t43.5 -63l5 -25l96 31l-17 -100l-57 -18l86 -400q4 -16 11 -32.5t26 -18.5h19z" />
    <glyph glyph-name="uni019C" unicode="&#x19c;" horiz-adv-x="876" 
d="M639 0l8 57q-60 -68 -148 -67q-45 0 -84 20.5t-52 66.5q-69 -90 -172 -88q-64 1 -96 33t-41 81.5t-3 105.5l85 502h137l-85 -503q-4 -32 2.5 -66.5t47.5 -36.5q67 -3 110 59l5 36l88 511h138l-86 -503q-4 -32 2.5 -66.5t47.5 -36.5q63 -3 107 55l97 551h138l-123 -711
h-123z" />
    <glyph glyph-name="uni019D" unicode="&#x19d;" horiz-adv-x="733" 
d="M480 0l-197 474l-83 -490q-12 -88 -65 -143.5t-145 -55.5q-35 1 -73 9l19 120q21 -7 43 -8q64 0 77 80l125 725h138l198 -475l83 475h142l-123 -711h-139z" />
    <glyph glyph-name="uni019E" unicode="&#x19e;" horiz-adv-x="547" 
d="M501 338l-91 -541h-139l93 541q4 35 -7 60t-50 26q-55 2 -102 -45l-67 -379h-138l92 528l126 1l-10 -67q65 78 154 76q87 -1 117 -61.5t22 -138.5z" />
    <glyph glyph-name="uni019F" unicode="&#x19f;" horiz-adv-x="667" 
d="M643 371l-4 -32q-12 -91 -55.5 -171.5t-116 -130t-172.5 -47.5q-97 2 -154.5 53.5t-78.5 130.5t-11 165l4 33q12 90 55.5 170.5t116.5 130.5t173 48q97 -2 154 -53.5t78 -131.5t11 -165zM394 600q-58 2 -95.5 -28t-60.5 -76.5t-36 -94.5h298q5 42 0 88q-5 45 -29 77
t-77 34zM301 110q58 -2 96 29t60.5 79t35.5 95h-299q-5 -42 0 -88.5t29.5 -79.5t77.5 -35z" />
    <glyph glyph-name="Ohorn" unicode="&#x1a0;" horiz-adv-x="840" 
d="M396 -16q-96 0 -173.5 41.5t-121.5 117.5t-44 174q0 112 53.5 207t150.5 151.5t220 56.5q43 0 111 -8q70 -8 114 -8q37 0 55 5t26 17t13 38l11 58h98l-19 -109q-9 -49 -33.5 -76t-64.5 -27q-31 0 -65 10l-2 -4q48 -42 71 -102t23 -127q0 -112 -53.5 -207t-150 -151.5
t-219.5 -56.5zM407 112q77 0 140 38t99.5 103.5t36.5 143.5q0 60 -28 107t-77 73.5t-109 26.5q-77 0 -140 -38t-99.5 -102.5t-36.5 -141.5q0 -61 28 -109t77 -74.5t109 -26.5z" />
    <glyph glyph-name="ohorn" unicode="&#x1a1;" horiz-adv-x="609" 
d="M272 -16q-71 0 -125.5 31.5t-84.5 85.5t-30 121q0 85 38 154.5t107 109.5t159 40q25 0 69 -8q42 -8 68 -8q36 0 50 8.5t18 28.5l15 81h98l-21 -118q-6 -36 -28.5 -56t-56.5 -20q-11 0 -21 2l-1 -5q50 -71 50 -143q0 -85 -38 -154.5t-107 -109.5t-159 -40zM287 105
q43 0 79 22t57 61t21 86q0 57 -33 93.5t-90 36.5q-43 0 -79 -22t-57 -60.5t-21 -85.5q0 -58 33 -94.5t90 -36.5z" />
    <glyph glyph-name="uni01A2" unicode="&#x1a2;" horiz-adv-x="870" 
d="M295 -9q-98 1 -156 50t-80 127t-11 165l6 44q13 93 57 172t117.5 126.5t173.5 45.5q58 0 119 -15t104 -57l143 62h112l-158 -915h-139l130 744l-75 -32l-69 -418q-46 -59 -125 -79.5t-149 -19.5zM405 604q-64 1 -106.5 -30.5t-66.5 -83.5t-32.5 -108.5t-10 -85.5t1.5 -62
q4 -51 30.5 -87.5t87.5 -37.5q74 -1 126 37l77 421q-19 23 -49 29.5t-58 7.5z" />
    <glyph glyph-name="uni01A3" unicode="&#x1a3;" horiz-adv-x="704" 
d="M525 362l-52 -21l-37 -246q-36 -54 -91 -80t-119 -25q-114 2 -163 82t-39 184l3 21q15 109 85.5 186.5t186.5 75.5q43 -1 84 -18.5t69 -50.5l137 58h102l-127 -732h-138zM229 104q33 -1 67 22l51 273q-20 25 -56 26q-44 1 -70 -22.5t-39 -60t-17 -72.5q-4 -41 -5 -77
q0 -35 14.5 -61.5t54.5 -27.5z" />
    <glyph glyph-name="uni01A4" unicode="&#x1a4;" horiz-adv-x="770" 
d="M57 529q7 91 67.5 137t147.5 45l266 -1q102 -1 169 -62t59 -168q-9 -117 -95 -173.5t-194 -56.5l-135 1l-44 -251h-143l107 594q-40 -4 -63 -28.5t-28 -64.5v-20l1 -22l-112 1q-5 37 -3 69zM401 592l-39 -223l118 -1q54 0 94 27.5t48 83.5q7 47 -15 78.5t-71 34.5h-135z
" />
    <glyph glyph-name="uni01A5" unicode="&#x1a5;" horiz-adv-x="545" 
d="M274 -10q-76 2 -122 57l-48 -250h-138l122 732v-1q14 83 66.5 123t134.5 38q38 0 77 -7l-8 -96l-33 5q-35 1 -61.5 -16t-35.5 -51l-11 -42q55 57 128 56q72 -1 110 -43t49.5 -103t5.5 -121l-1 -10q-7 -64 -34.5 -127.5t-77 -104t-123.5 -39.5zM304 424q-59 3 -99 -51
l-39 -218q19 -50 78 -51q96 -2 124 140l3 17q4 41 3 73q-1 35 -16 62t-54 28z" />
    <glyph glyph-name="uni01A6" unicode="&#x1a6;" horiz-adv-x="670" 
d="M608 -164v-9l-153 1l-140 433h-116l-45 -261h-144l121 710h1l11 52h143l-9 -51l105 -1q98 -2 166 -52.5t60 -157.5q-10 -146 -156 -204zM257 592l-37 -213l106 -1q53 0 91.5 28.5t45.5 82.5q15 99 -84 103h-122z" />
    <glyph glyph-name="uni01A7" unicode="&#x1a7;" horiz-adv-x="596" 
d="M159 183q-6 -42 23 -59t65 -18q61 -2 105 26.5t52 91.5l143 1q-5 -79 -50.5 -131.5t-114 -78.5t-140.5 -25q-59 1 -112.5 21.5t-86 63t-27.5 109.5q4 70 44 115.5t98 73t117 45.5t81.5 27.5t41 21.5t28 26.5t12.5 31.5q8 43 -23 61t-67 19q-51 1 -87.5 -25.5t-43.5 -78.5
h-143q4 72 45 121.5t102.5 74.5t129.5 24q58 -1 112.5 -22t88 -64t30.5 -109q-4 -69 -45.5 -113t-100.5 -70.5t-116 -44t-81.5 -28t-44.5 -26.5q-29 -22 -35 -61z" />
    <glyph glyph-name="uni01A8" unicode="&#x1a8;" horiz-adv-x="499" 
d="M145 143q-5 -30 17.5 -41.5t46.5 -12.5q41 -1 69.5 19t37.5 60l132 1q-3 -60 -39.5 -100.5t-90.5 -60t-108 -18.5q-47 1 -93.5 17.5t-77 51t-28.5 89.5q1 45 21 75t62.5 53t122 40t98.5 30.5t23 38.5q5 28 -14 41t-44 13q-75 1 -88 -71l-138 -1q3 60 37.5 98.5t86 56.5
t105.5 16q70 -1 130.5 -41t57.5 -119q-2 -54 -34 -86.5t-77.5 -50t-89.5 -27.5t-77 -20q-41 -13 -48 -51z" />
    <glyph glyph-name="uni01A9" unicode="&#x1a9;" horiz-adv-x="555" 
d="M94 645l12 66h479l-21 -119h-287l128 -228v-9l-206 -236l295 -1l-20 -118h-491l14 81l257 285z" />
    <glyph glyph-name="uni01AA" unicode="&#x1aa;" horiz-adv-x="508" 
d="M421 -202q-33 -8 -65 -6q-85 2 -121 59t-28 136l72 400q-26 -7 -50 -8q-76 0 -122.5 58.5t-41.5 131.5q5 83 67.5 142.5t143.5 57.5q78 -2 126 -61t41 -135l-99 -587q-3 -29 3.5 -52.5t40.5 -25.5q17 -1 43 4zM240 499q34 0 56 23t26 55q3 28 -9.5 50t-43.5 22
q-34 0 -57 -23t-26 -56q-4 -29 9.5 -50t44.5 -21z" />
    <glyph glyph-name="uni01AB" unicode="&#x1ab;" horiz-adv-x="327" 
d="M232 108q16 -1 42 3l-17 -139q-9 -73 -50.5 -121.5t-120.5 -47.5q-29 1 -64 8l9 95q25 -4 33 -4q36 -1 63.5 16.5t36.5 53.5l4 20q-65 6 -91 49.5t-20 104.5l46 279h-76l18 103h75l23 131h138l-23 -131h88l-18 -103h-87l-46 -265q-3 -24 4 -37.5t33 -14.5z" />
    <glyph glyph-name="uni01AC" unicode="&#x1ac;" horiz-adv-x="680" 
d="M53 529q7 90 67.5 136.5t147.5 46.5l466 -1l-21 -119h-211l-102 -592h-144l103 592l-95 1q-48 -1 -73.5 -34t-23.5 -78v-22l-111 1q-5 38 -3 69z" />
    <glyph glyph-name="uni01AD" unicode="&#x1ad;" horiz-adv-x="353" 
d="M368 671q-36 1 -62.5 -16t-33.5 -53l-12 -74h88l-18 -103h-88l-45 -261q-3 -24 3.5 -39.5t33.5 -16.5q16 -1 41 3l-9 -108q-36 -13 -78 -12q-72 1 -103.5 46.5t-25.5 112.5l45 275h-75l18 103h75l10 74q10 86 63.5 127.5t137.5 40.5q38 0 77 -8l-9 -95q-18 4 -33 4z" />
    <glyph glyph-name="uni01AE" unicode="&#x1ae;" horiz-adv-x="600" 
d="M70 592l21 119h562l-21 -119h-210l-105 -610q-3 -23 0 -47t33 -27q19 -1 48 6l-3 -120q-31 -7 -64 -7q-85 2 -124.5 58.5t-31.5 137.5l104 609h-209z" />
    <glyph glyph-name="Uhorn" unicode="&#x1af;" horiz-adv-x="734" 
d="M308 -16q-70 0 -124.5 29.5t-84.5 83t-30 123.5q0 36 9 84l72 412h135l-77 -435q-4 -25 -4 -47q0 -57 30.5 -89.5t91.5 -32.5q67 0 111 44.5t58 120.5l77 439h146q19 0 29 9t14 28l15 81h98l-14 -78q-13 -73 -48 -103.5t-111 -30.5h-11l-62 -353q-25 -142 -107.5 -213.5
t-212.5 -71.5z" />
    <glyph glyph-name="uhorn" unicode="&#x1b0;" horiz-adv-x="655" 
d="M208 -16q-78 0 -120 44t-42 112q0 32 5 61l55 309h131l-52 -293q-4 -16 -4 -38q0 -32 22 -53t58 -21q58 0 94 38.5t48 106.5l46 260h142q19 0 29 9t14 28l15 81h98l-14 -78q-13 -72 -48 -103t-111 -31h-11l-73 -416h-122l11 64h-8q-26 -39 -67.5 -59.5t-95.5 -20.5z" />
    <glyph glyph-name="uni01B1" unicode="&#x1b1;" horiz-adv-x="646" 
d="M454 419q5 53 -4.5 101.5t-50.5 68.5l19 122h244l-21 -119h-104q37 -61 56 -124.5t10 -135.5l-4 -35q-18 -138 -106.5 -224t-210.5 -83q-83 1 -138 44t-79 110.5t-15 145.5l6 45q24 162 159 260l-106 -3l21 119h240l-18 -122q-52 -22 -82.5 -73.5t-47.5 -143t-15 -158.5
q1 -42 19.5 -72.5t63.5 -32.5q46 -2 76 24t47.5 67.5t24 85.5t16.5 133z" />
    <glyph glyph-name="uni01B2" unicode="&#x1b2;" horiz-adv-x="639" 
d="M279 -10q-112 2 -178 70t-53 182l79 469h144l-80 -469q-7 -55 13.5 -93.5t80.5 -40.5q64 -2 101 35t48 96l46 285q4 31 -3 52t-42 22q-16 0 -42 -3l10 117q33 8 65 7q84 -1 123.5 -58t31.5 -137l-46 -282q-16 -118 -97.5 -186t-200.5 -66z" />
    <glyph glyph-name="uni01B3" unicode="&#x1b3;" horiz-adv-x="663" 
d="M366 251l-43 -251h-146l47 267l-149 443l152 1l87 -320l139 228q28 45 66.5 74.5t92.5 29.5q58 -1 124 -34l-62 -105q-21 13 -39 14q-27 1 -49 -20.5t-40 -53t-32 -52.5z" />
    <glyph glyph-name="uni01B4" unicode="&#x1b4;" horiz-adv-x="580" 
d="M220 -80q-26 -59 -69.5 -97t-111.5 -38q-23 0 -66 10l10 107l20 -1q71 -1 103 59l25 49l-86 519h143l35 -308l-1 -28l132 287q17 40 38 81.5t53 69.5t83 27q55 -1 114 -43l-38 -88q-27 14 -43 15q-35 1 -54.5 -36t-31.5 -63z" />
    <glyph glyph-name="uni01B5" unicode="&#x1b5;" horiz-adv-x="588" 
d="M86 592l21 119h518l-16 -91l-181 -211l121 -1l-16 -90h-177l-171 -199l345 -1l-21 -118h-526l17 93l193 224l-124 1l17 90h180l159 183z" />
    <glyph glyph-name="uni01B6" unicode="&#x1b6;" horiz-adv-x="496" 
d="M64 415l20 113h412l-16 -90l-115 -122l71 -1l-18 -89l-130 -1l-106 -110l249 -1l-20 -114h-426l16 93l123 132l-74 1l17 89l135 1l94 98z" />
    <glyph glyph-name="uni01B7" unicode="&#x1b7;" horiz-adv-x="634" 
d="M86 592l21 119h515l-16 -89l-232 -226q75 -10 118 -55t59.5 -109t9.5 -131q-14 -136 -101.5 -225t-228.5 -86q-113 2 -178 68.5t-69 178.5l142 -1q1 -59 25.5 -93t87.5 -36q88 -2 129 56.5t50 136.5q5 46 2 88q-4 42 -27.5 70t-78.5 30h-134l16 92l221 211z" />
    <glyph glyph-name="uni01B8" unicode="&#x1b8;" horiz-adv-x="634" 
d="M467 366l-14 -78l-120 1q-91 0 -133 -55.5t-52 -140.5q-5 -45 -1 -87t28 -70t79 -30q65 -2 104 32.5t52 96.5l144 1q-15 -117 -104 -182.5t-203 -63.5q-135 2 -195.5 89t-47.5 214t89 209t203 98l-150 236l13 75h512l-21 -119h-336z" />
    <glyph glyph-name="uni01B9" unicode="&#x1b9;" horiz-adv-x="556" 
d="M219 415l135 -181l-15 -83l-56 1q-67 0 -110.5 -34.5t-51.5 -103.5q-5 -44 22 -69t70 -25q44 -1 77 24.5t40 69.5l139 1q-7 -104 -86 -157t-176 -51q-62 1 -115 24t-84 68.5t-27 113.5q7 99 67.5 156t154.5 73l-134 200l15 86h452l-20 -113h-297z" />
    <glyph glyph-name="uni01BA" unicode="&#x1ba;" horiz-adv-x="506" 
d="M299 181q5 27 -13.5 37.5t-41.5 11.5l-119 1l16 89l130 94l-197 1l20 113h417l-15 -87l-163 -125q44 -18 71 -55t26 -86q-1 -44 -23 -74.5t-65.5 -53t-118.5 -38.5t-95 -30.5t-24 -38.5q-5 -30 17.5 -41.5t46.5 -12.5q40 -1 69 19.5t38 59.5l132 1q-2 -60 -39.5 -100.5
t-91.5 -60t-108 -18.5q-47 1 -93.5 17.5t-76.5 51.5t-28 89q2 56 34 89.5t78 51t94 27t77 18.5q40 12 46 50z" />
    <glyph glyph-name="uni01BB" unicode="&#x1bb;" horiz-adv-x="580" 
d="M489 114l-20 -114h-473l18 103l235 213l-120 1l17 89h189q19 23 36.5 48t22.5 56q6 38 -9 68t-58 31q-54 1 -83 -36.5t-36 -84.5l-137 -1q6 105 84 171t182 64q90 -1 148.5 -52t49.5 -147q-5 -57 -50 -119l78 2l-16 -89h-127l-72 -67l-153 -135z" />
    <glyph glyph-name="uni01BC" unicode="&#x1bc;" horiz-adv-x="591" 
d="M80 594l21 117h502l-20 -117h-272l-51 -155q43 27 102 28q102 0 145.5 -71.5t34.5 -163.5q-9 -107 -82 -176t-181 -67q-92 2 -151 60t-60 150h135q2 -39 20.5 -66.5t61.5 -28.5q58 -1 86 42.5t34 94.5q5 46 -12.5 82.5t-70.5 37.5q-53 0 -95 -38l-114 29l69 242h-102z
" />
    <glyph glyph-name="uni01BD" unicode="&#x1bd;" horiz-adv-x="531" 
d="M45 416l20 112h445l-20 -112h-238l-35 -93q42 24 101 25q78 0 123.5 -47t40.5 -125q-5 -99 -78 -143t-163 -42q-77 1 -143 40t-67 125l137 9q1 -34 24 -46.5t54 -12.5q38 0 66 19.5t34 58.5q4 34 -14.5 51.5t-50.5 17.5q-49 1 -82 -27l-131 6l55 184h-78z" />
    <glyph glyph-name="uni01BE" unicode="&#x1be;" horiz-adv-x="499" 
d="M439 156q-2 -60 -38.5 -97t-89.5 -53.5t-104 -15.5q-80 1 -142 47.5t-63 131.5h130q0 -76 79 -77q30 0 59 13t36 45q6 28 -14.5 54.5t-48.5 54.5t-48.5 61.5t-14.5 77.5l5 28l-81 -1l19 103h75l22 131h138l-23 -131h88l-19 -103l-82 1l-7 -30q-8 -42 10.5 -69t45.5 -50
t48 -50.5t20 -70.5z" />
    <glyph glyph-name="uni01BF" unicode="&#x1bf;" horiz-adv-x="545" 
d="M509 260q-13 -104 -68.5 -171.5t-137.5 -108t-175 -63.5l-24 -120h-138l126 731l127 1l-9 -53q57 63 135 62q72 -1 110 -43t50 -103t5 -121zM304 424q-59 3 -99 -51l-65 -347q86 27 150.5 83.5t79.5 148.5l2 13q3 28 2 63.5t-16 62t-54 27.5z" />
    <glyph glyph-name="uni01C0" unicode="&#x1c0;" horiz-adv-x="228" 
d="M229 711l-124 -711h-84l124 711h84z" />
    <glyph glyph-name="uni01C1" unicode="&#x1c1;" horiz-adv-x="360" 
d="M356 711l-123 -711h-84l123 711h84zM229 711l-124 -711h-84l124 711h84z" />
    <glyph glyph-name="uni01C2" unicode="&#x1c2;" horiz-adv-x="355" 
d="M328 215h-124l-37 -215h-84l37 215h-124l16 89h124l24 135h-126l16 89h125l32 183h84l-32 -183h124l-16 -89h-123l-24 -135h124z" />
    <glyph glyph-name="uni01C3" unicode="&#x1c3;" horiz-adv-x="268" 
d="M281 711l-101 -492h-115l70 492h146zM20 64q-1 33 20.5 55.5t54.5 22.5q32 0 54.5 -20t23.5 -53t-21 -55t-54 -23q-32 0 -55 20.5t-23 52.5z" />
    <glyph glyph-name="uni01C4" unicode="&#x1c4;" horiz-adv-x="1153" 
d="M890 911l56 -69l82 68l122 3v-10l-160 -135h-87l-127 136v10zM647 592l21 119h518l-16 -91l-424 -501l345 -1l-21 -118h-526l17 93l425 498zM10 0l124 711l204 -1q95 -2 157.5 -49.5t90 -124t17.5 -165.5l-3 -20q-19 -155 -119 -252t-241 -99h-230zM335 592h-78l-83 -474
h60q96 0 149 61.5t68 151.5q14 80 7 141q-5 50 -33 84t-90 36z" />
    <glyph glyph-name="uni01C5" unicode="&#x1c5;" horiz-adv-x="1082" 
d="M850 745l50 -67l75 66l121 3v-12l-148 -124h-94l-118 124v12zM10 0l124 711l204 -1q95 -2 157.5 -49t90 -124t17.5 -166l-3 -20q-19 -155 -119.5 -252t-242.5 -99h-228zM335 592h-78l-83 -474h60q90 0 142 53.5t71.5 139.5t10.5 161q-6 50 -33.5 84t-89.5 36zM652 415
l20 113h411l-15 -90l-297 -323l249 -1l-20 -114h-427l16 93l296 321z" />
    <glyph glyph-name="uni01C6" unicode="&#x1c6;" horiz-adv-x="992" 
d="M325 0l6 59q-61 -71 -141 -69q-70 1 -108.5 43.5t-50.5 103.5t-7 119l1 8q22 161 114 235q50 41 125 39q74 -2 119 -58l54 282h138l-132 -762h-118zM760 745l50 -67l75 66l121 2v-11l-148 -124h-93l-119 124v12zM562 415l21 113h411l-16 -90l-297 -323l248 -1l-20 -114
h-426l16 93l296 321zM162 194q1 -35 16 -61.5t53 -27.5q56 -2 101 54l37 212q-19 52 -76 54q-43 1 -69.5 -24t-40 -62t-18.5 -72q-4 -40 -3 -73z" />
    <glyph glyph-name="uni01C7" unicode="&#x1c7;" horiz-adv-x="1066" 
d="M938 711h143l-84 -492q-14 -103 -85.5 -167t-176.5 -62q-102 2 -156.5 60.5t-50.5 159.5h143q-2 -41 11.5 -71t60.5 -31q48 -1 75.5 32t34.5 76zM476 118l-21 -118h-445l124 711h143l-103 -593h302z" />
    <glyph glyph-name="uni01C8" unicode="&#x1c8;" horiz-adv-x="777" 
d="M640 663q-1 33 20.5 54t54.5 22q32 0 54.5 -19.5t23.5 -52.5q0 -33 -21.5 -54t-54.5 -21q-32 0 -54.5 19.5t-22.5 51.5zM626 528h139l-95 -557q-11 -83 -61 -134.5t-138 -51.5q-34 1 -74 9l11 113q26 -6 43 -6q67 -1 80 72zM476 118l-21 -118h-445l124 711h143l-103 -593
h302z" />
    <glyph glyph-name="uni01C9" unicode="&#x1c9;" horiz-adv-x="509" 
d="M372 663q-1 33 20.5 54t54.5 22q32 0 54.5 -19.5t23.5 -52.5q0 -33 -22 -54t-54 -21t-54.5 19.5t-22.5 51.5zM358 528h139l-95 -557q-11 -83 -61 -134.5t-138 -51.5q-34 1 -74 9l11 113q26 -6 43 -6q67 -1 80 72zM277 750l-130 -750h-138l130 750h138z" />
    <glyph glyph-name="uni01CA" unicode="&#x1ca;" horiz-adv-x="1227" 
d="M1098 711h143l-84 -492q-14 -103 -85.5 -167t-176.5 -62q-102 2 -156 60.5t-51 159.5h144q-2 -41 11 -71t60 -31q48 -1 75.5 32t34.5 76zM696 711l-123 -711h-139l-198 475l-82 -475h-144l124 711h138l198 -475l83 475h143z" />
    <glyph glyph-name="uni01CB" unicode="&#x1cb;" horiz-adv-x="937" 
d="M800 663q-1 33 20.5 54t54.5 22q32 0 54.5 -19.5t23.5 -52.5q0 -33 -21.5 -54t-54.5 -21q-32 0 -54.5 19.5t-22.5 51.5zM786 528h139l-95 -557q-11 -83 -61 -134.5t-138 -51.5q-34 1 -74 9l11 113q26 -6 43 -6q67 -1 80 72zM696 711l-123 -711h-139l-198 475l-82 -475
h-144l124 711h138l198 -475l83 475h143z" />
    <glyph glyph-name="uni01CC" unicode="&#x1cc;" horiz-adv-x="795" 
d="M658 663q-1 33 20.5 54t54.5 22q32 0 54.5 -19.5t23.5 -52.5q0 -33 -21.5 -54t-54.5 -21q-32 0 -54.5 19.5t-22.5 51.5zM644 528h139l-95 -557q-11 -83 -61 -134.5t-138 -51.5q-34 1 -74 9l11 113q26 -6 43 -6q67 -1 80 72zM299 424q-54 2 -97 -50l-66 -374h-137l91 528
l128 1l-10 -62q65 73 153 71q87 -1 115.5 -63t21.5 -139l-56 -336h-138l56 338q4 38 -7.5 62t-53.5 24z" />
    <glyph glyph-name="uni01CD" unicode="&#x1cd;" horiz-adv-x="722" 
d="M360 716h158l143 -716h-144l-31 171h-273l-90 -171h-153zM463 295l-33 180l-11 86h-8l-40 -86l-94 -180h186zM297 904l1 8h121l31 -59h12l49 59h129l-1 -8l-132 -126h-119z" />
    <glyph glyph-name="uni01CE" unicode="&#x1ce;" horiz-adv-x="520" 
d="M265 750l56 -68l82 68l122 3v-10l-160 -135h-87l-127 136v9zM306 0q-6 20 -6 48q-59 -59 -135 -58q-66 1 -113 43.5t-44 111.5q2 69 41.5 108t98 54.5t117.5 15.5l65 -1l7 32q5 33 -7.5 56t-48.5 24q-70 2 -83 -64h-138q3 59 39 96.5t89 55.5t105 17q83 -2 137 -50.5
t46 -135.5l-38 -237l-5 -47q-3 -32 8 -60v-9h-135zM199 97q60 -2 104 52l17 92h-47q-42 0 -80.5 -19.5t-44.5 -66.5q-4 -26 10.5 -42t40.5 -16z" />
    <glyph glyph-name="uni01CF" unicode="&#x1cf;" horiz-adv-x="283" 
d="M171 903l57 -69l82 69l122 3v-10l-160 -135h-87l-127 136v9zM285 711l-123 -711h-143l123 711h143z" />
    <glyph glyph-name="uni01D0" unicode="&#x1d0;" horiz-adv-x="265" 
d="M135 743l56 -69l82 69l122 3l1 -10l-161 -135h-87l-127 136v9zM242 528l-92 -528h-138l92 528h138z" />
    <glyph glyph-name="uni01D1" unicode="&#x1d1;" horiz-adv-x="669" 
d="M364 902l57 -69l82 68l122 3v-9l-160 -136h-87l-127 137v9zM642 371l-5 -35q-13 -91 -56.5 -170.5t-116 -128.5t-171.5 -47q-97 2 -154 53.5t-78.5 131t-11.5 164.5l4 33q13 90 56.5 171t116 130.5t172.5 47.5q97 -2 154 -53.5t78.5 -131.5t11.5 -165zM500 469
q-2 52 -25.5 90.5t-82.5 40.5q-63 2 -103.5 -33.5t-62.5 -91.5t-29.5 -118.5t-5.5 -113.5q2 -53 26 -91.5t83 -41.5q62 -2 102 34t62 91t30 117t6 117z" />
    <glyph glyph-name="uni01D2" unicode="&#x1d2;" horiz-adv-x="548" 
d="M271 750l56 -68l82 68l122 3v-10l-160 -135h-87l-127 136v9zM26 256q12 129 88 206.5t188 75.5q114 -2 167 -82t44 -186q-11 -118 -84 -200t-192 -80q-113 2 -167 81.5t-44 184.5zM166 266l-1 -11q-8 -88 22 -128q18 -23 57 -23q65 -2 94.5 50t35.5 106q4 44 1 77
q-3 35 -21 60.5t-59 27.5q-43 1 -70 -24t-41 -62t-18 -73z" />
    <glyph glyph-name="uni01D3" unicode="&#x1d3;" horiz-adv-x="638" 
d="M348 902l56 -69l82 68l122 3v-9l-160 -136h-87l-127 137v9zM513 711h144l-80 -468q-16 -119 -98 -187t-201 -66q-112 1 -178 69.5t-53 182.5l79 469h144l-80 -469q-7 -55 13.5 -93.5t80.5 -40.5q63 -2 100.5 35t48.5 96z" />
    <glyph glyph-name="uni01D4" unicode="&#x1d4;" horiz-adv-x="543" 
d="M275 750l57 -68l82 68l121 3l1 -10l-161 -135h-86l-127 136v9zM313 0l11 55q-59 -66 -146 -65q-86 1 -119.5 59.5t-25.5 137.5l57 341h138l-59 -343q-4 -32 7 -55.5t47 -24.5q64 -2 107 50l65 373h139l-92 -528h-129z" />
    <glyph glyph-name="uni01D5" unicode="&#x1d5;" horiz-adv-x="638" 
d="M604 1000l-14 -82h-329l15 82h328zM241 816q0 26 18.5 42.5t43.5 17t45.5 -14.5t21.5 -42q0 -26 -18.5 -42t-43.5 -17q-25 0 -45.5 14.5t-21.5 41.5zM447 816q0 26 18 42.5t43.5 17t45.5 -14.5t21 -42t-17.5 -43t-43.5 -16q-25 -1 -45.5 14t-21.5 42zM513 711h144
l-80 -468q-16 -119 -98 -187t-201 -66q-112 1 -178 69.5t-53 182.5l79 469h144l-80 -469q-7 -55 13.5 -93.5t80.5 -40.5q63 -2 100.5 35t48.5 96z" />
    <glyph glyph-name="uni01D6" unicode="&#x1d6;" horiz-adv-x="543" 
d="M534 861l-14 -81h-329l15 81h328zM154 666q0 27 18.5 45t45.5 18q26 0 46.5 -16.5t21.5 -43.5t-18 -45.5t-46 -19.5t-47 16.5t-21 45.5zM385 665q0 27 18.5 45.5t45.5 18.5q26 1 46.5 -16.5t21.5 -44.5t-18.5 -45.5t-45.5 -18.5q-26 -1 -46.5 16.5t-21.5 44.5zM313 0
l11 55q-59 -66 -146 -65q-86 1 -119.5 59.5t-25.5 137.5l57 341h138l-59 -343q-4 -32 7 -55.5t47 -24.5q64 -2 107 50l65 373h139l-92 -528h-129z" />
    <glyph glyph-name="uni01D7" unicode="&#x1d7;" horiz-adv-x="638" 
d="M372 874l77 95h110l-102 -95h-85zM241 816q0 26 18.5 42.5t43.5 17t45.5 -14.5t21.5 -42q1 -26 -18 -42t-44 -17q-25 0 -45.5 14.5t-21.5 41.5zM447 816q0 26 18 42.5t43.5 17t45.5 -14.5t21 -42t-17.5 -43t-43.5 -16q-25 -1 -45.5 14t-21.5 42zM513 711h144l-80 -468
q-16 -119 -98 -187t-201 -66q-112 1 -178 69.5t-53 182.5l79 469h144l-80 -469q-7 -55 13.5 -93.5t80.5 -40.5q63 -2 100.5 35t48.5 96z" />
    <glyph glyph-name="uni01D8" unicode="&#x1d8;" horiz-adv-x="543" 
d="M280 751l119 151h161l-158 -151h-122zM154 666q0 27 18.5 45t45.5 18q26 0 46.5 -16.5t21.5 -43.5t-18 -45.5t-46 -19.5t-47 16.5t-21 45.5zM385 665q0 27 18.5 45.5t45.5 18.5q26 1 46.5 -16.5t21.5 -44.5t-18.5 -45.5t-45.5 -18.5q-26 -1 -46.5 16.5t-21.5 44.5zM313 0
l11 55q-59 -66 -146 -65q-86 1 -119.5 59.5t-25.5 137.5l57 341h138l-59 -343q-4 -32 7 -55.5t47 -24.5q64 -2 107 50l65 373h139l-92 -528h-129z" />
    <glyph glyph-name="uni01D9" unicode="&#x1d9;" horiz-adv-x="638" 
d="M372 1003l52 -55l73 54l122 2v-11l-145 -110h-95l-120 111v11zM241 816q0 26 18.5 42.5t43.5 17t45.5 -14.5t21.5 -42q0 -26 -18.5 -42t-43.5 -17q-25 0 -45.5 14.5t-21.5 41.5zM447 816q0 26 18 42.5t43.5 17t45.5 -14.5t21 -42t-17.5 -43t-43.5 -16q-25 -1 -45.5 14
t-21.5 42zM513 711h144l-80 -468q-16 -119 -98 -187t-201 -66q-112 1 -178 69.5t-53 182.5l79 469h144l-80 -469q-7 -55 13.5 -93.5t80.5 -40.5q63 -2 100.5 35t48.5 96z" />
    <glyph glyph-name="uni01DA" unicode="&#x1da;" horiz-adv-x="543" 
d="M301 903l56 -69l82 68l122 3l1 -10l-160 -135h-88l-126 136v10zM154 666q0 27 18.5 45t45.5 18q26 0 46.5 -16.5t21.5 -43.5t-18 -45.5t-46 -19.5t-47 16.5t-21 45.5zM385 665q0 27 18.5 45.5t45.5 18.5q26 1 46.5 -16.5t21.5 -44.5t-18.5 -45.5t-45.5 -18.5
q-26 -1 -46.5 16.5t-21.5 44.5zM313 0l11 55q-59 -66 -146 -65q-86 1 -119.5 59.5t-25.5 137.5l57 341h138l-59 -343q-4 -32 7 -55.5t47 -24.5q64 -2 107 50l65 373h139l-92 -528h-129z" />
    <glyph glyph-name="uni01DB" unicode="&#x1db;" horiz-adv-x="638" 
d="M412 969l46 -95h-66l-71 95h91zM241 816q0 26 18.5 42.5t43.5 17t45.5 -14.5t21.5 -42q0 -26 -18.5 -42t-43.5 -17q-25 0 -45.5 14.5t-21.5 41.5zM447 816q0 26 18 42.5t43.5 17t45.5 -14.5t21 -42t-17.5 -43t-43.5 -16q-25 -1 -45.5 14t-21.5 42zM513 711h144l-80 -468
q-16 -119 -98 -187t-201 -66q-112 1 -178 69.5t-53 182.5l79 469h144l-80 -469q-7 -55 13.5 -93.5t80.5 -40.5q63 -2 100.5 35t48.5 96z" />
    <glyph glyph-name="uni01DC" unicode="&#x1dc;" horiz-adv-x="543" 
d="M346 902l70 -150l-105 -1l-107 150zM154 666q0 27 18.5 45t45.5 18q26 0 46.5 -16.5t21.5 -43.5t-18 -45.5t-46 -19.5t-47 16.5t-21 45.5zM385 665q0 27 18.5 45.5t45.5 18.5q26 1 46.5 -16.5t21.5 -44.5t-18.5 -45.5t-45.5 -18.5q-26 -1 -46.5 16.5t-21.5 44.5zM313 0
l11 55q-59 -66 -146 -65q-86 1 -119.5 59.5t-25.5 137.5l57 341h138l-59 -343q-4 -32 7 -55.5t47 -24.5q64 -2 107 50l65 373h139l-92 -528h-129z" />
    <glyph glyph-name="uni01DD" unicode="&#x1dd;" horiz-adv-x="513" 
d="M214 -9q-103 2 -150.5 71.5t-36.5 166.5l12 80h308q3 46 -18.5 79.5t-71.5 34.5q-66 2 -148 -36l-31 92q38 34 93 47t104 12q109 -2 163 -78t45 -179l-1 -10q-13 -126 -87.5 -204.5t-180.5 -75.5zM222 104q48 -1 73.5 35t40.5 74h-173l-3 -14q-7 -37 6.5 -65.5
t55.5 -29.5z" />
    <glyph glyph-name="uni01DE" unicode="&#x1de;" horiz-adv-x="653" 
d="M614 1000l-14 -82h-329l15 82h328zM251 816q0 26 18.5 42.5t43 17t45 -14.5t21.5 -42q0 -26 -18.5 -42t-43.5 -17q-25 0 -45 14.5t-21 41.5zM457 816q0 26 18 42.5t43.5 17t45 -14.5t20.5 -42t-17 -43t-44 -16q-25 -1 -45 14t-21 42zM-51 0l380 711h132l136 -711h-147
l-22 146h-248l-74 -146h-157zM238 265h172l-39 265z" />
    <glyph glyph-name="uni01DF" unicode="&#x1df;" horiz-adv-x="520" 
d="M524 861l-14 -81h-329l15 81h328zM144 666q0 27 18.5 45t45.5 18q26 0 46.5 -16.5t20.5 -43.5q1 -27 -18 -45.5t-45 -19.5q-27 -1 -47 16.5t-21 45.5zM375 665q0 27 18.5 45.5t44.5 18.5q26 1 47 -16.5t21 -44.5q1 -27 -18 -45.5t-46 -18.5q-26 -1 -46 16.5t-21 44.5z
M306 0q-6 20 -6 48q-59 -59 -135 -58q-66 1 -113 43.5t-44 111.5q2 69 41.5 108t98 54.5t117.5 15.5l65 -1l7 32q5 33 -7.5 56t-48.5 24q-70 2 -83 -64h-138q3 59 39 96.5t89 55.5t105 17q83 -2 137 -50.5t46 -135.5l-38 -237l-5 -47q-3 -32 8 -60v-9h-135zM199 97
q60 -2 104 52l17 92h-47q-42 0 -80.5 -19.5t-44.5 -66.5q-4 -26 10.5 -42t40.5 -16z" />
    <glyph glyph-name="uni01E0" unicode="&#x1e0;" horiz-adv-x="653" 
d="M614 1000l-15 -82h-328l15 82h328zM354 819q-1 27 18 42.5t45 16.5q25 0 44.5 -14.5t20.5 -41.5t-17.5 -43t-43.5 -17q-25 0 -46 15t-21 42zM-51 0l380 711h132l136 -711h-147l-22 146h-248l-74 -146h-157zM238 265h172l-39 265z" />
    <glyph glyph-name="uni01E1" unicode="&#x1e1;" horiz-adv-x="520" 
d="M528 882l-15 -82h-328l14 82h329zM279 630q-21 17 -22 47t18.5 50t49.5 20q29 0 50 -18t22 -47q1 -30 -19 -49.5t-49 -20.5q-29 0 -50 18zM306 0q-6 20 -6 48q-59 -59 -135 -58q-66 1 -113 43.5t-44 111.5q2 69 41.5 108t98 54.5t117.5 15.5l65 -1l7 32q5 33 -7.5 56
t-48.5 24q-70 2 -83 -64h-138q3 59 39 96.5t89 55.5t105 17q83 -2 137 -50.5t46 -135.5l-38 -237l-5 -47q-3 -32 8 -60v-9h-135zM199 97q60 -2 104 52l17 92h-47q-42 0 -80.5 -19.5t-44.5 -66.5q-4 -26 10.5 -42t40.5 -16z" />
    <glyph glyph-name="uni01E2" unicode="&#x1e2;" horiz-adv-x="912" 
d="M705 867l-13 -82h-328l13 82h328zM854 115l-21 -115h-425l22 163h-206l-108 -163h-170l496 711h486l-21 -115h-282l-23 -173h237l-20 -115h-233l-25 -193h293zM301 285l144 -1l36 269z" />
    <glyph glyph-name="uni01E3" unicode="&#x1e3;" horiz-adv-x="819" 
d="M644 710l-13 -82h-328l13 82h328zM741 48q-37 -33 -91 -45.5t-102 -12t-95 16.5t-78 55q-83 -74 -197 -72q-74 1 -124.5 42t-46.5 120q3 67 43 103t98 49.5t113 13.5l82 -1l6 29q5 32 -7 55t-47 24q-31 1 -59 -14t-34 -47l-138 9q3 61 40.5 97.5t91.5 53t106 15.5
q100 -1 148 -54q73 55 161 53q102 -2 148 -73t35 -166l-12 -79h-313q-5 -51 19 -82.5t77 -32.5q40 -1 75.5 9.5t70.5 27.5zM603 425q-52 2 -80.5 -33t-43.5 -78h179l4 15q6 36 -6 65.5t-53 30.5zM208 93q44 -1 105 39l19 93l-68 1q-36 -1 -73.5 -18t-44.5 -58q-5 -31 15 -44
t47 -13z" />
    <glyph glyph-name="uni01E4" unicode="&#x1e4;" horiz-adv-x="685" 
d="M577 89q-47 -58 -126.5 -79t-149.5 -19q-98 1 -156.5 50t-81 127t-11.5 166l6 42q13 91 54.5 170.5t113 128t171.5 46.5q114 -2 176 -64t70 -173h-138q-4 53 -28.5 85t-80.5 35q-61 2 -100 -30.5t-61.5 -85t-30.5 -107.5q-14 -85 -9 -146q4 -52 30 -88.5t88 -37.5
q69 -1 125 33l6 19l-114 -2l14 77l108 -2l10 34l-131 -2l19 108h272l-24 -138h78l-13 -77h-78z" />
    <glyph glyph-name="uni01E5" unicode="&#x1e5;" horiz-adv-x="554" 
d="M483 -92h-46q-35 -85 -105 -127t-162 -40q-112 1 -188 72l60 82q48 -44 124 -45q75 -1 125 60l-338 -2l12 66l345 -1l19 74q-56 -58 -130 -57q-71 1 -110 43t-53 103t-8 120l1 11q8 66 37 129t80.5 103.5t126.5 38.5q83 -1 127 -60l17 51l127 -1l-96 -554h47zM166 257
q-3 -29 0 -64q2 -35 18.5 -61t55.5 -27q58 -2 100 48l41 223q-21 47 -78 49q-64 2 -96 -50t-40 -108z" />
    <glyph glyph-name="Gcaron" unicode="&#x1e6;" horiz-adv-x="660" 
d="M360 906l57 -69l82 69l121 3l1 -10l-161 -135h-86l-127 136v9zM622 374l-45 -285q-47 -58 -126.5 -79t-149.5 -19q-98 1 -156.5 50t-81 127t-11.5 166l6 42q13 91 54.5 170.5t113 128t171.5 46.5q114 -2 176 -64t70 -173h-138q-4 53 -28.5 85t-80.5 34q-63 2 -102.5 -32
t-61 -86.5t-29.5 -105.5t-9.5 -83t1.5 -61q4 -52 30 -89q25 -36 87 -37q71 -2 124 35l24 122h-129l19 108h272z" />
    <glyph glyph-name="gcaron" unicode="&#x1e7;" horiz-adv-x="554" 
d="M266 750l57 -68l82 68l121 3l1 -10l-160 -135h-87l-127 136v9zM456 18q-15 -109 -92 -168.5t-186 -57.5q-53 1 -102.5 22.5t-83.5 62.5l68 84q46 -58 116 -60q56 -1 92.5 29t50.5 82l9 35q-57 -58 -130 -57q-71 1 -110.5 43t-53 103t-7.5 120l1 11q8 66 37 129
t80.5 103.5t126.5 38.5q83 -1 126 -60l19 51l126 -1zM165 257q-3 -29 -1 -64t18.5 -61t55.5 -27q58 -2 100 48l41 223q-21 47 -77 49q-62 2 -94.5 -48t-42.5 -120z" />
    <glyph glyph-name="uni01E8" unicode="&#x1e8;" horiz-adv-x="616" 
d="M312 902l57 -69l82 68l122 3v-9l-160 -136h-87l-127 137v9zM409 0l-127 284l-94 -87l-34 -197h-144l124 711h143l-54 -313l71 81l215 232h186l-306 -323l183 -388h-163z" />
    <glyph glyph-name="uni01E9" unicode="&#x1e9;" horiz-adv-x="518" 
d="M338 903l57 -69l82 69l122 3v-10l-160 -135h-87l-127 136v9zM323 0l-94 210l-63 -55l-27 -155h-138l130 750h139l-71 -406l27 29l156 155h176l-230 -226l147 -302h-152z" />
    <glyph glyph-name="uni01EA" unicode="&#x1ea;" horiz-adv-x="669" 
d="M279 -38q-29 -20 -32 -52q-3 -26 21 -27q14 0 39 10l9 -79q-32 -20 -74 -20q-44 0 -73 27t-29 71q0 53 37 85q16 14 33 26q-41 13 -71 41q-57 51 -78 131q-22 79 -12 164l4 33q13 90 57 171q43 81 116 131q72 49 172 47q97 -2 154 -53q57 -52 79 -132q21 -80 11 -165
l-5 -35q-13 -91 -56 -170q-44 -80 -116 -129q-63 -42 -145 -47q-20 -12 -41 -28zM475 560q-24 38 -83 40q-63 2 -103 -33q-41 -36 -63 -92t-29 -118q-8 -63 -6 -114q2 -53 26 -91q24 -39 83 -42q62 -2 102 34t62 91t30 117t6 117q-2 52 -25 91z" />
    <glyph glyph-name="uni01EB" unicode="&#x1eb;" horiz-adv-x="548" 
d="M221 -41q-29 -21 -33 -52q-3 -26 22 -28q14 0 39 10l9 -78q-32 -20 -74 -20q-44 0 -73 26q-29 27 -29 72q0 53 37 85q19 16 39 29q-55 20 -88 69q-54 79 -44 184q12 129 88 207q76 77 188 75q114 -2 167 -82t44 -186q-11 -118 -84 -200q-63 -71 -162 -79q-22 -14 -46 -32
zM187 127q18 -23 57 -23q65 -2 95 50q29 52 35 106q4 44 1 77q-3 35 -21 61q-18 25 -59 27q-43 1 -70 -24t-41 -62t-18 -73l-1 -11q-8 -88 22 -128z" />
    <glyph glyph-name="uni01EC" unicode="&#x1ec;" horiz-adv-x="669" 
d="M279 -38q-29 -20 -32 -52q-3 -26 21 -27q14 0 39 10l9 -79q-32 -20 -74 -20q-44 0 -73 27t-29 71q0 53 37 85q16 14 33 26q-41 13 -71 41q-57 51 -78 131q-22 79 -12 164l4 33q13 90 57 171q43 81 116 131q72 49 172 47q97 -2 154 -53q57 -52 79 -132q21 -80 11 -165
l-5 -35q-13 -91 -56 -170q-44 -80 -116 -129q-63 -42 -145 -47q-20 -12 -41 -28zM475 560q-24 38 -83 40q-63 2 -103 -33q-41 -36 -63 -92t-29 -118q-8 -63 -6 -114q2 -53 26 -91q24 -39 83 -42q62 -2 102 34t62 91t30 117t6 117q-2 52 -25 91zM583 779h-328l14 82h327z" />
    <glyph glyph-name="uni01ED" unicode="&#x1ed;" horiz-adv-x="548" 
d="M221 -41q-29 -21 -33 -52q-3 -26 22 -28q14 0 39 10l9 -78q-32 -20 -74 -20q-44 0 -73 26q-29 27 -29 72q0 53 37 85q19 16 39 29q-55 20 -88 69q-54 79 -44 184q12 129 88 207q76 77 188 75q114 -2 167 -82t44 -186q-11 -118 -84 -200q-63 -71 -162 -79q-22 -14 -46 -32
zM187 127q18 -23 57 -23q65 -2 95 50q29 52 35 106q4 44 1 77q-3 35 -21 61q-18 25 -59 27q-43 1 -70 -24t-41 -62t-18 -73l-1 -11q-8 -88 22 -128zM490 628h-328l13 81h328z" />
    <glyph glyph-name="uni01EE" unicode="&#x1ee;" horiz-adv-x="639" 
d="M318 896l57 -69l82 69l121 2l1 -9l-161 -136h-86l-127 137v9zM86 592l21 119h515l-16 -89l-232 -226q75 -10 118 -55t59.5 -109t9.5 -131q-14 -136 -101.5 -225t-228.5 -86q-113 2 -178 68.5t-69 178.5l142 -1q1 -59 25.5 -93t87.5 -36q88 -2 129 56.5t50 136.5
q5 46 2 88q-4 42 -27.5 70t-78.5 30h-134l16 92l221 211z" />
    <glyph glyph-name="uni01EF" unicode="&#x1ef;" horiz-adv-x="561" 
d="M291 745l50 -67l75 66l121 2v-11l-148 -124h-94l-118 124v12zM245 151h-74l17 96l186 167l-289 1l20 113h452l-17 -100l-204 -190q81 -17 117 -78t30 -139q-5 -73 -46 -121t-103 -71t-129 -22q-94 2 -156 56t-60 152h137q-1 -41 21.5 -66.5t64.5 -27.5q47 -1 87.5 25.5
t47.5 75.5q19 125 -102 129z" />
    <glyph glyph-name="uni01F0" unicode="&#x1f0;" horiz-adv-x="273" 
d="M131 738l57 -69l82 68l122 3v-10l-160 -135h-87l-127 136v10zM112 528h138l-93 -545q-11 -87 -62.5 -142.5t-143.5 -55.5q-34 1 -74 9l18 112q27 -8 47 -8q36 0 53.5 27t23.5 58z" />
    <glyph glyph-name="uni01F1" unicode="&#x1f1;" horiz-adv-x="1219" 
d="M717 592l21 119h518l-16 -91l-425 -501l346 -1l-21 -118h-526l16 93l426 498zM10 0l124 711l204 -1q95 -2 157.5 -49.5t90 -124t17.5 -165.5l-3 -20q-19 -155 -119 -252t-241 -99h-230zM335 592h-78l-83 -474h60q96 0 149 61.5t68 151.5q14 80 7 141q-5 50 -33 84t-90 36
z" />
    <glyph glyph-name="uni01F2" unicode="&#x1f2;" horiz-adv-x="1125" 
d="M693 415l20 113h412l-16 -90l-297 -323l249 -1l-20 -114h-427l16 93l296 321zM10 0l124 711l204 -1q95 -2 157.5 -49.5t90 -124t17.5 -165.5l-3 -20q-19 -155 -119 -252t-241 -99h-230zM335 592h-78l-83 -474h60q96 0 149 61.5t68 151.5q14 80 7 141q-5 50 -33 84t-90 36
z" />
    <glyph glyph-name="uni01F3" unicode="&#x1f3;" horiz-adv-x="1041" 
d="M609 415l20 113h412l-16 -90l-297 -323l249 -1l-20 -114h-427l16 93l296 321zM320 0l8 57q-60 -68 -138 -67q-70 1 -108 43.5t-50.5 103.5t-6.5 119l1 8q22 160 112 235q50 42 126 39q74 -2 119 -58l52 270h138l-130 -750h-123zM164 257q-3 -28 -2 -63t15.5 -61.5
t53.5 -27.5q57 -2 101 54l37 211q-19 53 -76 55q-42 1 -69 -24t-41 -62t-18 -72z" />
    <glyph glyph-name="uni01F4" unicode="&#x1f4;" horiz-adv-x="660" 
d="M339 755l117 151h160l-156 -151h-121zM622 374l-45 -285q-47 -58 -126.5 -79t-149.5 -19q-98 1 -156.5 50t-81 127t-11.5 166l6 42q13 91 54.5 170.5t113 128t171.5 46.5q114 -2 176 -64t70 -173h-138q-4 53 -28.5 85t-80.5 34q-63 2 -102.5 -32t-61 -86.5t-29.5 -105.5
t-9.5 -83t1.5 -61q4 -52 30 -89q25 -36 87 -37q71 -2 124 35l24 122h-129l19 108h272z" />
    <glyph glyph-name="uni01F5" unicode="&#x1f5;" horiz-adv-x="554" 
d="M246 599l116 151h160l-155 -151h-121zM456 18q-15 -109 -92 -168.5t-186 -57.5q-53 1 -102.5 22.5t-83.5 62.5l68 84q46 -58 116 -60q56 -1 92.5 29t50.5 82l9 35q-57 -58 -130 -57q-71 1 -110.5 43t-53 103t-7.5 120l1 11q8 66 37 129t80.5 103.5t126.5 38.5
q83 -1 126 -60l19 51l126 -1zM165 257q-3 -29 -1 -64t18.5 -61t55.5 -27q58 -2 100 48l41 223q-21 47 -77 49q-62 2 -94.5 -48t-42.5 -120z" />
    <glyph glyph-name="uni01F6" unicode="&#x1f6;" horiz-adv-x="1036" 
d="M553 711h143l-79 -470q-6 -51 7.5 -91t74.5 -42q62 -2 93 36t40 95l49 289h143l-48 -286q-16 -116 -91 -185.5t-195 -67.5q-113 2 -171 71.5t-45 181.5l9 63h-276l-53 -305h-144l124 711h143l-50 -288h276z" />
    <glyph glyph-name="uni01F7" unicode="&#x1f7;" horiz-adv-x="648" 
d="M144 -72l-27 -132h-142l158 915h136l-3 -16q56 26 119 26q136 -1 196 -92.5t45 -217.5l-3 -22q-16 -121 -86.5 -213t-175 -154.5t-217.5 -93.5zM379 603q-64 1 -129 -53l-94 -502q73 30 141.5 76t116 109t62.5 144q12 67 8 123q-3 43 -26.5 72.5t-78.5 30.5z" />
    <glyph glyph-name="uni01F8" unicode="&#x1f8;" horiz-adv-x="685" 
d="M417 901l70 -151l-103 1l-109 149zM696 711l-123 -711h-139l-198 475l-82 -475h-144l124 711h138l198 -475l83 475h143z" />
    <glyph glyph-name="uni01F9" unicode="&#x1f9;" horiz-adv-x="543" 
d="M320 750l70 -151l-103 1l-109 149zM299 424q-54 2 -97 -50l-66 -374h-137l91 528l128 1l-10 -62q65 73 153 71q87 -1 115.5 -63t21.5 -139l-56 -336h-138l56 338q4 38 -7.5 62t-53.5 24z" />
    <glyph glyph-name="Aringacute" unicode="&#x1fa;" horiz-adv-x="722" 
d="M340 680q-25 33 -25 76q0 52 35.5 89.5t88.5 40.5l40 67h116l-71 -94q24 -18 37.5 -45t13.5 -58q0 -29 -12 -54.5t-34 -44.5l132 -657h-144l-31 171h-273l-90 -171h-153zM445 716q17 0 28.5 12t11.5 28q0 17 -11.5 28.5t-28.5 11.5q-16 0 -28 -11.5t-12 -28.5
q0 -16 12 -28t28 -12zM463 295l-33 180l-11 86h-8l-40 -86l-94 -180h186z" />
    <glyph glyph-name="aringacute" unicode="&#x1fb;" horiz-adv-x="557" 
d="M353 941h138l-91 -115h-99zM329 584q-45 0 -76.5 31.5t-31.5 76.5t31.5 76.5t76.5 31.5t76.5 -31.5t31.5 -76.5t-31.5 -76.5t-76.5 -31.5zM329 657q14 0 24.5 10.5t10.5 24.5t-10.5 24.5t-24.5 10.5t-24 -10.5t-10 -24.5t10 -24.5t24 -10.5zM181 -16q-46 0 -83.5 21.5
t-59.5 58t-22 79.5q0 86 58.5 135t168.5 49q73 0 135 -25l5 22l2 22q0 32 -29.5 53t-72.5 21q-38 0 -69.5 -14.5t-53.5 -41.5l-87 64q39 48 98 73t128 25q99 0 156.5 -48t57.5 -126q0 -20 -5 -52l-54 -300h-129l9 52h-8q-51 -68 -145 -68zM226 86q54 0 91 34.5t45 87.5
q-28 12 -53 18t-60 6q-49 0 -74.5 -20.5t-25.5 -58.5q0 -31 21.5 -49t55.5 -18z" />
    <glyph glyph-name="AEacute" unicode="&#x1fc;" horiz-adv-x="1012" 
d="M459 716h536l-23 -128h-319l-29 -166h287l-23 -128h-287l-30 -166h320l-23 -128h-454l31 173h-233l-128 -173h-167zM467 301l51 287h-10l-43 -70l-161 -217h163zM750 908h154l-114 -136h-106z" />
    <glyph glyph-name="aeacute" unicode="&#x1fd;" horiz-adv-x="919" 
d="M180 -16q-45 0 -82.5 21.5t-59.5 58t-22 79.5q0 91 63.5 137.5t170.5 46.5q40 0 75 -7.5t54 -15.5l5 22q2 14 2 17q0 36 -27.5 56.5t-73.5 20.5q-77 0 -111 -52l-94 51q34 55 90 81t128 26q63 0 108.5 -21.5t69.5 -57.5q73 79 190 79q68 0 118.5 -30t77 -79.5
t26.5 -105.5q0 -46 -13 -87h-383q-1 -3 -1 -11q2 -53 37 -83t86 -30q54 0 88 18.5t57 57.5l99 -52q-44 -70 -104 -105t-150 -35q-67 0 -116 29.5t-79 77.5q-45 -57 -102 -82t-127 -25zM767 317v4q0 41 -33.5 69.5t-82.5 28.5q-52 0 -90.5 -30t-53.5 -72h260zM226 86
q54 0 91 34.5t45 87.5q-48 24 -113 24q-49 0 -74.5 -20.5t-25.5 -58.5q0 -31 21.5 -49t55.5 -18zM511 744h153l-113 -136h-106z" />
    <glyph glyph-name="Oslashacute" unicode="&#x1fe;" horiz-adv-x="840" 
d="M94 15l53 67q-43 45 -66.5 104.5t-23.5 130.5q0 112 53.5 207t150.5 151.5t220 56.5q84 0 159 -35l56 70l84 -68l-52 -65q44 -45 67.5 -105t23.5 -130q0 -112 -53.5 -207t-150 -151.5t-219.5 -56.5q-88 0 -160 35l-57 -71zM553 588q-42 16 -84 16q-77 0 -140 -38
t-99.5 -102.5t-36.5 -141.5q0 -78 43 -130zM407 112q77 0 140 38t99.5 103.5t36.5 143.5q0 74 -43 127l-317 -396q40 -16 84 -16zM509 908h154l-114 -136h-106z" />
    <glyph glyph-name="oslashacute" unicode="&#x1ff;" horiz-adv-x="602" 
d="M56 13l33 43q-29 32 -45 75t-16 91q0 85 38 154.5t107.5 109.5t158.5 40q59 0 108 -23l40 52l74 -62l-38 -46q58 -66 58 -159q0 -85 -38.5 -154.5t-107.5 -109.5t-159 -40q-53 0 -99 19l-37 -48zM361 404q-16 8 -43 8q-43 0 -80.5 -24t-60 -64.5t-22.5 -87.5
q0 -40 18 -73zM283 96q43 0 80.5 23.5t60 64.5t22.5 90q0 37 -14 64l-184 -236q17 -6 35 -6zM364 744h153l-113 -136h-106z" />
    <glyph glyph-name="uni0200" unicode="&#x200;" horiz-adv-x="653" 
d="M289 892l96 -129l-104 -1l-118 129zM472 892l74 -129l-102 -1l-97 129zM-51 0l380 711h132l136 -711h-147l-22 146h-248l-74 -146h-157zM238 265h172l-39 265z" />
    <glyph glyph-name="uni0201" unicode="&#x201;" horiz-adv-x="520" 
d="M195 741l97 -129l-104 -1l-119 129zM379 741l74 -129l-102 -1l-97 129zM306 0q-6 20 -6 48q-59 -59 -135 -58q-66 1 -113 43.5t-44 111.5q2 69 41.5 108t98 54.5t117.5 15.5l65 -1l7 32q5 33 -7.5 56t-48.5 24q-70 2 -83 -64h-138q3 59 39 96.5t89 55.5t105 17
q83 -2 137 -50.5t46 -135.5l-38 -237l-5 -47q-3 -32 8 -60v-9h-135zM199 97q60 -2 104 52l17 92h-47q-42 0 -80.5 -19.5t-44.5 -66.5q-4 -26 10.5 -42t40.5 -16z" />
    <glyph glyph-name="uni0202" unicode="&#x202;" horiz-adv-x="653" 
d="M577 775l-98 1q3 64 -53 65q-64 1 -77 -65l-99 -1q4 72 54.5 110t119.5 36q66 -1 109.5 -39.5t43.5 -106.5zM-51 0l380 711h132l136 -711h-147l-22 146h-248l-74 -146h-157zM238 265h172l-39 265z" />
    <glyph glyph-name="uni0203" unicode="&#x203;" horiz-adv-x="520" 
d="M484 624l-97 1q3 64 -54 64q-64 1 -77 -64l-99 -1q4 72 55 109.5t120 36.5q66 -1 109 -39.5t43 -106.5zM306 0q-6 20 -6 48q-59 -59 -135 -58q-66 1 -113 43.5t-44 111.5q2 69 41.5 108t98 54.5t117.5 15.5l65 -1l7 32q5 33 -7.5 56t-48.5 24q-70 2 -83 -64h-138
q3 59 39 96.5t89 55.5t105 17q83 -2 137 -50.5t46 -135.5l-38 -237l-5 -47q-3 -32 8 -60v-9h-135zM199 97q60 -2 104 52l17 92h-47q-42 0 -80.5 -19.5t-44.5 -66.5q-4 -26 10.5 -42t40.5 -16z" />
    <glyph glyph-name="uni0204" unicode="&#x204;" horiz-adv-x="545" 
d="M262 894l96 -129l-104 -1l-118 129zM445 894l75 -129l-103 -1l-97 129zM10 0l124 711h462l-21 -119h-318l-30 -169h273l-21 -115h-271l-34 -190h321l-21 -118h-464z" />
    <glyph glyph-name="uni0205" unicode="&#x205;" horiz-adv-x="524" 
d="M187 741l96 -129l-104 -1l-118 129zM371 741l74 -129l-103 -1l-96 129zM458 85q-34 -50 -91.5 -73t-116.5 -22q-109 1 -169.5 75t-52.5 180l1 19q7 73 42 136.5t93.5 101.5t137.5 36q111 -2 158 -80t36 -180l-8 -60h-324q-1 -47 23.5 -79.5t74.5 -34.5q73 -2 132 59z
M294 425q-50 1 -77.5 -34t-42.5 -77h190l3 13q6 40 -12 68.5t-61 29.5z" />
    <glyph glyph-name="uni0206" unicode="&#x206;" horiz-adv-x="545" 
d="M550 776l-97 1q3 64 -54 65q-64 1 -77 -65h-99q4 72 55 109.5t119 36.5q66 -1 109.5 -40t43.5 -107zM10 0l124 711h462l-21 -119h-318l-30 -169h273l-21 -115h-271l-34 -190h321l-21 -118h-464z" />
    <glyph glyph-name="uni0207" unicode="&#x207;" horiz-adv-x="524" 
d="M476 624l-98 1q3 64 -54 65q-64 1 -77 -65h-99q4 72 55 109.5t120 36.5q66 -1 109.5 -40t43.5 -107zM458 85q-34 -50 -91.5 -73t-116.5 -22q-109 1 -169.5 75t-52.5 180l1 19q7 73 42 136.5t93.5 101.5t137.5 36q111 -2 158 -80t36 -180l-8 -60h-324q-1 -47 23.5 -79.5
t74.5 -34.5q73 -2 132 59zM294 425q-50 1 -77.5 -34t-42.5 -77h190l3 13q6 40 -12 68.5t-61 29.5z" />
    <glyph glyph-name="uni0208" unicode="&#x208;" horiz-adv-x="283" 
d="M102 894l96 -129l-104 -1l-118 129zM286 894l74 -129l-103 -1l-96 129zM285 711l-123 -711h-143l123 711h143z" />
    <glyph glyph-name="uni0209" unicode="&#x209;" horiz-adv-x="265" 
d="M66 733l96 -129h-104l-118 128zM250 733l74 -129h-103l-96 128zM242 528l-92 -528h-138l92 528h138z" />
    <glyph glyph-name="uni020A" unicode="&#x20a;" horiz-adv-x="283" 
d="M391 776l-98 1q3 64 -53 65q-64 1 -77 -65h-100q4 72 55 109.5t120 36.5q66 -1 109.5 -40t43.5 -107zM285 711l-123 -711h-143l123 711h143z" />
    <glyph glyph-name="uni020B" unicode="&#x20b;" horiz-adv-x="265" 
d="M354 616l-97 1q3 64 -54 65q-64 1 -77 -65h-99q4 72 55 109.5t120 36.5q66 -1 109 -40t43 -107zM242 528l-92 -528h-138l92 528h138z" />
    <glyph glyph-name="uni020C" unicode="&#x20c;" horiz-adv-x="669" 
d="M295 892l96 -129l-104 -1l-118 129zM479 892l74 -129l-103 -1l-96 129zM642 371l-5 -35q-13 -91 -56.5 -170.5t-116 -128.5t-171.5 -47q-97 2 -154 53.5t-78.5 131t-11.5 164.5l4 33q13 90 56.5 171t116 130.5t172.5 47.5q97 -2 154 -53.5t78.5 -131.5t11.5 -165z
M500 469q-2 52 -25.5 90.5t-82.5 40.5q-63 2 -103.5 -33.5t-62.5 -91.5t-29.5 -118.5t-5.5 -113.5q2 -53 26 -91.5t83 -41.5q62 -2 102 34t62 91t30 117t6 117z" />
    <glyph glyph-name="uni020D" unicode="&#x20d;" horiz-adv-x="548" 
d="M202 741l96 -129l-104 -1l-118 129zM385 741l74 -129l-102 -1l-97 129zM26 256q12 129 88 206.5t188 75.5q114 -2 167 -82t44 -186q-11 -118 -84 -200t-192 -80q-113 2 -167 81.5t-44 184.5zM166 266l-1 -11q-8 -88 22 -128q18 -23 57 -23q65 -2 94.5 50t35.5 106
q4 44 1 77q-3 35 -21 60.5t-59 27.5q-43 1 -70 -24t-41 -62t-18 -73z" />
    <glyph glyph-name="uni020E" unicode="&#x20e;" horiz-adv-x="669" 
d="M584 775l-98 1q3 64 -53 65q-64 1 -78 -65l-99 -1q4 72 55 110t120 36q66 -1 109.5 -39.5t43.5 -106.5zM642 371l-5 -35q-13 -91 -56.5 -170.5t-116 -128.5t-171.5 -47q-97 2 -154 53.5t-78.5 131t-11.5 164.5l4 33q13 90 56.5 171t116 130.5t172.5 47.5q97 -2 154 -53.5
t78.5 -131.5t11.5 -165zM500 469q-2 52 -25.5 90.5t-82.5 40.5q-63 2 -103.5 -33.5t-62.5 -91.5t-29.5 -118.5t-5.5 -113.5q2 -53 26 -91.5t83 -41.5q62 -2 102 34t62 91t30 117t6 117z" />
    <glyph glyph-name="uni020F" unicode="&#x20f;" horiz-adv-x="548" 
d="M490 624l-97 1q3 64 -54 64q-64 1 -77 -64l-99 -1q4 72 55 109.5t119 36.5q66 -1 109.5 -39.5t43.5 -106.5zM26 256q12 129 88 206.5t188 75.5q114 -2 167 -82t44 -186q-11 -118 -84 -200t-192 -80q-113 2 -167 81.5t-44 184.5zM166 266l-1 -11q-8 -88 22 -128
q18 -23 57 -23q65 -2 94.5 50t35.5 106q4 44 1 77q-3 35 -21 60.5t-59 27.5q-43 1 -70 -24t-41 -62t-18 -73z" />
    <glyph glyph-name="uni0210" unicode="&#x210;" horiz-adv-x="619" 
d="M244 892l96 -129l-104 -1l-118 129zM427 892l74 -129l-102 -1l-97 129zM399 0l-84 261h-116l-45 -261h-144l124 711l249 -1q98 -2 165.5 -52.5t59.5 -157.5q-10 -146 -156 -203l100 -289v-8h-153zM257 592l-37 -213l106 -1q53 0 91.5 28.5t45.5 82.5q15 99 -84 103h-122z
" />
    <glyph glyph-name="uni0211" unicode="&#x211;" horiz-adv-x="354" 
d="M129 741l97 -129l-104 -1l-119 129zM313 741l74 -129l-102 -1l-97 129zM316 401q-74 1 -115 -54l-62 -347h-138l92 528l129 1l-12 -65q50 75 123 76q20 0 47 -8l-17 -136q-38 5 -47 5z" />
    <glyph glyph-name="uni0212" unicode="&#x212;" horiz-adv-x="619" 
d="M533 775l-98 1q3 64 -54 65q-64 1 -77 -65l-99 -1q4 72 55 110t120 36q66 -1 109.5 -39.5t43.5 -106.5zM399 0l-84 261h-116l-45 -261h-144l124 711l249 -1q98 -2 165.5 -52.5t59.5 -157.5q-10 -146 -156 -203l100 -289v-8h-153zM257 592l-37 -213l106 -1q53 0 91.5 28.5
t45.5 82.5q15 99 -84 103h-122z" />
    <glyph glyph-name="uni0213" unicode="&#x213;" horiz-adv-x="354" 
d="M418 624l-98 1q3 64 -53 64q-64 1 -78 -64l-99 -1q4 72 55 109.5t120 36.5q66 -1 109.5 -39.5t43.5 -106.5zM316 401q-74 1 -115 -54l-62 -347h-138l92 528l129 1l-12 -65q50 75 123 76q20 0 47 -8l-17 -136q-38 5 -47 5z" />
    <glyph glyph-name="uni0214" unicode="&#x214;" horiz-adv-x="638" 
d="M278 892l97 -129l-104 -1l-119 129zM462 892l74 -129l-102 -1l-97 129zM513 711h144l-80 -468q-16 -119 -98 -187t-201 -66q-112 1 -178 69.5t-53 182.5l79 469h144l-80 -469q-7 -55 13.5 -93.5t80.5 -40.5q63 -2 100.5 35t48.5 96z" />
    <glyph glyph-name="uni0215" unicode="&#x215;" horiz-adv-x="543" 
d="M206 741l96 -129l-104 -1l-118 129zM390 741l74 -129l-103 -1l-96 129zM313 0l11 55q-59 -66 -146 -65q-86 1 -119.5 59.5t-25.5 137.5l57 341h138l-59 -343q-4 -32 7 -55.5t47 -24.5q64 -2 107 50l65 373h139l-92 -528h-129z" />
    <glyph glyph-name="uni0216" unicode="&#x216;" horiz-adv-x="638" 
d="M567 775l-97 1q3 64 -54 65q-64 1 -77 -65l-99 -1q4 72 55 110t120 36q66 -1 109 -39.5t43 -106.5zM513 711h144l-80 -468q-16 -119 -98 -187t-201 -66q-112 1 -178 69.5t-53 182.5l79 469h144l-80 -469q-7 -55 13.5 -93.5t80.5 -40.5q63 -2 100.5 35t48.5 96z" />
    <glyph glyph-name="uni0217" unicode="&#x217;" horiz-adv-x="543" 
d="M495 624l-98 1q3 64 -54 64q-64 1 -77 -64l-99 -1q4 72 55 109.5t120 36.5q66 -1 109.5 -39.5t43.5 -106.5zM313 0l11 55q-59 -66 -146 -65q-86 1 -119.5 59.5t-25.5 137.5l57 341h138l-59 -343q-4 -32 7 -55.5t47 -24.5q64 -2 107 50l65 373h139l-92 -528h-129z" />
    <glyph glyph-name="uni0218" unicode="&#x218;" horiz-adv-x="590" 
d="M262 -16q-92 0 -158 52.5t-83 150.5l129 52q5 -56 38 -91.5t89 -35.5q52 0 87.5 26t35.5 69q0 37 -26 62t-89 50l-35 14q-65 25 -106 71.5t-41 118.5q0 59 33.5 107t91.5 75t129 27q68 0 115 -23.5t71.5 -58.5t31.5 -71l-124 -47q-8 35 -34.5 55.5t-72.5 20.5
q-44 0 -75 -21.5t-31 -58.5q0 -32 23.5 -54t76.5 -41l41 -15q76 -29 116.5 -76t40.5 -120q0 -69 -34.5 -123t-96.5 -84.5t-143 -30.5zM192 -183q-20 8 -31.5 25t-11.5 39q0 29 20.5 50t50.5 21t50.5 -21t20.5 -51q0 -29 -19 -52l-94 -114l-44 37z" />
    <glyph glyph-name="uni0219" unicode="&#x219;" horiz-adv-x="498" 
d="M227 -16q-87 0 -145.5 39.5t-75.5 100.5l121 49q8 -36 38.5 -55t71.5 -19q34 0 57.5 14.5t23.5 39.5q0 44 -70 60l-50 12q-57 13 -97 50t-40 92q0 72 59.5 115.5t158.5 43.5q75 0 125.5 -30t73.5 -88l-120 -44q-9 27 -33.5 41.5t-55.5 14.5q-37 0 -57.5 -13.5
t-20.5 -32.5q0 -16 16.5 -29.5t41.5 -19.5l73 -18q60 -15 94.5 -54t34.5 -89q0 -54 -27.5 -94.5t-78 -63t-118.5 -22.5zM161 -183q-20 8 -31.5 25t-11.5 39q0 29 20.5 50t50.5 21t50.5 -21t20.5 -51q0 -29 -19 -52l-94 -114l-44 37z" />
    <glyph glyph-name="uni021A" unicode="&#x21a;" horiz-adv-x="588" 
d="M285 588h-200l23 128h534l-22 -128h-200l-105 -588h-134zM199 -183q-20 8 -31.5 25t-11.5 39q0 29 20.5 50t50.5 21t50.5 -21t20.5 -51q0 -29 -19 -52l-94 -114l-44 37z" />
    <glyph glyph-name="uni021B" unicode="&#x21b;" horiz-adv-x="418" 
d="M242 -8q-66 0 -104.5 35.5t-38.5 103.5q0 19 5 52l37 215h-88l20 112h89l25 144h131l-25 -144h124l-20 -112h-125l-37 -209q-2 -11 -2 -24q0 -23 14 -36.5t37 -13.5q20 0 35.5 5.5t35.5 16.5l-22 -128q-42 -17 -91 -17zM175 -183q-20 8 -31.5 25t-11.5 39q0 29 20.5 50
t50.5 21t50.5 -21t20.5 -51q0 -29 -19 -52l-94 -114l-44 37z" />
    <glyph glyph-name="uni021C" unicode="&#x21c;" horiz-adv-x="583" 
d="M521 171q-8 -97 -60 -165t-129.5 -112t-165.5 -70t-169 -37l12 117q75 16 154.5 45t138.5 81q79 69 81 188q0 23 -15 39q-127 -66 -306 -110l8 113l107 32q59 18 112.5 45t91 67t46.5 101q6 48 -19 72.5t-73 25.5q-42 1 -76.5 -20t-42.5 -64l-143 -1q4 69 45 114t101 67
t123 22q62 -1 116 -22t86 -64.5t27 -112.5q-10 -113 -110 -197q35 -29 49 -69.5t11 -84.5z" />
    <glyph glyph-name="uni021D" unicode="&#x21d;" horiz-adv-x="491" 
d="M421 94q-5 -77 -47 -130.5t-105 -88.5t-134 -56t-134 -32l11 106q55 19 114.5 42.5t104.5 63.5t58 105q6 33 -1 61q-95 -53 -236 -87l10 104q46 15 103.5 36.5t102 57.5t53.5 94q9 62 -51 62q-29 1 -53 -12.5t-31 -42.5l-139 -1q3 57 36.5 93t83 53t100.5 16
q47 -1 92.5 -15t75 -47t26.5 -88q-5 -90 -87 -161q54 -48 47 -133z" />
    <glyph glyph-name="uni021E" unicode="&#x21e;" horiz-adv-x="686" 
d="M372 903l57 -69l82 69l121 3l1 -10l-160 -135h-87l-127 136v9zM430 0l53 305h-276l-53 -305h-144l124 711h143l-50 -288h276l50 288h143l-123 -711h-143z" />
    <glyph glyph-name="uni021F" unicode="&#x21f;" horiz-adv-x="543" 
d="M284 937l56 -69l82 68l122 3v-10l-160 -135h-87l-127 136v9zM299 424q-56 2 -96 -47l-67 -377h-138l130 750h138l-55 -280q62 70 143 68q89 -1 120 -63.5t24 -141.5l-56 -333h-138l56 335q5 38 -7 63t-54 26z" />
    <glyph glyph-name="uni0220" unicode="&#x220;" horiz-adv-x="623" 
d="M602 499l-120 -703h-138l120 703q13 104 -86 107q-56 1 -128 -35l-102 -571h-138l124 711l131 2l-5 -27q68 36 138 34q96 -1 155 -62.5t49 -158.5z" />
    <glyph glyph-name="uni0221" unicode="&#x221;" horiz-adv-x="718" 
d="M434 750h138l-125 -698q26 4 51 5q60 0 102 -32.5t40 -97.5q-2 -74 -57.5 -107.5t-122.5 -32.5q-46 0 -90.5 18.5t-60.5 66.5l-94 -73l-51 94l142 105l13 51q-55 -60 -129 -59q-71 1 -108.5 43.5t-49.5 103.5t-7 119l1 11q8 65 35.5 128.5t77 104t125.5 38.5
q74 -2 118 -58zM162 194q0 -35 15 -61.5t54 -27.5q56 -2 100 54l38 211q-19 52 -76 55q-43 1 -69.5 -24t-40.5 -62t-18 -72q-4 -40 -3 -73zM432 -66q-3 -20 2.5 -36.5t29.5 -16.5q19 0 34.5 11.5t19.5 30.5q3 19 -9.5 27.5t-28.5 8.5t-45 -7z" />
    <glyph glyph-name="uni0222" unicode="&#x222;" horiz-adv-x="617" 
d="M565 229q-10 -117 -94.5 -177.5t-194.5 -61.5h-15q-103 3 -171.5 62t-59.5 168q9 115 111 180q-61 51 -57 138q5 98 73 139.5t157 44.5l-12 -115q-28 -8 -47.5 -23.5t-24.5 -45.5q-7 -42 19 -57.5t88 -17.5q45 0 88 15.5t52 67.5q4 28 -8 41t-37 20l11 114q78 -5 130 -48
t47 -127q-3 -54 -31.5 -90t-75.5 -61q59 -65 52 -166zM316 343q-57 0 -96 -33t-46 -90q-6 -49 18 -79t74 -33h9q57 0 97 31.5t47 89.5q7 51 -17.5 81t-75.5 33h-10z" />
    <glyph glyph-name="uni0223" unicode="&#x223;" horiz-adv-x="593" 
d="M548 226q-9 -117 -91.5 -176t-192.5 -60h-15q-102 3 -169.5 60.5t-58.5 166.5q9 117 111 179q-61 59 -53 159q7 99 70.5 151t159.5 55l-12 -110q-70 -28 -80 -99q-8 -52 19 -74.5t75 -24.5h13q55 0 96.5 24t50.5 83q5 32 -4.5 54.5t-39.5 35.5l11 110q84 -5 130 -59
q45 -55 39 -139q-8 -114 -109 -171q59 -64 50 -165zM304 340q-57 0 -97.5 -33t-48.5 -90q-7 -50 18.5 -80.5t75.5 -32.5h10q58 0 99.5 31.5t49.5 90.5q7 52 -19.5 81.5t-77.5 31.5z" />
    <glyph glyph-name="uni0224" unicode="&#x224;" horiz-adv-x="623" 
d="M86 592l21 119h518l-16 -91l-424 -501l193 -1q82 -2 127.5 -50.5t39.5 -131.5q-2 -30 -14 -72h-118q7 27 9 44q4 32 -2 60.5t-45 31.5h-392l17 93l425 498z" />
    <glyph glyph-name="uni0225" unicode="&#x225;" horiz-adv-x="543" 
d="M479 438l-297 -323l114 -2q80 -2 127 -46t41 -127q-3 -34 -14 -72h-112l9 44q4 32 -5.5 58.5t-47.5 29.5h-311l17 93l295 321l-233 1l21 113h411z" />
    <glyph glyph-name="uni0226" unicode="&#x226;" horiz-adv-x="653" 
d="M351 828q-1 31 18.5 50.5t49.5 19.5q29 0 50.5 -17.5t22.5 -47.5q0 -30 -19.5 -49.5t-49.5 -19.5q-29 0 -50 17t-22 47zM-51 0l380 711h132l136 -711h-147l-22 146h-248l-74 -146h-157zM238 265h172l-39 265z" />
    <glyph glyph-name="uni0227" unicode="&#x227;" horiz-adv-x="520" 
d="M257 677q-1 31 19 50.5t50 19.5q29 0 50 -18t22 -47q0 -30 -19.5 -49.5t-48.5 -20.5q-29 0 -50.5 17.5t-22.5 47.5zM306 0q-6 20 -6 48q-59 -59 -135 -58q-66 1 -113 43.5t-44 111.5q2 69 41.5 108t98 54.5t117.5 15.5l65 -1l7 32q5 33 -7.5 56t-48.5 24q-70 2 -83 -64
h-138q3 59 39 96.5t89 55.5t105 17q83 -2 137 -50.5t46 -135.5l-38 -237l-5 -47q-3 -32 8 -60v-9h-135zM199 97q60 -2 104 52l17 92h-47q-42 0 -80.5 -19.5t-44.5 -66.5q-4 -26 10.5 -42t40.5 -16z" />
    <glyph glyph-name="uni0228" unicode="&#x228;" horiz-adv-x="545" 
d="M352 -101q0 -49 -29 -75q-30 -25 -72 -35q-43 -10 -81 -11l4 82q56 4 63 44q5 25 -19 29t-41 5l19 62h-186l124 711h462l-21 -119h-318l-30 -169h273l-21 -115h-271l-34 -190h321l-21 -118h-176l-7 -22q61 -13 61 -79z" />
    <glyph glyph-name="uni0229" unicode="&#x229;" horiz-adv-x="524" 
d="M323 -106q0 -49 -29 -75q-30 -25 -72 -35t-81 -11l4 82q56 4 63 44q5 25 -19 29t-41 6l21 69q-53 18 -88 62q-61 74 -53 180l1 19q7 73 42 137q35 63 94 101q58 38 137 36q111 -2 158 -80t36 -180l-8 -60h-324q-1 -47 24 -79q24 -33 74 -35q73 -2 132 59l64 -78
q-34 -50 -91 -73q-49 -20 -99 -22l-6 -17q61 -13 61 -79zM217 391q-28 -35 -43 -77h190l3 13q6 40 -12 69q-18 28 -61 29q-50 1 -77 -34z" />
    <glyph glyph-name="uni022A" unicode="&#x22a;" horiz-adv-x="669" 
d="M621 1000l-15 -82h-328l14 82h329zM258 816q0 26 18 42.5t43 17t45.5 -14.5t21.5 -42q0 -26 -18.5 -42t-43.5 -17q-25 0 -45 14.5t-21 41.5zM464 816q0 26 18 42.5t43.5 17t45 -14.5t20.5 -42t-17 -43t-44 -16q-25 -1 -45 14t-21 42zM642 371l-5 -35
q-13 -91 -56.5 -170.5t-116 -128.5t-171.5 -47q-97 2 -154 53.5t-78.5 131t-11.5 164.5l4 33q13 90 56.5 171t116 130.5t172.5 47.5q97 -2 154 -53.5t78.5 -131.5t11.5 -165zM500 469q-2 52 -25.5 90.5t-82.5 40.5q-63 2 -103.5 -33.5t-62.5 -91.5t-29.5 -118.5t-5.5 -113.5
q2 -53 26 -91.5t83 -41.5q62 -2 102 34t62 91t30 117t6 117z" />
    <glyph glyph-name="uni022B" unicode="&#x22b;" horiz-adv-x="548" 
d="M530 861l-14 -81h-328l14 81h328zM150 666q0 27 19 45t45 18t46.5 -16.5t21.5 -43.5t-18 -45.5t-46 -19.5t-47 16.5t-21 45.5zM381 665q0 27 18.5 45.5t45.5 18.5q26 1 46.5 -16.5t21.5 -44.5t-18.5 -45.5t-45.5 -18.5q-26 -1 -46.5 16.5t-21.5 44.5zM26 256
q12 129 88 206.5t188 75.5q114 -2 167 -82t44 -186q-11 -118 -84 -200t-192 -80q-113 2 -167 81.5t-44 184.5zM166 266l-1 -11q-8 -88 22 -128q18 -23 57 -23q65 -2 94.5 50t35.5 106q4 44 1 77q-3 35 -21 60.5t-59 27.5q-43 1 -70 -24t-41 -62t-18 -73z" />
    <glyph glyph-name="uni022C" unicode="&#x22c;" horiz-adv-x="669" 
d="M622 1003l-15 -81h-328l14 81h329zM513 874l55 -16q-3 -33 -22 -61.5t-57 -29.5q-31 0 -55.5 18.5t-53.5 17.5q-29 -2 -42 -43l-58 16q3 34 23 62.5t58 28.5q30 0 55 -18.5t55 -16.5q18 1 27.5 14t14.5 28zM642 371l-5 -35q-13 -91 -56.5 -170.5t-116 -128.5t-171.5 -47
q-97 2 -154 53.5t-78.5 131t-11.5 164.5l4 33q13 90 56.5 171t116 130.5t172.5 47.5q97 -2 154 -53.5t78.5 -131.5t11.5 -165zM500 469q-2 52 -25.5 90.5t-82.5 40.5q-63 2 -103.5 -33.5t-62.5 -91.5t-29.5 -118.5t-5.5 -113.5q2 -53 26 -91.5t83 -41.5q62 -2 102 34t62 91
t30 117t6 117z" />
    <glyph glyph-name="uni022D" unicode="&#x22d;" horiz-adv-x="548" 
d="M535 887l-15 -81h-328l15 81h328zM439 749l80 -5q-3 -49 -31 -91.5t-84 -41.5q-36 0 -64 22.5t-63 22.5q-37 -1 -50 -48l-81 5q3 48 32 91t84 42q35 -1 63.5 -23.5t63.5 -21.5q37 1 50 48zM26 256q12 129 88 206.5t188 75.5q114 -2 167 -82t44 -186q-11 -118 -84 -200
t-192 -80q-113 2 -167 81.5t-44 184.5zM166 266l-1 -11q-8 -88 22 -128q18 -23 57 -23q65 -2 94.5 50t35.5 106q4 44 1 77q-3 35 -21 60.5t-59 27.5q-43 1 -70 -24t-41 -62t-18 -73z" />
    <glyph glyph-name="uni022E" unicode="&#x22e;" horiz-adv-x="669" 
d="M357 828q-1 31 19 50.5t50 19.5q29 0 50 -17.5t22 -47.5q0 -30 -19.5 -49.5t-49.5 -19.5q-29 0 -50 17t-22 47zM642 371l-5 -35q-13 -91 -56.5 -170.5t-116 -128.5t-171.5 -47q-97 2 -154 53.5t-78.5 131t-11.5 164.5l4 33q13 90 56.5 171t116 130.5t172.5 47.5
q97 -2 154 -53.5t78.5 -131.5t11.5 -165zM500 469q-2 52 -25.5 90.5t-82.5 40.5q-63 2 -103.5 -33.5t-62.5 -91.5t-29.5 -118.5t-5.5 -113.5q2 -53 26 -91.5t83 -41.5q62 -2 102 34t62 91t30 117t6 117z" />
    <glyph glyph-name="uni022F" unicode="&#x22f;" horiz-adv-x="548" 
d="M264 677q-1 31 18.5 50.5t50.5 19.5q29 0 50 -18t22 -47q0 -30 -19.5 -49.5t-49.5 -20.5q-29 0 -50 17.5t-22 47.5zM26 256q12 129 88 206.5t188 75.5q114 -2 167 -82t44 -186q-11 -118 -84 -200t-192 -80q-113 2 -167 81.5t-44 184.5zM166 266l-1 -11q-8 -88 22 -128
q18 -23 57 -23q65 -2 94.5 50t35.5 106q4 44 1 77q-3 35 -21 60.5t-59 27.5q-43 1 -70 -24t-41 -62t-18 -73z" />
    <glyph glyph-name="uni0230" unicode="&#x230;" horiz-adv-x="669" 
d="M621 1000l-15 -82h-328l14 82h329zM361 819q-1 27 18 42.5t44 16.5q25 0 45 -14.5t21 -41.5t-17.5 -43t-43.5 -17q-25 0 -46 15t-21 42zM642 371l-5 -35q-13 -91 -56.5 -170.5t-116 -128.5t-171.5 -47q-97 2 -154 53.5t-78.5 131t-11.5 164.5l4 33q13 90 56.5 171
t116 130.5t172.5 47.5q97 -2 154 -53.5t78.5 -131.5t11.5 -165zM500 469q-2 52 -25.5 90.5t-82.5 40.5q-63 2 -103.5 -33.5t-62.5 -91.5t-29.5 -118.5t-5.5 -113.5q2 -53 26 -91.5t83 -41.5q62 -2 102 34t62 91t30 117t6 117z" />
    <glyph glyph-name="uni0231" unicode="&#x231;" horiz-adv-x="548" 
d="M534 882l-14 -82h-329l15 82h328zM285 630q-21 17 -22 47t19 50t50 20q29 0 50 -18t22 -47q1 -30 -19 -49.5t-50 -20.5q-29 0 -50 18zM26 256q12 129 88 206.5t188 75.5q114 -2 167 -82t44 -186q-11 -118 -84 -200t-192 -80q-113 2 -167 81.5t-44 184.5zM166 266l-1 -11
q-8 -88 22 -128q18 -23 57 -23q65 -2 94.5 50t35.5 106q4 44 1 77q-3 35 -21 60.5t-59 27.5q-43 1 -70 -24t-41 -62t-18 -73z" />
    <glyph glyph-name="uni0232" unicode="&#x232;" horiz-adv-x="600" 
d="M562 861l-12 -82h-328l13 82h327zM226 711l87 -319l198 319h165l-311 -461l-43 -250h-145l46 266l-148 444z" />
    <glyph glyph-name="uni0233" unicode="&#x233;" horiz-adv-x="487" 
d="M482 709l-12 -81h-328l13 81h327zM220 -80q-27 -58 -70 -96.5t-111 -38.5q-24 0 -66 10l10 108l19 -2q71 0 103 57l26 49l-86 521h143l37 -327l151 327h153z" />
    <glyph glyph-name="uni0234" unicode="&#x234;" horiz-adv-x="495" 
d="M211 750h139l-126 -698q26 4 51 5q60 0 102 -33t40 -97q-2 -74 -57.5 -107.5t-122.5 -32.5q-46 0 -90.5 18.5t-60.5 66.5l-94 -73l-52 94l139 97l3 10zM208 -66q-2 -20 4 -36.5t30 -16.5q19 0 34.5 11.5t18.5 30.5q4 20 -9 28t-29 8t-45 -7z" />
    <glyph glyph-name="uni0235" unicode="&#x235;" horiz-adv-x="718" 
d="M361 538q88 -1 116.5 -63t20.5 -139l-51 -284q26 4 50 5q60 0 102 -33t40 -97q-2 -74 -57.5 -107.5t-122.5 -32.5q-46 0 -90.5 18.5t-59.5 66.5l-94 -73l-52 94l141 105l56 340q4 38 -7.5 61.5t-53.5 24.5q-54 2 -97 -50l-66 -374h-137l91 528l128 1l-11 -62
q65 73 154 71zM431 -66q-3 -20 3 -36.5t30 -16.5q19 0 34.5 11.5t19.5 30.5q3 19 -9.5 27.5t-29.5 8.5q-16 0 -45 -7z" />
    <glyph glyph-name="uni0236" unicode="&#x236;" horiz-adv-x="495" 
d="M452 130q-2 -74 -57.5 -107.5t-122.5 -33.5q-46 0 -91 19t-60 67l-94 -73l-52 94l141 106l39 223h-75l18 103h74l23 131h138l-22 -131h87l-18 -103h-87l-34 -170q27 4 51 5q60 0 102 -33t40 -97zM243 137q-2 -20 3.5 -36t29.5 -17q19 0 34.5 11.5t19.5 31.5q3 19 -9.5 27
t-28.5 8q-15 0 -45 -7z" />
    <glyph glyph-name="uni0237" unicode="&#x237;" horiz-adv-x="277" 
d="M-39 -226q-18 0 -38.5 2.5t-32.5 6.5l22 122q20 -11 50 -11q26 0 39 14t18 42l99 560h130l-99 -564q-18 -99 -64 -135.5t-124 -36.5z" />
    <glyph glyph-name="uni0238" unicode="&#x238;" horiz-adv-x="880" 
d="M829 260q-8 -65 -34.5 -128t-76 -103.5t-125.5 -38.5t-121 58l-13 -48h-124l8 57q-60 -68 -137 -67q-71 1 -108.5 43.5t-50 104t-6.5 119.5l1 11q8 65 35 127.5t77 103.5t125 40q74 -2 119 -59l52 270h139l-53 -270q55 59 129 58q73 -1 110.5 -43t49 -103t5.5 -121z
M179 257q-3 -28 -2 -63t16 -61.5t53 -27.5q57 -2 101 55l38 210q-19 53 -76 55q-106 3 -130 -168zM625 424q-60 2 -102 -55l-37 -210q18 -53 79 -55q44 -1 70 23t38.5 60.5t16.5 72.5l2 11q3 29 3 64t-15 61.5t-55 27.5z" />
    <glyph glyph-name="uni0239" unicode="&#x239;" horiz-adv-x="849" 
d="M578 -10q-76 2 -122 57l-48 -250h-139l49 249q-55 -57 -127 -56q-71 1 -109 43.5t-50 104t-7 119.5l1 8q21 159 110 233q51 43 129 41q82 -2 125 -66l21 56h112l-8 -53q57 63 134 62q73 -1 110.5 -43t49 -103t5.5 -121l-1 -10q-8 -64 -35 -127.5t-76.5 -104.5t-123.5 -39
zM164 258q-3 -28 -2 -63.5t15.5 -62.5t53.5 -28q58 -2 100 51l40 220q-19 48 -77 50q-97 2 -126 -137zM608 424q-58 2 -100 -51l-39 -217q19 -51 78 -52q104 -3 129 167q3 28 2 63t-16 62t-54 28z" />
    <glyph glyph-name="uni023A" unicode="&#x23a;" horiz-adv-x="653" 
d="M-170 -97l148 150l352 658h132l26 -140l160 162h107l-249 -253l91 -480h-147l-22 146h-248l-73 -146h-74l-96 -97h-107zM371 531l-90 -173l100 104zM291 266l120 -1l-15 102z" />
    <glyph glyph-name="uni023B" unicode="&#x23b;" horiz-adv-x="635" 
d="M283 -10q-42 0 -86 12l-33 -63h-88l53 96q-61 58 -76 137.5t-6 159.5l7 46q13 90 55 169t112.5 127.5t170.5 47.5q33 0 70 -8l31 55h88l-45 -81q55 -39 76.5 -97t24.5 -122l-141 1q1 25 -1 49.5t-14 46.5l-232 -452q19 -5 39 -6q131 -3 159 128l143 1
q-15 -119 -103.5 -183.5t-203.5 -63.5zM184 249q-4 -42 6 -82l224 435l-27 1q-63 0 -101.5 -33.5t-58.5 -85.5t-30 -122.5t-13 -112.5z" />
    <glyph glyph-name="uni023C" unicode="&#x23c;" horiz-adv-x="506" 
d="M226 -11q-30 0 -65 9l-105 -202h-88l123 233q-46 44 -58.5 105t-7.5 122l2 15q13 111 84 190.5t190 77.5l40 -4l92 176h87l-106 -200q44 -32 60.5 -80t15.5 -100l-127 1q2 33 -5 57l-150 -285l19 -2q84 0 102 81h130q-7 -91 -76.5 -143t-156.5 -51zM162 257
q-9 -62 -8 -93l141 262h-1q-36 3 -60 -13t-41.5 -51.5t-30.5 -104.5z" />
    <glyph glyph-name="uni023D" unicode="&#x23d;" horiz-adv-x="570" 
d="M347 317h-98l-35 -199h302l-21 -118h-445l55 317h-90l16 89h90l53 305h143l-53 -305h99z" />
    <glyph glyph-name="uni023E" unicode="&#x23e;" horiz-adv-x="600" 
d="M71 592l21 119h448l39 58l89 1l-43 -61l26 1l-18 -118h-81l-176 -263l-56 -329h-143l7 36l-66 -97h-90l187 282l64 371h-208zM423 592l-15 -79l53 79h-38z" />
    <glyph glyph-name="uni023F" unicode="&#x23f;" horiz-adv-x="496" 
d="M302 150q7 34 -25.5 45.5t-58.5 18.5q-59 15 -112.5 50t-50.5 106q2 57 36 94.5t84 56t100 17.5q80 -1 139.5 -43.5t60.5 -127.5h-137q2 69 -66 70q-28 0 -54.5 -15t-31.5 -45q-7 -37 46 -52l40 -10q63 -15 115 -50t49 -109q-2 -60 -39.5 -97t-91 -53.5t-104.5 -15.5
l-38 3l17 -59q12 -37 43 -39q36 -1 83 35l42 -83q-64 -60 -132 -59q-59 1 -94 42.5t-55 90.5l-70 196l121 50q11 -35 31.5 -55t58.5 -20q30 0 58.5 12.5t35.5 45.5z" />
    <glyph glyph-name="uni0240" unicode="&#x240;" horiz-adv-x="579" 
d="M62 415l21 113h411l-15 -90l-302 -327l17 1q51 0 79.5 -33.5t47.5 -76t39 -75t54 -32.5q22 0 42 11.5t36 23.5l41 -83q-26 -26 -61 -43t-73 -16q-54 1 -82 32t-47.5 71.5t-44.5 73t-72 35.5h-170l17 93l295 321z" />
    <glyph glyph-name="uni0241" unicode="&#x241;" horiz-adv-x="510" 
d="M127 0l43 246l59 -1q65 0 93 45.5t36 102.5l9 61q3 29 2 63t-16 58.5t-54 25.5q-43 1 -68.5 -26.5t-32.5 -66.5l-136 -1q7 97 76.5 156.5t166.5 57.5q113 -3 166 -82.5t41 -184.5l-9 -61q-13 -91 -63 -161t-142 -95l-27 -137h-144z" />
    <glyph glyph-name="uni0242" unicode="&#x242;" horiz-adv-x="492" 
d="M134 0l41 236l46 -1q48 1 76 28.5t34 73.5q4 35 -7.5 61.5t-51.5 27.5q-38 0 -57.5 -28t-24.5 -61l-137 -1q5 92 70 148t156 55q90 -1 144 -54.5t48 -145.5q-5 -76 -49.5 -120.5t-117.5 -56.5l-32 -162h-138z" />
    <glyph glyph-name="uni0243" unicode="&#x243;" horiz-adv-x="666" 
d="M514 50q-81 -50 -185 -50h-276l29 169h-93l16 90h93l79 452l219 -1q155 0 217 -78q32 -41 28 -111q-4 -60 -38 -98q-35 -38 -87 -60q47 -17 68 -59q21 -43 18 -91q-7 -113 -88 -163zM447 434q40 20 48 71q7 47 -17 66q-25 19 -69 21h-109l-31 -178l91 -1q47 0 87 21z
M386 310h-135l-9 -51h95l-16 -90h-95l-9 -51h113q47 0 85 24q37 23 45 73q14 91 -74 95z" />
    <glyph glyph-name="uni0244" unicode="&#x244;" horiz-adv-x="761" 
d="M339 -11q-112 2 -178 70.5t-53 182.5l12 78h-99l16 90h99l52 301h144l-53 -301h243l53 301h143l-52 -301h98l-15 -90h-99l-12 -78q-17 -118 -98.5 -186.5t-200.5 -66.5zM252 242q-7 -55 13.5 -93.5t80.5 -40.5q63 -2 100.5 35t47.5 96l13 81h-243z" />
    <glyph glyph-name="uni0245" unicode="&#x245;" horiz-adv-x="634" 
d="M-51 0l363 711h148l118 -711h-154l-64 533l-247 -533h-164z" />
    <glyph glyph-name="uni0246" unicode="&#x246;" horiz-adv-x="545" 
d="M10 0l124 711h331l27 58h87l-27 -58h44l-21 -119h-77l-78 -169h80l-21 -115h-110l-87 -190h213l-21 -118h-245l-29 -61h-86l28 61h-132zM227 423h107l78 169h-155zM171 117h22l89 191h-74z" />
    <glyph glyph-name="uni0247" unicode="&#x247;" horiz-adv-x="524" 
d="M246 -10q-34 0 -74 10l-105 -204h-88l124 235q-46 42 -63.5 98t-11.5 116l1 9q13 128 89.5 207t188.5 78q26 -1 45 -5l92 177h88l-108 -202q52 -42 66 -105t7 -126l-10 -60h-206l-60 -112q17 -4 34 -3q76 0 136 60l64 -78q-34 -50 -92.5 -73t-116.5 -22zM162 314l81 1
l61 111h-9q-53 0 -84.5 -33t-48.5 -79zM377 328q7 37 -6 64l-41 -77l44 -1zM150 218q-2 -18 -1.5 -34.5t8.5 -33.5l37 68h-44z" />
    <glyph glyph-name="uni0248" unicode="&#x248;" horiz-adv-x="587" 
d="M387 52q-72 -64 -178 -62q-102 2 -156 61q-54 58 -51 159h144q-2 -41 11 -71t60 -31q48 -1 76 32q27 33 35 76l17 101h-100l16 89h99l52 305h143l-51 -305h89l-16 -89h-88l-17 -98q-14 -103 -85 -167z" />
    <glyph glyph-name="uni0249" unicode="&#x249;" horiz-adv-x="370" 
d="M147 -164q-50 -51 -138 -51q-34 1 -74 9l11 113q26 -6 43 -6q67 -1 79 72l46 265h-101l16 89h100l35 201h138l-34 -201h94l-16 -89h-93l-45 -267q-11 -83 -61 -135zM198 717q22 21 54 22q32 0 55 -19q23 -20 24 -53q0 -33 -22 -54t-54 -21t-55 20q-23 19 -23 51
q-1 33 21 54z" />
    <glyph glyph-name="uni024A" unicode="&#x24a;" horiz-adv-x="734" 
d="M566 711h113l-124 -730q-7 -71 62 -72q14 0 43 4l-11 -119q-33 -8 -65 -7q-82 2 -132 57t-37 138l4 24q-55 -16 -121 -15q-96 1 -155 50.5t-82 127.5t-13 164l6 44q13 93 58.5 171.5t119.5 126t174 46.5q85 -1 153 -26zM408 602q-65 1 -108 -31.5t-67.5 -84t-33.5 -113
t-9.5 -88t2.5 -51.5q4 -51 31 -86t89 -37q75 -1 125 37l76 416q-17 24 -47.5 30.5t-57.5 7.5z" />
    <glyph glyph-name="uni024B" unicode="&#x24b;" horiz-adv-x="604" 
d="M412 529l123 -1l-99 -575q-7 -65 59 -66q10 0 37 2l-7 -96q-25 -6 -68 -5q-76 1 -120.5 43.5t-36.5 122.5l18 92q-55 -57 -128 -56q-71 1 -108.5 44t-49.5 104t-7 119l1 8q21 159 109 232q51 43 129 41q83 -2 126 -65zM164 258q-3 -28 -2 -63.5t15.5 -62.5t53.5 -28
q58 -2 100 51l40 220q-19 48 -77 50q-97 2 -126 -137z" />
    <glyph glyph-name="uni024C" unicode="&#x24c;" horiz-adv-x="651" 
d="M431 0l-83 261h-117l-45 -261h-144l46 261h-83l21 118h82l58 332l250 -1q98 -2 165 -52.5t59 -157.5q-10 -146 -156 -203l100 -289v-8h-153zM289 592l-37 -213l106 -1q53 0 91.5 28.5t46.5 82.5q14 99 -85 103h-122z" />
    <glyph glyph-name="uni024D" unicode="&#x24d;" horiz-adv-x="402" 
d="M244 347l-8 -44h109l-16 -89h-108l-38 -214h-139l37 214h-84l16 89h84l39 225l130 1l-13 -65q50 75 123 76q20 0 48 -8l-17 -136q-38 5 -47 5q-74 1 -116 -54z" />
    <glyph glyph-name="uni024E" unicode="&#x24e;" horiz-adv-x="696" 
d="M414 250l-43 -250h-146l46 266l-76 234h-142l13 77h104l-46 133l151 1l37 -134h165l83 134l165 -1l-93 -132l98 -1l-15 -77h-133zM362 393l69 106l-99 1z" />
    <glyph glyph-name="uni024F" unicode="&#x24f;" horiz-adv-x="552" 
d="M256 -80q-27 -58 -69.5 -96.5t-111.5 -38.5q-23 0 -66 10l11 107l19 -1q72 -1 102 57l26 49l-48 286h-102l12 73h78l-27 162h143l19 -162h95l75 162h153l-83 -162h66l-13 -73h-90zM251 293l10 -91l43 91h-53z" />
    <glyph glyph-name="uni0250" unicode="&#x250;" horiz-adv-x="520" 
d="M450 159q-2 -59 -38.5 -97t-89.5 -55.5t-105 -16.5q-83 2 -137 50.5t-46 135.5l38 236l6 48q3 31 -9 59v10l136 1q6 -22 4 -50q59 59 136 58q66 -1 113 -43.5t44 -110.5q-2 -69 -42 -108t-98 -55t-117 -16l-65 1l-7 -32q-6 -33 7 -56t49 -24q70 -2 83 64zM311 431
q-60 2 -104 -52l-18 -91l48 -1q42 0 80.5 20t45.5 67q3 26 -11.5 41.5t-40.5 15.5z" />
    <glyph glyph-name="uni0251" unicode="&#x251;" horiz-adv-x="570" 
d="M498 1q-25 -11 -56 -10q-40 1 -68 21t-38 60q-27 -36 -61 -59.5t-81 -22.5q-71 1 -109 41t-50.5 99.5t-6.5 118.5l1 11q8 65 35 130t76.5 107.5t126.5 40.5q79 -2 116 -74l25 64h122l-61 -358l-3 -36q-1 -24 19 -26l11 1zM165 188q1 -34 15.5 -58.5t52.5 -25.5
q52 -2 93 47l40 224q-19 49 -70 50q-44 1 -70.5 -25.5t-40 -65.5t-18.5 -74q-3 -41 -2 -72z" />
    <glyph glyph-name="uni0252" unicode="&#x252;" horiz-adv-x="570" 
d="M531 268q-8 -65 -35 -130.5t-76.5 -108t-126.5 -40.5q-80 2 -117 74l-25 -64h-121l61 358l3 37q1 23 -20 25l-11 -1l-1 108q24 12 55 11q40 -1 68.5 -21t37.5 -60q27 36 61.5 59.5t81.5 22.5q70 -1 108.5 -41.5t51 -100t6.5 -118.5zM196 151q20 -47 69 -49q43 -1 69.5 26
t40 66t17.5 74l2 10q3 28 2 61.5t-16 58.5t-53 26q-51 1 -93 -47z" />
    <glyph glyph-name="uni0253" unicode="&#x253;" horiz-adv-x="546" 
d="M339 671q-35 1 -61.5 -15.5t-33.5 -51.5l-27 -124q55 59 129 58q73 -1 110.5 -43t48.5 -103t5 -121l-1 -8q-22 -166 -113 -237q-48 -38 -122 -36q-83 2 -127 67l-20 -57h-126l102 602q10 86 63 127.5t137 40.5q38 0 77 -8l-8 -95q-24 4 -33 4zM305 424q-60 2 -101 -55
l-37 -210q18 -53 78 -55q44 -1 70 23t38.5 60.5t17.5 72.5q4 41 4 75q0 35 -15 61.5t-55 27.5z" />
    <glyph glyph-name="uni0254" unicode="&#x254;" horiz-adv-x="506" 
d="M4 184l128 -1q0 -77 74 -79q75 -2 106 74q25 62 23 158q0 35 -15 61.5t-55 27.5q-42 1 -67.5 -26.5t-32.5 -66.5l-129 -1q7 96 73 153t161 54q114 -2 162.5 -82t38.5 -184l-2 -14q-13 -111 -83.5 -191t-188.5 -77q-84 2 -138.5 56t-54.5 138z" />
    <glyph glyph-name="uni0255" unicode="&#x255;" horiz-adv-x="521" 
d="M52 -67l-78 71l80 85q-14 41 -16 83q-3 42 2 99q14 110 83.5 190t188.5 77q92 -2 142.5 -60t48.5 -147h-128q0 37 -16 64.5t-57 29.5q-44 1 -70 -23.5t-41 -69t-27 -123.5q37 36 78.5 59.5t94.5 22.5q57 -1 96.5 -33t37.5 -92q-2 -61 -37.5 -100.5t-88 -58.5t-106.5 -18
q-63 1 -113 28zM315 184q-30 1 -58 -24l-51 -48q19 -8 46 -8q24 0 53 11.5t33 40.5q4 27 -23 28z" />
    <glyph glyph-name="uni0256" unicode="&#x256;" horiz-adv-x="604" 
d="M434 750h138l-137 -797q-7 -65 60 -67l37 3l-8 -96q-29 -6 -67 -5q-76 1 -120.5 43.5t-37.5 122.5l19 94q-57 -59 -129 -58q-71 1 -108.5 43.5t-49.5 103.5t-6 119l1 11q8 65 35 128t77 104t125 39q74 -2 119 -58zM164 257q-3 -28 -2.5 -63t15.5 -61.5t53 -27.5
q57 -2 101 54l38 211q-19 53 -77 55q-43 1 -69 -24t-40 -62t-18 -72z" />
    <glyph glyph-name="uni0257" unicode="&#x257;" horiz-adv-x="604" 
d="M642 671q-36 1 -62 -16t-34 -53l-104 -602h-117l5 59q-62 -71 -141 -69q-71 1 -108.5 43.5t-49.5 104t-6 118.5l1 12q8 65 35 127.5t77 103.5t125 39q75 -1 120 -58l22 122q11 86 64 127.5t137 40.5q39 0 78 -8l-9 -95q-19 4 -33 4zM164 257q-3 -28 -2.5 -63t15.5 -61.5
t53 -27.5q57 -2 101 54l38 211q-19 52 -77 54q-43 1 -69 -23.5t-40 -61.5t-18 -72z" />
    <glyph glyph-name="uni0258" unicode="&#x258;" horiz-adv-x="524" 
d="M194 -10q-59 1 -109.5 25.5t-84.5 72.5l74 76q41 -59 114 -60q58 -1 95.5 32t58.5 83l-330 -1l9 60q15 107 79.5 185t181.5 76q76 -2 123.5 -41.5t66.5 -101t13 -129.5l-2 -20q-13 -112 -94 -185.5t-195 -71.5zM159 314l192 1q1 39 -13.5 73.5t-61 36t-75 -27
t-39.5 -70.5z" />
    <glyph glyph-name="uni0259" unicode="&#x259;" horiz-adv-x="588" 
d="M258 -16q-70 0 -121.5 30t-78.5 79t-27 105q0 48 14 88h383v11q-1 52 -36 82.5t-86 30.5q-54 0 -88.5 -18.5t-57.5 -57.5l-98 52q44 70 104 105t150 35q71 0 125.5 -32.5t84 -88t29.5 -121.5q0 -80 -37 -149t-104.5 -110t-155.5 -41zM268 91q52 0 90.5 30t54.5 72h-260
v-3q0 -42 33 -70.5t82 -28.5z" />
    <glyph glyph-name="uni025A" unicode="&#x25a;" horiz-adv-x="716" 
d="M209 -10q-75 2 -119 38.5t-61.5 95t-12.5 126.5l2 29l330 74q-7 35 -32.5 52.5t-59.5 18.5q-74 3 -133 -58l-63 78q33 50 91.5 72.5t116.5 21.5q74 -1 135.5 -40.5t78.5 -114.5l124 26v-46q-1 -58 10 -84.5t48 -24.5l14 1l11 -90q-33 -18 -69 -17q-63 1 -84.5 47
t-25.5 99l-18 -2l-4 -22q-31 -170 -139 -243q-58 -38 -140 -37zM147 201q-7 -40 9.5 -68t59.5 -29t69.5 23t41.5 60.5t24 70.5l-201 -44z" />
    <glyph glyph-name="uni025B" unicode="&#x25b;" horiz-adv-x="544" 
d="M370 317l-16 -94l-82 1q-35 0 -70 -13.5t-42 -53.5q-6 -34 22.5 -47.5t54.5 -13.5q32 0 65 13t40 48h139q-4 -62 -41 -99t-91 -53t-108 -15q-47 0 -99 15t-88 48.5t-33 92.5q2 54 36.5 83t81.5 46q-29 16 -49.5 43t-19.5 61q1 62 41 97t96.5 49t106.5 13q75 -1 138 -40.5
t64 -122.5l-135 1q-1 32 -24.5 43.5t-52.5 11.5q-30 0 -62 -14t-38 -48q-6 -31 19 -41t48 -10z" />
    <glyph glyph-name="uni025C" unicode="&#x25c;" horiz-adv-x="540" 
d="M162 223l17 94h82q31 1 62 12.5t38 46.5q6 31 -19 43.5t-50 12.5q-30 0 -58.5 -11.5t-36.5 -44.5h-139q3 59 39 94.5t88 52t104 15.5q46 -1 96.5 -14.5t84.5 -46t31 -89.5q-2 -47 -35 -74.5t-72 -44.5q78 -34 76 -116q-1 -63 -43.5 -98.5t-101.5 -50.5t-110 -14
q-78 1 -143 41t-66 127l136 -1q0 -35 26.5 -47t57.5 -13q32 0 67.5 15t41.5 52q7 36 -19.5 47t-54.5 12h-99z" />
    <glyph glyph-name="uni025D" unicode="&#x25d;" horiz-adv-x="721" 
d="M162 223l17 94h82q31 1 62 13t38 46q6 31 -19 43.5t-50 12.5q-30 0 -58.5 -11.5t-36.5 -44.5h-139q3 59 39 94.5t88.5 52t103.5 15.5h14q160 -8 190 -98l128 28l1 -44q0 -61 10.5 -87t46.5 -24l15 1l10 -90q-32 -18 -69 -17q-63 0 -84.5 45.5t-23.5 99.5l-35 -9
q-19 -28 -43.5 -44.5t-54.5 -29.5q79 -35 76 -116q-1 -63 -44 -98.5t-101.5 -50.5t-109.5 -14q-78 1 -143 41t-66 127l136 -1q0 -35 26.5 -47t57.5 -13q32 0 67.5 15t41.5 52q7 36 -19.5 47t-54.5 12h-99z" />
    <glyph glyph-name="uni025E" unicode="&#x25e;" horiz-adv-x="524" 
d="M455 153q-2 -61 -40 -97t-92 -51.5t-106 -14.5q-77 1 -121 41.5t-60 102.5t-8 130l-1 -1v4l-1 4l-1 -1q11 72 43 134t87 99t135 35q47 -1 93 -15.5t76 -47t28 -87.5q-2 -45 -31.5 -73t-66.5 -46q69 -34 66 -116zM230 224l7 92h25q30 0 54 14t29 46q5 28 -11.5 41.5
t-42.5 15.5q-39 2 -65 -20q-63 -54 -65 -217q0 -39 14 -69t55 -30q32 0 59 16.5t32.5 50t-13 46.5t-47.5 14h-31z" />
    <glyph glyph-name="uni025F" unicode="&#x25f;" horiz-adv-x="345" 
d="M210 -30q-14 -83 -63 -134t-137 -51q-30 0 -74 9l11 113q29 -5 43 -6q64 0 81 69l7 31l-104 -1l16 89h99l76 439h138l-76 -439h79l-16 -89l-74 1z" />
    <glyph glyph-name="uni0260" unicode="&#x260;" horiz-adv-x="612" 
d="M637 591q-36 1 -62.5 -16.5t-33.5 -53.5l-85 -503q-15 -109 -92 -168.5t-186 -57.5q-53 1 -102.5 22.5t-83.5 62.5l68 84q46 -58 116 -60q56 -1 92.5 29.5t50.5 81.5l9 35q-57 -58 -130 -57q-71 1 -110.5 43t-53 103t-7.5 121l1 10q8 67 37 129.5t80.5 103t126.5 39.5
q78 -2 119 -52l8 45q32 160 202 157q39 0 78 -7l-9 -96q-25 5 -33 5zM165 257q-3 -29 -1 -64t18.5 -61t55.5 -27q58 -2 100 48l41 223q-21 47 -77 49q-64 1 -96 -50.5t-40 -107.5z" />
    <glyph glyph-name="uni0261" unicode="&#x261;" horiz-adv-x="559" 
d="M456 18q-15 -109 -92 -168.5t-186 -57.5q-53 1 -102.5 22.5t-83.5 62.5l68 84q46 -58 116 -60q56 -1 92.5 29t50.5 82l9 35q-57 -58 -130 -57q-71 1 -110.5 43t-53 103t-7.5 120l1 11q8 66 37 129t80.5 103.5t126.5 38.5q83 -1 126 -60l19 51l126 -1zM165 257
q-3 -29 -1 -64t18.5 -61t55.5 -27q58 -2 100 48l41 223q-21 47 -77 49q-62 2 -94.5 -48t-42.5 -120z" />
    <glyph glyph-name="uni0262" unicode="&#x262;" horiz-adv-x="592" 
d="M533 284l-29 -205q-42 -53 -112 -70.5t-134 -16.5q-100 1 -167 65t-56 168l10 80q14 107 94 171.5t187 62.5q93 -2 150.5 -48t65.5 -140h-135q-9 74 -87 75q-54 1 -90.5 -34t-44.5 -86l-13 -81q-6 -48 15.5 -83t73.5 -37q65 -2 109 20l14 63h-104l17 96h236z" />
    <glyph glyph-name="uni0263" unicode="&#x263;" horiz-adv-x="542" 
d="M372 -81q-4 -70 -58.5 -102t-117.5 -31q-57 1 -107 30t-47 95q1 29 14.5 56t28.5 51l92 137l-131 373h139l80 -244l166 244h152l-270 -395l44 -129q17 -54 15 -85zM189 -78q-1 -11 1 -22.5t16 -11.5q16 0 24.5 12.5t10.5 26.5q3 20 -1 41l-9 37l-26 -40q-13 -21 -16 -43z
" />
    <glyph glyph-name="uni0264" unicode="&#x264;" horiz-adv-x="615" 
d="M425 114q-4 -64 -50.5 -94.5t-106.5 -29.5q-54 1 -96 28.5t-39 87.5q2 54 37.5 104t63.5 89l-16 42q-27 69 -62 69q-12 0 -21.5 -4.5t-34.5 -25.5l-61 85q59 75 140 73q52 -1 86.5 -38.5t55.5 -80.5q34 41 76 81t101 38q44 -1 76.5 -22.5t59.5 -54.5l-75 -82
q-17 21 -26.5 26.5t-22.5 6.5q-28 2 -53 -19.5t-45 -50t-34 -47.5l34 -92q16 -44 13 -89zM260 114q-1 -11 3 -14.5t13 -7.5q19 7 24 12t7 15q3 12 -2 27l-10 27l-22 -28q-12 -15 -13 -31z" />
    <glyph glyph-name="uni0265" unicode="&#x265;" horiz-adv-x="543" 
d="M535 528l-127 -732h-138l52 263q-62 -70 -143 -69q-89 1 -120.5 63.5t-22.5 141.5l55 333h138l-56 -334q-5 -38 6.5 -63.5t54.5 -26.5q55 -2 97 48l66 376h138z" />
    <glyph glyph-name="uni0266" unicode="&#x266;" horiz-adv-x="543" 
d="M335 671q-35 1 -61 -15.5t-34 -51.5l-29 -134q62 70 143 68q89 -1 120.5 -63.5t23.5 -141.5l-56 -333h-138l56 334q4 38 -7.5 63.5t-53.5 26.5q-56 1 -96 -47l-67 -377h-138l102 602q10 86 63.5 127.5t137.5 41.5q38 0 76 -9l-8 -95q-27 4 -34 4z" />
    <glyph glyph-name="uni0267" unicode="&#x267;" horiz-adv-x="543" 
d="M354 538q89 -1 120.5 -63.5t23.5 -141.5l-59 -369q-10 -86 -63.5 -127.5t-137.5 -40.5q-38 0 -77 8l8 95q23 -4 33 -4q36 -1 62.5 16t33.5 53l62 370q4 38 -7.5 63.5t-53.5 26.5q-56 1 -96 -47l-67 -377h-138l102 602q10 86 63.5 127.5t137.5 41.5q38 0 76 -9l-8 -95
q-26 4 -34 4q-35 1 -61 -15.5t-34 -51.5l-29 -134q62 70 143 68z" />
    <glyph glyph-name="uni0268" unicode="&#x268;" horiz-adv-x="355" 
d="M332 238h-97l-41 -238h-138l41 238h-97l16 89h96l35 201h139l-35 -201h97zM184 717q22 21 55 22q32 0 55 -19q22 -20 23 -53q0 -33 -22 -54t-54 -21q-32 -1 -55 19q-23 19 -23 52q-1 33 21 54z" />
    <glyph glyph-name="uni0269" unicode="&#x269;" horiz-adv-x="322" 
d="M90 528h138l-64 -372q-7 -65 59 -67l38 3l-8 -95q-30 -6 -67 -6q-77 1 -120.5 44t-37.5 123z" />
    <glyph glyph-name="uni026A" unicode="&#x26a;" horiz-adv-x="359" 
d="M289 114l-20 -114h-280l20 114h70l52 301h-70l20 114h280l-20 -114h-72l-52 -301h72z" />
    <glyph glyph-name="uni026B" unicode="&#x26b;" horiz-adv-x="391" 
d="M359 380q-27 -43 -83 -43h-7l-58 -337h-139l66 381q-28 -7 -38 -47l-80 5q3 47 32 90q28 43 82 42q10 0 20 -2l49 281h138l-55 -316q18 12 25 41l78 -5q-3 -48 -30 -90z" />
    <glyph glyph-name="uni026C" unicode="&#x26c;" horiz-adv-x="505" 
d="M315 0h-138l47 268l-46 1q-60 1 -102 32.5t-40 96.5q2 75 58.5 108.5t123.5 32.5q21 0 48 -5l41 216h138l-67 -383h124l-18 -99h-123zM192 367h44l5 25q3 20 -3 36t-29 16q-19 0 -34.5 -11.5t-19.5 -30.5q-3 -19 9 -27t28 -8z" />
    <glyph glyph-name="uni026D" unicode="&#x26d;" horiz-adv-x="324" 
d="M147 750h138l-138 -797q-7 -65 60 -66q10 0 37 2l-7 -96q-30 -7 -68 -5q-77 1 -120 44t-37 122z" />
    <glyph glyph-name="uni026E" unicode="&#x26e;" horiz-adv-x="582" 
d="M262 131h-46l17 98l165 185l-179 1l-72 -415h-138l130 750h138l-38 -222h339l-17 -100l-194 -213q75 -20 107 -80t27 -134q-6 -73 -47 -120.5t-102.5 -71t-128.5 -22.5q-88 1 -147.5 44t-74.5 133l135 -1q8 -36 32 -49t60 -13q54 -1 92 30t46 85q8 57 -20.5 85t-83.5 30z
" />
    <glyph glyph-name="uni026F" unicode="&#x26f;" horiz-adv-x="839" 
d="M608 0l11 59q-62 -70 -153 -69q-42 0 -77 19t-49 61q-70 -83 -165 -80q-88 2 -117 63t-21 139l56 336h138l-57 -337q-4 -36 6 -61t51 -26q57 -1 98 60l63 364h138l-57 -337q-4 -36 6 -61t51 -26q52 -1 95 50l65 374h138l-92 -528h-128z" />
    <glyph glyph-name="uni0270" unicode="&#x270;" horiz-adv-x="839" 
d="M828 528l-127 -731h-138l51 258q-61 -66 -148 -65q-42 1 -77 19.5t-49 60.5q-70 -83 -165 -80q-88 2 -117 63t-21 139l56 336h138l-57 -337q-4 -36 6 -61t51 -26q57 -1 98 60l63 364h138l-57 -337q-4 -36 6 -61t51 -26q53 -2 95 50l65 374h138z" />
    <glyph glyph-name="uni0271" unicode="&#x271;" horiz-adv-x="839" 
d="M653 538q88 -2 118 -62.5t21 -139.5l-61 -382q-10 -86 -63 -127.5t-137 -40.5q-38 0 -77 8l8 95q25 -4 33 -4q36 -1 62 16t34 53l64 384q4 36 -6.5 60.5t-50.5 25.5q-56 1 -97 -58l-63 -366h-138l56 336q4 37 -6 62t-51 26q-53 2 -94 -49l-66 -375h-138l91 528l129 1
l-11 -60q63 70 154 69q42 -1 77.5 -19.5t47.5 -60.5q70 82 164 80z" />
    <glyph glyph-name="uni0272" unicode="&#x272;" horiz-adv-x="605" 
d="M361 424q-53 1 -97 -50l-71 -420q-10 -86 -63 -127.5t-137 -40.5q-38 0 -77 8l8 95q19 -4 34 -4q36 -1 62 16t33 53l99 574l129 1l-11 -63q64 74 153 72q87 -1 116 -63t21 -139l-56 -336h-138l56 338q4 38 -7.5 62t-53.5 24z" />
    <glyph glyph-name="uni0273" unicode="&#x273;" horiz-adv-x="604" 
d="M361 538q87 -1 116 -63t21 -139l-63 -383q-8 -65 58 -66q15 -1 38 3l-8 -97q-30 -6 -66 -5q-77 1 -121 44t-37 122l61 384q4 38 -8 61.5t-53 24.5q-54 1 -97 -50l-66 -374h-137l91 528l128 1l-11 -62q65 73 154 71z" />
    <glyph glyph-name="uni0274" unicode="&#x274;" horiz-adv-x="550" 
d="M1 0l92 528h134l116 -334l58 334h138l-91 -528h-135l-115 335l-59 -335h-138z" />
    <glyph glyph-name="uni0275" unicode="&#x275;" horiz-adv-x="547" 
d="M25 255l1 11q9 75 44.5 137.5t95 99.5t139.5 35q114 -2 166 -82t41 -185l-1 -11q-13 -112 -86.5 -192.5t-192.5 -77.5q-113 2 -165.5 81t-41.5 184zM298 425q-54 2 -83.5 -36t-46.5 -82h208q3 42 -13 79.5t-65 38.5zM239 104q53 -2 83 34.5t46 80.5l-207 -1
q-2 -42 13.5 -77.5t64.5 -36.5z" />
    <glyph glyph-name="uni0276" unicode="&#x276;" horiz-adv-x="794" 
d="M717 113l-19 -113h-276q-45 0 -94 -5t-93 -4q-113 2 -164.5 81.5t-40.5 184.5l1 11q14 113 87 192.5t192 78.5q45 0 89.5 -5.5t90.5 -5.5h300l-20 -112h-245l-17 -94h205l-20 -113h-204l-17 -96h245zM168 258q-4 -31 -2 -66q1 -35 17.5 -60t56.5 -27h29l61 3l62 312
l-65 6l-21 1q-65 0 -97 -51t-40 -108z" />
    <glyph glyph-name="uni0277" unicode="&#x277;" horiz-adv-x="796" 
d="M748 241q-7 -66 -35.5 -124t-79 -93.5t-123.5 -33.5q-50 1 -87.5 28.5t-50.5 76.5q-29 -46 -69.5 -76t-97.5 -29q-69 1 -110.5 36.5t-57 90.5t-9.5 117q11 104 71.5 171.5t148.5 100.5t184 32h4q89 -3 163.5 -36.5t116.5 -98t32 -162.5zM333 333h145l-14 -93l-3 -53
q0 -32 10.5 -57t42.5 -26q36 -1 55.5 21.5t28.5 55t13 60.5q11 92 -43 137t-141 47q-92 2 -169.5 -45.5t-90.5 -145.5l-3 -53q0 -30 11 -53.5t43 -24.5q41 -2 65.5 32.5t34.5 100.5z" />
    <glyph glyph-name="uni0278" unicode="&#x278;" horiz-adv-x="618" 
d="M330 -4l-38 -199h-138l38 201q-97 21 -135.5 93.5t-31.5 165.5q11 117 76.5 188t175.5 87l42 218h138l-42 -219q96 -21 135.5 -94.5t31.5 -165.5q-11 -117 -76.5 -188t-175.5 -87zM164 258q-5 -39 0 -78q5 -40 42 -63l59 295q-83 -43 -100 -144zM444 270q5 39 -0.5 78
t-41.5 63l-59 -295q83 41 100 144z" />
    <glyph glyph-name="uni0279" unicode="&#x279;" horiz-adv-x="354" 
d="M121 0l12 64q-50 -75 -122 -75q-21 0 -48 7l17 136q39 -5 47 -5q75 -1 116 55l62 346h137l-92 -528h-129z" />
    <glyph glyph-name="uni027A" unicode="&#x27a;" horiz-adv-x="354" 
d="M121 0l12 64q-50 -75 -122 -75q-19 0 -48 7l17 136q39 -5 47 -5q75 -1 117 55l99 568h138l-131 -750h-129z" />
    <glyph glyph-name="uni027B" unicode="&#x27b;" horiz-adv-x="412" 
d="M205 528h137l-99 -575q-7 -64 59 -66q10 0 38 2l-7 -96q-25 -6 -68 -5q-77 1 -121 43.5t-37 122.5l21 103q-22 -30 -50.5 -49t-67.5 -19q-20 0 -47 7l17 136q39 -5 47 -5q75 -1 116 55z" />
    <glyph glyph-name="uni027C" unicode="&#x27c;" horiz-adv-x="354" 
d="M316 401q-74 1 -115 -54l-97 -551h-138l127 732l129 1l-12 -65q50 75 123 76q20 0 47 -8l-17 -136q-38 5 -47 5z" />
    <glyph glyph-name="uni027D" unicode="&#x27d;" horiz-adv-x="354" 
d="M317 401q-74 1 -116 -54l-69 -394q-7 -65 59 -66q14 0 38 3l-8 -97q-29 -6 -67 -5q-77 1 -120.5 44t-36.5 122l96 574l130 1l-13 -65q50 75 123 76q20 0 48 -8l-17 -136q-38 5 -47 5z" />
    <glyph glyph-name="uni027E" unicode="&#x27e;" horiz-adv-x="314" 
d="M139 0h-138l61 370q10 86 63.5 128t137.5 41q39 0 78 -8l-8 -95q-25 4 -34 4q-36 1 -62.5 -16t-33.5 -53z" />
    <glyph glyph-name="uni027F" unicode="&#x27f;" horiz-adv-x="313" 
d="M176 -203h-138l98 575q7 65 -58 66q-15 0 -38 -2l8 96q29 6 67 6q77 -1 120.5 -44.5t36.5 -122.5z" />
    <glyph glyph-name="uni0280" unicode="&#x280;" horiz-adv-x="543" 
d="M331 0l-67 183h-90l-31 -183h-138l91 528h217q77 -2 140 -44t58 -129q-3 -56 -37.5 -92t-82.5 -57l73 -206h-133zM215 416l-24 -135h83q33 1 62.5 17.5t36.5 52.5q6 31 -13.5 47t-47.5 17z" />
    <glyph glyph-name="uni0281" unicode="&#x281;" horiz-adv-x="543" 
d="M480 181q-3 -62 -38 -102t-88 -59.5t-108 -19.5h-241l91 528h138l-32 -182h82l130 182h148l-154 -210q77 -48 72 -137zM162 113l81 -1q33 1 63.5 19t37.5 54q5 29 -13.5 44.5t-45.5 17.5h-99z" />
    <glyph glyph-name="uni0282" unicode="&#x282;" horiz-adv-x="499" 
d="M161 -199q-28 -7 -54 -6q-72 1 -107.5 49.5t-28.5 116.5l33 207l127 1q1 -77 80 -77q29 0 58 13t36 45q8 38 -46 54l-39 10q-63 17 -114 51.5t-49 104.5q2 57 36 94.5t84 56t101 18.5q80 -1 139.5 -44t59.5 -128h-137q2 69 -66 70q-28 0 -54 -15t-32 -45q-7 -32 23.5 -43
t59.5 -18q90 -22 130 -60.5t37 -99.5q-2 -60 -38.5 -97t-90 -53.5t-104.5 -15.5q-64 0 -120 27l-13 -57q-9 -65 59 -66q14 -1 38 3z" />
    <glyph glyph-name="uni0283" unicode="&#x283;" horiz-adv-x="400" 
d="M413 647q-36 0 -62 -18.5t-34 -54.5l-101 -601q-11 -87 -67.5 -137.5t-145.5 -49.5q-28 0 -75 10l12 110q22 -5 41 -6q36 0 62 18.5t33 54.5l102 601q11 88 67 138.5t146 48.5q27 0 74 -10l-12 -110q-21 6 -40 6z" />
    <glyph glyph-name="uni0284" unicode="&#x284;" horiz-adv-x="405" 
d="M351 629q-26 -19 -34 -55l-82 -485h98l-17 -89h-95l-5 -27q-11 -87 -67.5 -137.5t-145.5 -49.5q-28 0 -75 10l12 110q22 -5 41 -6q36 0 62 18q26 19 33 55l5 27h-97l16 89h96l82 485q11 88 67 139q56 50 146 48q27 0 74 -10l-12 -110q-21 6 -40 6q-36 0 -62 -18z" />
    </font>
</defs>
</svg>
